<svg xmlns="http://www.w3.org/2000/svg" width="1000" height="1000" fill="none" viewBox="0 0 1000 1000">
  <g clip-path="url(#a)">
    <path fill="#0E2A47" d="M0 0h1000v1000H0z"/>
    <path fill="#4A5F75" d="M-108.696 1094.93v-22.73l225.436-88.627L435.024 1108.7h-57.918L116.74 1006.36l-225.436 88.57Z"/>
    <path fill="#4A5F75" fill-rule="evenodd" d="M516.81 1108.7 116.665 953.342l-225.361 87.498v-22.55l1.602-.62.598-114.084a6.383 6.383 0 0 1-2.2-2.301v-6.73c.236-.451.521-.878.854-1.274a4.589 4.589 0 0 0-.854-1.236v-10.69c.697-1.371 1.309-3.344 1.602-6.18h-1.602V844.85h510.295l4.188-14.721h-514.483V676.277l1.153-1.746c0-160.308 136.56-224.049 149.572-229.79l8.825-13.69-3.44-6.919h-5.535l-5.534-11.335 8.825-6.918 2.393-6.183h19.295l-4.487-17.223h11.068l1.496-2.208v-41.513a4.077 4.077 0 0 1-.898-2.65c-.021-.489.06-.977.241-1.433.18-.456.455-.87.806-1.216v-2.061H73.29l-5.535-11.482h7.33l-13.163-29.147h9.274a50.683 50.683 0 0 1 8.373-24.662c4.9-7.375 11.649-13.382 19.596-17.44h-1.047l5.834-11.776a12.66 12.66 0 0 1 2.102-7.031 12.958 12.958 0 0 1 5.675-4.746h8.227a12.68 12.68 0 0 1 5.901 4.651 12.366 12.366 0 0 1 2.176 7.126l5.983 12.512h-.898c7.966 4.035 14.732 10.036 19.634 17.416a50.395 50.395 0 0 1 8.336 24.686h9.872l-13.611 28.411h7.478l-5.085 11.629h-1.197v1.472a4.13 4.13 0 0 1 1.32 1.476 4.06 4.06 0 0 1 .475 1.91 4.083 4.083 0 0 1-1.047 2.502v41.66l1.496 2.061h10.171l-4.786 17.223h20.192l2.243 6.183 7.778 6.919-5.534 11.334h-5.534l-3.44 6.919 9.273 13.838c16.004 6.918 149.572 70.953 149.572 229.495l3.589 5.889h19.295v9.127l-7.179 10.893v18.254l-10.62 19.725v67.274h98.418l-7.927 18.99h7.927l-10.171 31.502h-10.47v18.99h-14.957c.898 9.421 5.534 9.421 5.534 9.421v6.183a5.147 5.147 0 0 0-2.327.462 5.079 5.079 0 0 0-1.861 1.451 6.518 6.518 0 0 1 2.2 2.349c.523.951.795 2.017.792 3.098a6.692 6.692 0 0 1-.989 3.233 6.832 6.832 0 0 1-2.451 2.361l1.346 141.167 164.282 63.8H516.81ZM124.892 273.392c4.786 0 16.453 14.721 17.051 26.056v1.325h-14.957v-1.178a94.424 94.424 0 0 0-2.543-21.492v-4.858l.449.147Zm5.235 50.345h9.722v58.294h-9.722v-58.294Zm-40.085-24.289c0-10.452 11.666-26.056 17.051-26.056h1.496v4.564a97.1 97.1 0 0 0-3.59 21.639v1.178H90.042v-1.325Zm3.739 24.289h9.572v58.294h-9.572v-58.294Zm58.931 81.258-2.243 14.721H82.862l-2.243-14.721h72.093Zm-85.854 26.203h99.465l8.376 14.721H58.631l8.227-14.721ZM-80.171 666.729c1.645-139.846 127.285-195.049 132.67-197.257h22.585s-14.957 6.624-18.995 9.274c-.197.129-.662.399-1.368.81l-.004.002c-13.819 8.033-119.77 69.62-116.64 177.161H.299c-.703-33.643 5.566-67.075 18.424-98.256 12.858-31.18 32.035-59.456 56.361-83.103l7.33-6.035H93.93l-6.431 8.979C41.7 526.671 16.209 590.311 16.153 656.425h52.051c0-92.593 19.295-158.248 29.915-180.181l3.14-6.919h13.911l-2.244 8.391a603.035 603.035 0 0 0-27.82 178.709h63.269a603.004 603.004 0 0 0-27.522-178.709l-2.393-8.391h14.06l3.141 6.919c20.884 57.787 30.771 118.867 29.166 180.181h52.351c-.057-66.114-25.548-129.754-71.346-178.121l-6.432-8.979h11.368l7.478 6.035c24.29 23.612 43.446 51.84 56.302 82.968 12.857 31.127 19.146 64.503 18.484 98.097h62.072c3.277-112.568-112.372-174.932-117.946-177.938l-.066-.035c-4.636-2.503-18.995-9.274-18.995-9.274h22.435c5.385 2.208 131.025 57.41 132.671 197.257v5.005H-80.32l.149-4.711Zm-17.5 27.97h430.767v14.721H-97.671v-14.721Zm412.818 48.725v62.563h-12.863v-62.563c0-2.944 1.645-13.69 6.431-13.69 4.787 0 6.432 10.599 6.432 13.69Zm-50.406 0v62.563h-21.388v-62.415s0-13.838 9.871-13.838c9.872 0 11.517 12.366 11.517 13.69Zm-58.931 0v62.563h-32.307v-62.415c-.074-1.914.27-3.82 1.008-5.591a13.376 13.376 0 0 1 3.271-4.678 13.63 13.63 0 0 1 4.945-2.924 13.808 13.808 0 0 1 5.733-.645c15.854 0 17.35 10.599 17.35 13.69Zm-73.44.148v62.415h-31.41v-62.415a15.539 15.539 0 0 1 5.291-9.628 16.004 16.004 0 0 1 10.414-3.838c3.829 0 7.528 1.363 10.415 3.838a15.538 15.538 0 0 1 5.29 9.628Zm-73.14 0v62.268H27.82v-62.268a15.538 15.538 0 0 1 5.29-9.628 16.004 16.004 0 0 1 10.415-3.838c3.828 0 7.528 1.363 10.414 3.838a15.538 15.538 0 0 1 5.29 9.628Zm-69.102 0v62.268h-21.389v-62.268c0-1.472 0-13.838 10.62-13.838 9.927 0 10.574 10.679 10.738 13.393.012.187.021.34.03.445Zm-59.081 0v62.268h-12.863v-62.416c0-2.944 1.495-13.69 6.431-13.69s6.432 10.599 6.432 13.838Zm31.11 247.013-36.644 14.725V903.586a6.819 6.819 0 0 0 2.283-2.41 6.684 6.684 0 0 0 .858-3.184 6.83 6.83 0 0 0-.709-3.029 6.943 6.943 0 0 0-1.984-2.418 4.47 4.47 0 0 1 1.628-1.416 4.564 4.564 0 0 1 2.112-.498v-6.182s-4.188 0-4.936-9.274h37.841c-.747 8.685-4.636 9.274-4.786 9.274v6.182a4.694 4.694 0 0 1 2.486.725 4.59 4.59 0 0 1 1.702 1.925 7.001 7.001 0 0 0-1.795 4.711 6.398 6.398 0 0 0 .821 3.205 6.53 6.53 0 0 0 2.32 2.389l-1.196 86.999Zm69.552-26.939-36.945 14.721V903.88a6.809 6.809 0 0 0 2.2-2.432c.521-.975.793-2.06.792-3.162a6.539 6.539 0 0 0-.677-3.044 6.653 6.653 0 0 0-2.015-2.403 4.776 4.776 0 0 1 1.71-1.416 4.842 4.842 0 0 1 2.178-.497v-6.183s-4.188 0-4.935-9.274h37.841c0 8.685-4.637 9.274-4.786 9.274v6.183a4.534 4.534 0 0 1 2.502.701 4.429 4.429 0 0 1 1.686 1.949 6.993 6.993 0 0 0-1.645 4.71 6.396 6.396 0 0 0 .82 3.205 6.52 6.52 0 0 0 2.32 2.389l-1.046 59.766Zm69.251-26.939-36.944 14.721v-47.254a6.944 6.944 0 0 0 2.056-2.437 6.827 6.827 0 0 0 0-6.166 6.944 6.944 0 0 0-2.056-2.437 4.468 4.468 0 0 1 1.627-1.416 4.551 4.551 0 0 1 2.112-.498v-6.182s-4.038-1.031-4.935-9.716h37.991c-.898 8.685-4.787 9.716-4.936 9.716v6.182c.878.021 1.733.28 2.472.747a4.737 4.737 0 0 1 1.716 1.903 6.996 6.996 0 0 0-1.645 4.711 6.245 6.245 0 0 0 .735 3.19 6.363 6.363 0 0 0 2.256 2.403l-.449 32.533Zm69.102 14.721-36.794-14.721v-33.563a6.815 6.815 0 0 0 2.283-2.409c.548-.976.843-2.07.858-3.185a6.83 6.83 0 0 0-.709-3.029 6.932 6.932 0 0 0-1.983-2.417 4.455 4.455 0 0 1 1.627-1.416 4.538 4.538 0 0 1 2.112-.498v-6.183s-4.188 0-4.936-9.274h37.842c0 8.685-4.637 9.274-4.787 9.274v6.183a4.683 4.683 0 0 1 2.486.725 4.58 4.58 0 0 1 1.702 1.924 7.005 7.005 0 0 0-1.795 4.711 6.411 6.411 0 0 0 .821 3.205 6.528 6.528 0 0 0 2.32 2.389l-1.047 48.284Zm69.551 26.939-36.944-14.721v-60.355a6.811 6.811 0 0 0 2.2-2.432c.521-.975.793-2.06.792-3.162a6.55 6.55 0 0 0-.677-3.044 6.635 6.635 0 0 0-2.016-2.402 4.615 4.615 0 0 1 1.636-1.399 4.698 4.698 0 0 1 2.103-.515v-6.183s-4.188 0-4.935-9.274h37.841c-.748 8.685-4.636 9.274-4.786 9.274v6.183a4.536 4.536 0 0 1 2.502.701 4.434 4.434 0 0 1 1.686 1.949 6.994 6.994 0 0 0-1.645 4.71 6.395 6.395 0 0 0 .82 3.205 6.515 6.515 0 0 0 2.321 2.389l-.898 75.076Zm68.504 26.943-36.196-14.725-.898-87.441a7.096 7.096 0 0 0 2.167-2.449 6.982 6.982 0 0 0 .825-3.145 6.547 6.547 0 0 0-.677-3.044 6.642 6.642 0 0 0-2.015-2.402 4.455 4.455 0 0 1 1.627-1.416 4.538 4.538 0 0 1 2.112-.498v-6.183s-4.188 0-4.936-9.274h37.991c-.897 8.685-4.786 9.274-4.936 9.274v6.183a4.685 4.685 0 0 1 2.486.725 4.587 4.587 0 0 1 1.702 1.924 6.997 6.997 0 0 0-1.645 4.711 6.25 6.25 0 0 0 .735 3.191 6.37 6.37 0 0 0 2.256 2.403l-.598 102.166Zm69.102 26.79-36.196-14.72-.898-114.236a6.818 6.818 0 0 0 2.284-2.409c.548-.976.842-2.07.857-3.185a6.815 6.815 0 0 0-.708-3.029 6.935 6.935 0 0 0-1.984-2.417 4.463 4.463 0 0 1 1.627-1.416 4.54 4.54 0 0 1 2.112-.498v-6.183s-4.188 0-4.935-9.274h37.841c-.748 8.685-4.636 9.274-4.786 9.274v6.183a4.69 4.69 0 0 1 2.573.684 4.59 4.59 0 0 1 1.764 1.965 7 7 0 0 0-1.794 4.711 6.4 6.4 0 0 0 .82 3.205 6.523 6.523 0 0 0 2.321 2.389l-.898 128.956Z" clip-rule="evenodd"/>
    <path fill="#4A5F75" d="M648.435 249.565 534.174 194v-29.478l114.261-55.565v26.347l-78 37.305a208.984 208.984 0 0 1-9.913 4.174c-3.131 1.043-5.479 1.739-7.044 2.087 1.739.347 4.174 1.043 7.305 2.087a65.882 65.882 0 0 1 9.652 3.913l78 37.565v27.13Zm42.941 62.609V121.739h27.913v27.391h6l-6 6.522c0-11.304 3.479-20.174 10.435-26.608 7.131-6.609 16.609-9.914 28.435-9.914 14.435 0 25.913 4.87 34.435 14.609 8.695 9.565 13.043 22.696 13.043 39.391v40.435c0 11.131-2 20.783-6 28.957-3.826 8-9.304 14.261-16.435 18.782-6.956 4.348-15.304 6.522-25.043 6.522-11.652 0-21.044-3.217-28.174-9.652-7.13-6.609-10.696-15.565-10.696-26.87l6 6.522h-6.521l.782 33.391v40.957h-28.174Zm57.131-68.87c9.217 0 16.348-2.608 21.391-7.826 5.217-5.391 7.826-13.13 7.826-23.217v-37.565c0-10.087-2.609-17.739-7.826-22.957-5.043-5.391-12.174-8.087-21.391-8.087-8.87 0-15.913 2.783-21.131 8.348-5.217 5.391-7.826 12.957-7.826 22.696v37.565c0 9.739 2.609 17.391 7.826 22.956 5.218 5.392 12.261 8.087 21.131 8.087Zm98.507 6.261v-26.608l78-37.305c3.478-1.565 6.782-2.869 9.913-3.913 3.13-1.043 5.478-1.739 7.043-2.087-1.739-.348-4.261-1.043-7.565-2.087a110.295 110.295 0 0 1-9.391-4.174l-78-37.304v-27.13l114.26 55.565V194l-114.26 55.565Z"/>
    <path fill="#DBDFE4" d="m523.934 514.169 74.963 133.657h42.665V424.004h21.499v-28.832h-81.996v28.832h28.332v170.325l-1.334 7.999-84.129-151.359v63.2Zm352.449-118.997H695.392v28.832h23.999v195.157h-23.999v28.665h180.991v-71.33h-34.164v42.665h-90.163v-85.663h75.83v-28.665h-75.83v-80.829h90.163v42.664h34.164v-71.496Z"/>
    <g filter="url(#b)">
      <path fill="#4392B2" d="M475.936 394.839h-72.529v29.165h39.998v195.157h-39.332v28.665h113.995v-28.665H476.07v-85.663h-.134V394.839Z"/>
    </g>
    <g filter="url(#c)">
      <path fill="#fff" d="M264.747 352.174h-31.999v170.658h31.999V352.174Z"/>
      <path fill="#fff" d="M308.578 441.336c-3.742-4.158-7.776-7.866-12.102-11.124l16.345-28.309a113.446 113.446 0 0 1 21.922 18.934c10.666 11.777 18.944 25.666 24.832 41.665 5.889 15.999 8.833 33.109 8.833 51.331 0 18.221-3 35.331-8.999 51.33-5.889 15.889-14.222 29.777-24.999 41.665-10.666 11.888-23.443 21.277-38.331 28.165-14.777 6.778-31.054 10.167-48.831 10.167-17.444 0-33.388-3.223-47.831-9.667-14.444-6.555-27.332-15.832-38.665-27.832-11.333-11.999-19.944-26.221-25.832-42.664-5.889-16.444-8.833-33.499-8.833-51.164 0-18.222 2.944-35.332 8.833-51.331 6-15.999 14.332-29.888 24.999-41.665a116.537 116.537 0 0 1 20.147-17.679l16.223 28.098a84.099 84.099 0 0 0-12.538 12.413c-7.555 9.111-13.388 19.777-17.499 31.999-4.111 12.11-6.167 24.832-6.167 38.165 0 15.554 2.278 29.443 6.833 41.664 4.556 12.111 10.555 22.221 17.999 30.332 7.556 8 16.5 14.722 26.832 20.166 10.444 5.444 22.277 8.166 35.499 8.166 13.221 0 25.165-2.722 35.831-8.166 10.777-5.444 19.944-12.722 27.499-21.832 7.555-9.222 13.388-19.888 17.499-31.999 4.111-12.11 6.166-24.888 6.166-38.331 0-13.777-2.277-27.055-6.833-39.832-4.444-12.888-10.721-23.776-18.832-32.665Z"/>
    </g>
  </g>
  <defs>
    <filter id="b" width="122.661" height="260.988" x="399.407" y="390.839" color-interpolation-filters="sRGB" filterUnits="userSpaceOnUse">
      <feFlood flood-opacity="0" result="BackgroundImageFix"/>
      <feColorMatrix in="SourceAlpha" result="hardAlpha" values="0 0 0 0 0 0 0 0 0 0 0 0 0 0 0 0 0 0 127 0"/>
      <feOffset/>
      <feGaussianBlur stdDeviation="2"/>
      <feComposite in2="hardAlpha" operator="out"/>
      <feColorMatrix values="0 0 0 0 0.262745 0 0 0 0 0.572549 0 0 0 0 0.698039 0 0 0 0.5 0"/>
      <feBlend in2="BackgroundImageFix" result="effect1_dropShadow_357_5170"/>
      <feBlend in="SourceGraphic" in2="effect1_dropShadow_357_5170" result="shape"/>
    </filter>
    <filter id="c" width="250.321" height="300.985" x="122.087" y="348.174" color-interpolation-filters="sRGB" filterUnits="userSpaceOnUse">
      <feFlood flood-opacity="0" result="BackgroundImageFix"/>
      <feColorMatrix in="SourceAlpha" result="hardAlpha" values="0 0 0 0 0 0 0 0 0 0 0 0 0 0 0 0 0 0 127 0"/>
      <feOffset/>
      <feGaussianBlur stdDeviation="2"/>
      <feComposite in2="hardAlpha" operator="out"/>
      <feColorMatrix values="0 0 0 0 1 0 0 0 0 1 0 0 0 0 1 0 0 0 0.5 0"/>
      <feBlend in2="BackgroundImageFix" result="effect1_dropShadow_357_5170"/>
      <feBlend in="SourceGraphic" in2="effect1_dropShadow_357_5170" result="shape"/>
    </filter>
    <clipPath id="a">
      <path fill="#fff" d="M0 0h1000v1000H0z"/>
    </clipPath>
  </defs>
</svg>
