<svg xmlns="http://www.w3.org/2000/svg" width="1584" height="396" fill="none" viewBox="0 0 1584 396">
  <g clip-path="url(#a)">
    <path fill="#fff" d="M0 0h1584v396H0z"/>
    <path fill="#0E2A47" d="M1737.18-215.341H-18.813v683.123H1737.18v-683.123Z"/>
    <path stroke="#275B6C" stroke-width="1.5" d="m-126.953 249.39 181.965-49.331m-208.915 214.379 208.61-33.144m-208.61 33.144L55.012 200.059m-180.197 434.967L54.707 381.294m.305-181.235-.304 181.235m.304-181.235 196.709 37.657M55.012 200.059l238.804 190.945M55.012 200.059l378.832 52.625M54.708 381.294l-181.661-131.903M54.708 381.294l239.108 9.71m-239.108-9.71L79.45 623.571m0 0 214.365-232.567M251.72 237.716l42.095 153.288M251.72 237.716l182.124 14.968m-182.123-14.968L54.708 381.294M251.72 237.716l193.599 226.139M251.72 237.716l-1.512 338.817m43.608-185.529 151.503 72.851M250.208 576.533l43.608-185.529m140.028-138.32 178.173-25.471m-178.173 25.471-140.028 138.32m140.028-138.32 11.475 211.171m-45.107 110.8L293.816 391.004m318.201-163.791-16.121 172.806M816.615 38.122 991.91 67.814M816.615 38.122l23.096 192.885M816.615 38.122 612.017 227.213M816.615 38.122l211.825 203.913m-188.729-11.028 188.729 11.028m-188.729-11.028L991.91 67.814M839.712 231.007l-227.695-3.794m227.694 3.794 174.309 238.239M991.909 67.814l36.531 174.221M991.909 67.814l223.641-1.269m-223.641 1.269 208.441-178.722m-171.91 352.943 183.46 33.558m-197.88 193.653 14.43-227.211m-60.673 348.429 60.663-348.429m174-546.304 13.12 370.814m-15.21-177.453 15.21 177.453m0 0 141.91-.976M1211.9 275.593l129.22 121.181M1211.9 275.593l171.83-71.24m-225.16 252.073 53.33-180.833m166.27-377.779-20.7 167.755m0 .001 26.26 138.783m0 0 148.11 13.028m-148.11-13.028-42.61 192.421m42.61-192.421L1215.56 66.545m125.56 330.229 190.72-179.393m34.31-356.407 125.38 187.103m-159.69 169.304 182.99 3.184m-182.99-3.184-41.14 180.601m41.14-180.601L1357.47 65.569m133.23 332.413 199.84-8.93m-199.84 8.93-106.97-193.629m331.1 16.212L1490.7 397.982"/>
    <path fill="#275B6C" d="M55.012 206.159a6.099 6.099 0 0 0 6.097-6.1 6.098 6.098 0 1 0-12.194 0c0 3.369 2.73 6.1 6.097 6.1Zm-.305 181.234a6.098 6.098 0 0 0 6.097-6.099 6.098 6.098 0 1 0-6.097 6.099Zm197.014-143.577a6.098 6.098 0 0 0 6.097-6.099 6.098 6.098 0 1 0-12.194 0 6.098 6.098 0 0 0 6.097 6.099Zm42.094 153.288a6.098 6.098 0 0 0 6.097-6.1 6.098 6.098 0 1 0-12.194 0c0 3.369 2.73 6.1 6.097 6.1Zm140.029-138.321a6.097 6.097 0 0 0 6.097-6.099 6.097 6.097 0 1 0-12.194 0 6.098 6.098 0 0 0 6.097 6.099Zm178.173-25.47a6.099 6.099 0 0 0 6.097-6.1 6.098 6.098 0 1 0-12.195 0c0 3.369 2.73 6.1 6.098 6.1Zm-16.121 172.806a6.099 6.099 0 0 0 6.097-6.1 6.098 6.098 0 1 0-12.195 0c0 3.369 2.73 6.1 6.098 6.1ZM816.615 44.222a6.098 6.098 0 0 0 6.097-6.1 6.098 6.098 0 1 0-12.194 0c0 3.369 2.729 6.1 6.097 6.1Zm23.096 192.884a6.098 6.098 0 0 0 6.098-6.099 6.098 6.098 0 1 0-12.195 0 6.098 6.098 0 0 0 6.097 6.099ZM991.91 73.913a6.098 6.098 0 0 0 6.097-6.1 6.098 6.098 0 1 0-12.194 0c0 3.37 2.73 6.1 6.097 6.1Zm36.53 174.221a6.1 6.1 0 1 0 0-12.199c-3.36 0-6.09 2.731-6.09 6.1a6.097 6.097 0 0 0 6.09 6.099Zm187.12-175.49c3.36 0 6.09-2.73 6.09-6.099 0-3.368-2.73-6.1-6.09-6.1a6.099 6.099 0 1 0 0 12.2Zm-3.66 209.049c3.36 0 6.09-2.731 6.09-6.1a6.097 6.097 0 0 0-6.09-6.099 6.1 6.1 0 1 0 0 12.199Zm145.57-210.024a6.099 6.099 0 1 0 0-12.199c-3.36 0-6.09 2.73-6.09 6.1a6.097 6.097 0 0 0 6.09 6.099Zm26.26 138.784a6.1 6.1 0 1 0 0-12.199 6.1 6.1 0 1 0 0 12.199Zm-42.61 192.421a6.1 6.1 0 1 0 0-12.199 6.1 6.1 0 1 0 0 12.199Zm190.72-179.393a6.1 6.1 0 1 0 0-12.199 6.09 6.09 0 0 0-6.09 6.099 6.09 6.09 0 0 0 6.09 6.1Zm-41.14 180.6a6.098 6.098 0 1 0 0-12.198 6.1 6.1 0 1 0 0 12.198Z"/>
    <path stroke="#245465" stroke-width="1.5" d="m952.693 217.906-181.99 52.539m181.99-52.539L1161.1 241.73M427.723 436.322l216.536-49.916M475.244 614.752l169.015-228.346m0-.001 126.444-115.96M644.259 386.406l192.465 17.053M619.809 603.675l24.45-217.269m126.444-115.961 66.021 133.014m-66.021-133.014 69.179 343.062m-69.179-343.062-150.894 333.23m150.894-333.23-342.98 165.877m409-32.863 115.969-185.553m-112.81 395.601L644.259 386.406M1161.1 241.73l173.17 31.667M1161.1 241.73l33.47 175.636m-26.55 167.804-6.92-343.44m236.52-150.312L1542.2 42.49m-144.58 48.928-63.35 181.979m63.35-181.979 162.99 154.008m-226.34 27.971 13.16 176.136m-13.16-176.136-139.7 143.969m139.7-143.969 172.28 139.236m-159.12 36.9L1161.1 241.73m347.5-351.101 33.6 151.86m-33.6-151.86-110.98 200.79m110.98-200.79 221.17 186.785m-169.16 168.012 157.58-2.806m-157.58 2.806-54.06 167.206m54.06-167.206L1542.2 42.49m187.57 34.924L1542.2 42.49"/>
    <path fill="url(#b)" d="M280.414 437.725c16.837 0 30.486-13.654 30.486-30.496 0-16.843-13.649-30.497-30.486-30.497-16.837 0-30.486 13.654-30.486 30.497 0 16.842 13.649 30.496 30.486 30.496Z"/>
    <path fill="url(#c)" d="M952.693 248.402c16.837 0 30.486-13.653 30.486-30.496 0-16.843-13.649-30.497-30.486-30.497-16.837 0-30.486 13.654-30.486 30.497s13.649 30.496 30.486 30.496Z"/>
    <path fill="#8EA0A7" d="M644.259 392.505a6.099 6.099 0 0 0 6.097-6.1 6.098 6.098 0 0 0-6.097-6.099 6.098 6.098 0 0 0-6.097 6.099c0 3.369 2.73 6.1 6.097 6.1Zm126.444-115.96a6.098 6.098 0 0 0 6.097-6.1 6.098 6.098 0 1 0-12.194 0c0 3.369 2.73 6.1 6.097 6.1Zm390.397-28.716c3.36 0 6.09-2.731 6.09-6.099 0-3.369-2.73-6.1-6.09-6.1a6.1 6.1 0 1 0 0 12.199Zm236.52-150.312a6.099 6.099 0 1 0 0-12.198 6.099 6.099 0 1 0 0 12.198Zm-63.35 181.98a6.1 6.1 0 1 0 0-12.199 6.1 6.1 0 1 0 0 12.199ZM1542.2 48.589c3.36 0 6.09-2.731 6.09-6.1a6.097 6.097 0 0 0-6.09-6.099 6.099 6.099 0 1 0 0 12.199Zm18.41 202.936a6.098 6.098 0 1 0 0-12.198 6.098 6.098 0 1 0 0 12.198Z"/>
    <path fill="#E6E9EC" d="M894.8 247.152c1.776 0 3.328.352 4.656 1.056 1.328.704 2.352 1.696 3.072 2.976.736 1.264 1.104 2.728 1.104 4.392 0 1.648-.368 3.112-1.104 4.392-.72 1.28-1.752 2.272-3.096 2.976-1.328.704-2.872 1.056-4.632 1.056h-6.312v-16.848h6.312Zm-.264 13.296c1.552 0 2.76-.424 3.624-1.272.864-.848 1.296-2.048 1.296-3.6s-.432-2.76-1.296-3.624c-.864-.864-2.072-1.296-3.624-1.296h-1.944v9.792h1.944Zm13.454-11.232c-.72 0-1.312-.208-1.776-.624a2.116 2.116 0 0 1-.672-1.584c0-.64.224-1.168.672-1.584.464-.432 1.056-.648 1.776-.648.704 0 1.28.216 1.728.648.464.416.696.944.696 1.584 0 .624-.232 1.152-.696 1.584-.448.416-1.024.624-1.728.624Zm2.04 1.392V264h-4.104v-13.392h4.104Zm8.422 13.584c-1.168 0-2.208-.2-3.12-.6-.912-.4-1.632-.944-2.16-1.632a4.386 4.386 0 0 1-.888-2.352h4.056c.048.464.264.84.648 1.128.384.288.856.432 1.416.432.512 0 .904-.096 1.176-.288.288-.208.432-.472.432-.792 0-.384-.2-.664-.6-.84-.4-.192-1.048-.4-1.944-.624-.96-.224-1.76-.456-2.4-.696a4.309 4.309 0 0 1-1.656-1.176c-.464-.544-.696-1.272-.696-2.184 0-.768.208-1.464.624-2.088.432-.64 1.056-1.144 1.872-1.512.832-.368 1.816-.552 2.952-.552 1.68 0 3 .416 3.96 1.248.976.832 1.536 1.936 1.68 3.312h-3.792a1.617 1.617 0 0 0-.624-1.104c-.336-.272-.784-.408-1.344-.408-.48 0-.848.096-1.104.288a.851.851 0 0 0-.384.744c0 .384.2.672.6.864.416.192 1.056.384 1.92.576.992.256 1.8.512 2.424.768.624.24 1.168.64 1.632 1.2.48.544.728 1.28.744 2.208 0 .784-.224 1.488-.672 2.112-.432.608-1.064 1.088-1.896 1.44-.816.352-1.768.528-2.856.528Zm7.118-6.888c0-1.392.28-2.608.84-3.648a6.017 6.017 0 0 1 2.376-2.4c1.024-.56 2.192-.84 3.504-.84 1.68 0 3.08.44 4.2 1.32 1.136.88 1.88 2.12 2.232 3.72h-4.368c-.368-1.024-1.08-1.536-2.136-1.536-.752 0-1.352.296-1.8.888-.448.576-.672 1.408-.672 2.496s.224 1.928.672 2.52c.448.576 1.048.864 1.8.864 1.056 0 1.768-.512 2.136-1.536h4.368c-.352 1.568-1.096 2.8-2.232 3.696-1.136.896-2.536 1.344-4.2 1.344-1.312 0-2.48-.28-3.504-.84a6.017 6.017 0 0 1-2.376-2.4c-.56-1.04-.84-2.256-.84-3.648Zm28.572-6.696V264h-4.104v-1.824c-.416.592-.984 1.072-1.704 1.44-.704.352-1.488.528-2.352.528-1.024 0-1.928-.224-2.712-.672-.784-.464-1.392-1.128-1.824-1.992-.432-.864-.648-1.88-.648-3.048v-7.824h4.08v7.272c0 .896.232 1.592.696 2.088.464.496 1.088.744 1.872.744.8 0 1.432-.248 1.896-.744.464-.496.696-1.192.696-2.088v-7.272h4.104Zm8.396 13.584c-1.168 0-2.208-.2-3.12-.6-.912-.4-1.632-.944-2.16-1.632a4.386 4.386 0 0 1-.888-2.352h4.056c.048.464.264.84.648 1.128.384.288.856.432 1.416.432.512 0 .904-.096 1.176-.288.288-.208.432-.472.432-.792 0-.384-.2-.664-.6-.84-.4-.192-1.048-.4-1.944-.624-.96-.224-1.76-.456-2.4-.696a4.309 4.309 0 0 1-1.656-1.176c-.464-.544-.696-1.272-.696-2.184 0-.768.208-1.464.624-2.088.432-.64 1.056-1.144 1.872-1.512.832-.368 1.816-.552 2.952-.552 1.68 0 3 .416 3.96 1.248.976.832 1.536 1.936 1.68 3.312h-3.792a1.617 1.617 0 0 0-.624-1.104c-.336-.272-.784-.408-1.344-.408-.48 0-.848.096-1.104.288a.851.851 0 0 0-.384.744c0 .384.2.672.6.864.416.192 1.056.384 1.92.576.992.256 1.8.512 2.424.768.624.24 1.168.64 1.632 1.2.48.544.728 1.28.744 2.208 0 .784-.224 1.488-.672 2.112-.432.608-1.064 1.088-1.896 1.44-.816.352-1.768.528-2.856.528Zm13.382 0c-1.168 0-2.208-.2-3.12-.6-.912-.4-1.632-.944-2.16-1.632a4.386 4.386 0 0 1-.888-2.352h4.056c.048.464.264.84.648 1.128.384.288.856.432 1.416.432.512 0 .904-.096 1.176-.288.288-.208.432-.472.432-.792 0-.384-.2-.664-.6-.84-.4-.192-1.048-.4-1.944-.624-.96-.224-1.76-.456-2.4-.696a4.309 4.309 0 0 1-1.656-1.176c-.464-.544-.696-1.272-.696-2.184 0-.768.208-1.464.624-2.088.432-.64 1.056-1.144 1.872-1.512.832-.368 1.816-.552 2.952-.552 1.68 0 3 .416 3.96 1.248.976.832 1.536 1.936 1.68 3.312h-3.792a1.617 1.617 0 0 0-.624-1.104c-.336-.272-.784-.408-1.344-.408-.48 0-.848.096-1.104.288a.851.851 0 0 0-.384.744c0 .384.2.672.6.864.416.192 1.056.384 1.92.576.992.256 1.8.512 2.424.768.624.24 1.168.64 1.632 1.2.48.544.728 1.28.744 2.208 0 .784-.224 1.488-.672 2.112-.432.608-1.064 1.088-1.896 1.44-.816.352-1.768.528-2.856.528Zm9.999-14.976c-.72 0-1.312-.208-1.776-.624a2.116 2.116 0 0 1-.672-1.584c0-.64.224-1.168.672-1.584.464-.432 1.056-.648 1.776-.648.704 0 1.28.216 1.728.648.464.416.696.944.696 1.584 0 .624-.232 1.152-.696 1.584-.448.416-1.024.624-1.728.624Zm2.04 1.392V264h-4.104v-13.392h4.104Zm9.07 13.584c-1.312 0-2.496-.28-3.552-.84a6.253 6.253 0 0 1-2.472-2.4c-.592-1.04-.888-2.256-.888-3.648 0-1.376.304-2.584.912-3.624a6.166 6.166 0 0 1 2.496-2.424c1.056-.56 2.24-.84 3.552-.84 1.312 0 2.496.28 3.553.84a6.164 6.164 0 0 1 2.5 2.424c.6 1.04.91 2.248.91 3.624s-.31 2.592-.94 3.648a6.197 6.197 0 0 1-2.52 2.4c-1.055.56-2.239.84-3.551.84Zm0-3.552c.784 0 1.448-.288 1.992-.864.56-.576.84-1.4.84-2.472s-.272-1.896-.816-2.472a2.561 2.561 0 0 0-1.968-.864c-.8 0-1.464.288-1.992.864-.528.56-.792 1.384-.792 2.472 0 1.072.256 1.896.768 2.472a2.561 2.561 0 0 0 1.968.864Zm17.341-10.176c1.57 0 2.82.512 3.75 1.536.94 1.008 1.41 2.4 1.41 4.176V264h-4.08v-7.272c0-.896-.23-1.592-.69-2.088-.47-.496-1.09-.744-1.87-.744-.79 0-1.41.248-1.88.744-.46.496-.69 1.192-.69 2.088V264h-4.11v-13.392h4.11v1.776c.41-.592.97-1.056 1.68-1.392.7-.352 1.49-.528 2.37-.528Zm13.46 13.728c-1.16 0-2.2-.2-3.12-.6-.91-.4-1.63-.944-2.16-1.632a4.409 4.409 0 0 1-.88-2.352h4.05c.05.464.27.84.65 1.128.38.288.86.432 1.42.432.51 0 .9-.096 1.17-.288.29-.208.43-.472.43-.792 0-.384-.2-.664-.6-.84-.4-.192-1.04-.4-1.94-.624-.96-.224-1.76-.456-2.4-.696a4.368 4.368 0 0 1-1.66-1.176c-.46-.544-.69-1.272-.69-2.184 0-.768.21-1.464.62-2.088.43-.64 1.06-1.144 1.87-1.512.84-.368 1.82-.552 2.96-.552 1.68 0 3 .416 3.96 1.248.97.832 1.53 1.936 1.68 3.312h-3.8a1.605 1.605 0 0 0-.62-1.104c-.34-.272-.78-.408-1.34-.408-.48 0-.85.096-1.11.288a.861.861 0 0 0-.38.744c0 .384.2.672.6.864.41.192 1.05.384 1.92.576.99.256 1.8.512 2.42.768.63.24 1.17.64 1.63 1.2.48.544.73 1.28.75 2.208 0 .784-.23 1.488-.67 2.112-.44.608-1.07 1.088-1.9 1.44-.82.352-1.77.528-2.86.528Zm17.54-4.584c-.66 0-1.27-.16-1.83-.48-.54-.32-.97-.752-1.29-1.296a3.614 3.614 0 0 1-.48-1.824c0-.672.16-1.28.48-1.824.32-.56.75-1 1.29-1.32.56-.32 1.17-.48 1.83-.48.67 0 1.28.16 1.82.48.56.32 1 .76 1.32 1.32.32.544.48 1.152.48 1.824 0 .656-.16 1.264-.48 1.824a3.54 3.54 0 0 1-1.32 1.296c-.54.32-1.15.48-1.82.48Zm23.08 1.416h-6.29l-1 2.976h-4.3l6.1-16.848h4.75L1073.8 264h-4.34l-1.01-2.976Zm-1.05-3.168-2.09-6.168-2.07 6.168h4.16Zm10.32-8.64c-.72 0-1.31-.208-1.77-.624-.45-.432-.67-.96-.67-1.584 0-.64.22-1.168.67-1.584.46-.432 1.05-.648 1.77-.648.71 0 1.28.216 1.73.648.47.416.7.944.7 1.584 0 .624-.23 1.152-.7 1.584-.45.416-1.02.624-1.73.624Zm2.04 1.392V264h-4.1v-13.392h4.1Zm2.16 6.672c0-1.376.26-2.584.77-3.624.53-1.04 1.24-1.84 2.14-2.4.89-.56 1.89-.84 3-.84.88 0 1.68.184 2.4.552.73.368 1.31.864 1.72 1.488v-6.216h4.11V264h-4.11v-1.92c-.38.64-.93 1.152-1.65 1.536-.71.384-1.53.576-2.47.576-1.11 0-2.11-.28-3-.84-.9-.576-1.61-1.384-2.14-2.424-.51-1.056-.77-2.272-.77-3.648Zm10.03.024c0-1.024-.28-1.832-.86-2.424a2.73 2.73 0 0 0-2.06-.888c-.82 0-1.52.296-2.09.888-.56.576-.84 1.376-.84 2.4s.28 1.84.84 2.448c.57.592 1.27.888 2.09.888.81 0 1.5-.296 2.06-.888.58-.592.86-1.4.86-2.424Zm19.7-.216c0 .384-.02.784-.07 1.2h-9.29c.07.832.33 1.472.79 1.92.48.432 1.07.648 1.76.648 1.02 0 1.73-.432 2.13-1.296h4.37c-.22.88-.63 1.672-1.22 2.376a6.013 6.013 0 0 1-2.19 1.656c-.88.4-1.86.6-2.95.6-1.31 0-2.48-.28-3.5-.84a5.902 5.902 0 0 1-2.4-2.4c-.58-1.04-.87-2.256-.87-3.648 0-1.392.28-2.608.84-3.648a6.025 6.025 0 0 1 2.4-2.4c1.03-.56 2.2-.84 3.53-.84 1.3 0 2.45.272 3.46.816 1 .544 1.79 1.32 2.35 2.328.57 1.008.86 2.184.86 3.528Zm-4.2-1.08c0-.704-.24-1.264-.72-1.68-.48-.416-1.08-.624-1.8-.624-.69 0-1.27.2-1.75.6-.46.4-.75.968-.86 1.704h5.13Zm10.64 1.272c0-1.376.25-2.584.76-3.624.53-1.04 1.24-1.84 2.14-2.4.9-.56 1.9-.84 3-.84.94 0 1.77.192 2.47.576.72.384 1.27.888 1.66 1.512v-1.896h4.1V264h-4.1v-1.896c-.4.624-.96 1.128-1.68 1.512-.71.384-1.53.576-2.47.576-1.09 0-2.08-.28-2.98-.84-.9-.576-1.61-1.384-2.14-2.424-.51-1.056-.76-2.272-.76-3.648Zm10.03.024c0-1.024-.29-1.832-.87-2.424a2.716 2.716 0 0 0-2.06-.888c-.82 0-1.51.296-2.09.888-.56.576-.84 1.376-.84 2.4s.28 1.84.84 2.448c.58.592 1.27.888 2.09.888.82 0 1.5-.296 2.06-.888.58-.592.87-1.4.87-2.424Zm20.3-6.696V264h-4.11v-1.824c-.41.592-.98 1.072-1.7 1.44-.71.352-1.49.528-2.35.528-1.03 0-1.93-.224-2.72-.672-.78-.464-1.39-1.128-1.82-1.992-.43-.864-.65-1.88-.65-3.048v-7.824h4.08v7.272c0 .896.23 1.592.7 2.088.46.496 1.09.744 1.87.744.8 0 1.43-.248 1.9-.744.46-.496.69-1.192.69-2.088v-7.272h4.11ZM1159.28 264l-2.56-3.72-2.16 3.72h-4.44l4.41-6.84-4.53-6.552h4.6l2.57 3.696 2.16-3.696h4.44l-4.49 6.744 4.61 6.648h-4.61Zm15.38-11.496c.4-.624.95-1.128 1.66-1.512.7-.384 1.53-.576 2.47-.576 1.1 0 2.1.28 3 .84.9.56 1.6 1.36 2.11 2.4.53 1.04.79 2.248.79 3.624s-.26 2.592-.79 3.648c-.51 1.04-1.21 1.848-2.11 2.424-.9.56-1.9.84-3 .84-.93 0-1.75-.192-2.47-.576-.71-.384-1.26-.88-1.66-1.488v8.256h-4.1v-19.776h4.1v1.896Zm5.86 4.776c0-1.024-.29-1.824-.87-2.4-.56-.592-1.25-.888-2.08-.888-.82 0-1.52.296-2.09.888-.56.592-.84 1.4-.84 2.424s.28 1.832.84 2.424c.57.592 1.27.888 2.09.888.81 0 1.51-.296 2.08-.888.58-.608.87-1.424.87-2.448Zm10.43-4.44a5.3 5.3 0 0 1 1.8-1.728 4.576 4.576 0 0 1 2.4-.648v4.344h-1.13c-1.02 0-1.79.224-2.3.672-.51.432-.77 1.2-.77 2.304V264h-4.1v-13.392h4.1v2.232Zm12.26 11.352c-1.31 0-2.5-.28-3.55-.84a6.196 6.196 0 0 1-2.47-2.4c-.6-1.04-.89-2.256-.89-3.648 0-1.376.3-2.584.91-3.624a6.164 6.164 0 0 1 2.5-2.424c1.05-.56 2.24-.84 3.55-.84 1.31 0 2.49.28 3.55.84a6.164 6.164 0 0 1 2.5 2.424c.6 1.04.91 2.248.91 3.624s-.31 2.592-.94 3.648a6.197 6.197 0 0 1-2.52 2.4c-1.05.56-2.24.84-3.55.84Zm0-3.552c.78 0 1.45-.288 1.99-.864.56-.576.84-1.4.84-2.472s-.27-1.896-.81-2.472a2.574 2.574 0 0 0-1.97-.864c-.8 0-1.47.288-1.99.864-.53.56-.8 1.384-.8 2.472 0 1.072.26 1.896.77 2.472.53.576 1.19.864 1.97.864Zm11.22-11.424c-.72 0-1.31-.208-1.77-.624-.45-.432-.67-.96-.67-1.584 0-.64.22-1.168.67-1.584.46-.432 1.05-.648 1.77-.648.71 0 1.28.216 1.73.648.47.416.7.944.7 1.584 0 .624-.23 1.152-.7 1.584-.45.416-1.02.624-1.73.624Zm2.07 16.512c0 1.648-.42 2.832-1.25 3.552-.83.736-1.99 1.104-3.48 1.104h-1.61v-3.48h.99c.44 0 .76-.088.96-.264.19-.176.28-.464.28-.864v-15.168h4.11v15.12Zm15.57-8.64c0 .384-.02.784-.07 1.2h-9.29c.07.832.33 1.472.79 1.92.48.432 1.07.648 1.76.648 1.02 0 1.73-.432 2.13-1.296h4.37c-.22.88-.63 1.672-1.22 2.376a6.013 6.013 0 0 1-2.19 1.656c-.88.4-1.86.6-2.95.6-1.31 0-2.48-.28-3.5-.84a5.902 5.902 0 0 1-2.4-2.4c-.58-1.04-.87-2.256-.87-3.648 0-1.392.28-2.608.84-3.648a6.025 6.025 0 0 1 2.4-2.4c1.03-.56 2.2-.84 3.53-.84 1.3 0 2.45.272 3.46.816 1 .544 1.79 1.32 2.35 2.328.57 1.008.86 2.184.86 3.528Zm-4.2-1.08c0-.704-.24-1.264-.72-1.68-.48-.416-1.08-.624-1.8-.624-.69 0-1.27.2-1.75.6-.46.4-.75.968-.86 1.704h5.13Zm13.83 4.512V264h-2.09c-1.48 0-2.64-.36-3.48-1.08-.83-.736-1.24-1.928-1.24-3.576v-5.328h-1.64v-3.408h1.64v-3.264h4.1v3.264h2.69v3.408h-2.69v5.376c0 .4.1.688.29.864.19.176.51.264.96.264h1.46Zm7.74 3.672c-1.17 0-2.21-.2-3.12-.6-.92-.4-1.64-.944-2.16-1.632a4.341 4.341 0 0 1-.89-2.352h4.05c.05.464.27.84.65 1.128.39.288.86.432 1.42.432.51 0 .9-.096 1.17-.288.29-.208.44-.472.44-.792 0-.384-.2-.664-.6-.84-.4-.192-1.05-.4-1.95-.624-.96-.224-1.76-.456-2.4-.696a4.26 4.26 0 0 1-1.65-1.176c-.47-.544-.7-1.272-.7-2.184 0-.768.21-1.464.62-2.088.44-.64 1.06-1.144 1.88-1.512.83-.368 1.81-.552 2.95-.552 1.68 0 3 .416 3.96 1.248.97.832 1.53 1.936 1.68 3.312H1251a1.655 1.655 0 0 0-.63-1.104c-.33-.272-.78-.408-1.34-.408-.48 0-.85.096-1.11.288a.861.861 0 0 0-.38.744c0 .384.2.672.6.864.42.192 1.06.384 1.92.576.99.256 1.8.512 2.42.768.63.24 1.17.64 1.64 1.2.48.544.72 1.28.74 2.208 0 .784-.22 1.488-.67 2.112-.43.608-1.07 1.088-1.9 1.44-.81.352-1.77.528-2.85.528Zm17.53-4.584c-.66 0-1.27-.16-1.83-.48-.54-.32-.97-.752-1.29-1.296a3.614 3.614 0 0 1-.48-1.824c0-.672.16-1.28.48-1.824.32-.56.75-1 1.29-1.32.56-.32 1.17-.48 1.83-.48.67 0 1.28.16 1.82.48.56.32 1 .76 1.32 1.32.32.544.48 1.152.48 1.824 0 .656-.16 1.264-.48 1.824a3.54 3.54 0 0 1-1.32 1.296c-.54.32-1.15.48-1.82.48Zm16.7-9.168v3.408h5.5v3.168h-5.5v3.696h6.22V264h-10.32v-16.848h10.32v3.288h-6.22Zm3.74-6.672-5.78 2.424v-2.832l5.78-2.784v3.192Zm11.16 16.392 2.91-9.552h4.37L1301.09 264h-5.06l-4.75-13.392h4.39l2.9 9.552Zm21.63-3.072c0 .384-.03.784-.07 1.2h-9.29c.06.832.33 1.472.79 1.92.48.432 1.06.648 1.75.648 1.03 0 1.74-.432 2.14-1.296h4.37c-.23.88-.64 1.672-1.23 2.376-.57.704-1.3 1.256-2.18 1.656-.88.4-1.87.6-2.95.6-1.32 0-2.48-.28-3.51-.84a6.025 6.025 0 0 1-2.4-2.4c-.57-1.04-.86-2.256-.86-3.648 0-1.392.28-2.608.84-3.648a5.902 5.902 0 0 1 2.4-2.4c1.02-.56 2.2-.84 3.53-.84 1.29 0 2.44.272 3.45.816a5.764 5.764 0 0 1 2.35 2.328c.58 1.008.87 2.184.87 3.528Zm-4.2-1.08c0-.704-.24-1.264-.72-1.68-.48-.416-1.08-.624-1.8-.624-.69 0-1.27.2-1.75.6-.47.4-.76.968-.87 1.704h5.14Zm.29-8.832-5.79 2.424v-2.832l5.79-2.784v3.192Zm14.23 3.288c1.57 0 2.82.512 3.75 1.536.94 1.008 1.41 2.4 1.41 4.176V264h-4.08v-7.272c0-.896-.23-1.592-.69-2.088-.47-.496-1.09-.744-1.87-.744-.79 0-1.41.248-1.88.744-.46.496-.69 1.192-.69 2.088V264h-4.11v-13.392h4.11v1.776c.41-.592.97-1.056 1.68-1.392.7-.352 1.49-.528 2.37-.528Zm20.64 6.624c0 .384-.03.784-.07 1.2h-9.29c.06.832.33 1.472.79 1.92.48.432 1.06.648 1.75.648 1.03 0 1.74-.432 2.14-1.296h4.37c-.23.88-.64 1.672-1.23 2.376-.57.704-1.3 1.256-2.18 1.656-.88.4-1.87.6-2.95.6-1.32 0-2.48-.28-3.51-.84a6.025 6.025 0 0 1-2.4-2.4c-.57-1.04-.86-2.256-.86-3.648 0-1.392.28-2.608.84-3.648a5.902 5.902 0 0 1 2.4-2.4c1.02-.56 2.2-.84 3.53-.84 1.29 0 2.44.272 3.45.816a5.764 5.764 0 0 1 2.35 2.328c.58 1.008.87 2.184.87 3.528Zm-4.2-1.08c0-.704-.24-1.264-.72-1.68-.48-.416-1.08-.624-1.8-.624-.69 0-1.27.2-1.75.6-.47.4-.76.968-.87 1.704h5.14Zm23.45-5.544c1.67 0 2.99.504 3.96 1.512.99 1.008 1.49 2.408 1.49 4.2V264h-4.08v-7.272c0-.864-.23-1.528-.7-1.992-.44-.48-1.07-.72-1.87-.72s-1.43.24-1.89.72c-.45.464-.68 1.128-.68 1.992V264h-4.08v-7.272c0-.864-.23-1.528-.69-1.992-.45-.48-1.07-.72-1.87-.72s-1.44.24-1.9.72c-.45.464-.67 1.128-.67 1.992V264h-4.11v-13.392h4.11v1.68c.41-.56.96-1 1.63-1.32.67-.336 1.43-.504 2.28-.504 1.01 0 1.9.216 2.69.648.8.432 1.42 1.048 1.87 1.848.46-.736 1.1-1.336 1.9-1.8.8-.464 1.67-.696 2.61-.696Zm20.94 6.624c0 .384-.02.784-.07 1.2h-9.29c.07.832.33 1.472.8 1.92.48.432 1.06.648 1.75.648 1.02 0 1.73-.432 2.13-1.296h4.37c-.22.88-.63 1.672-1.22 2.376a6.013 6.013 0 0 1-2.19 1.656c-.88.4-1.86.6-2.95.6-1.31 0-2.48-.28-3.5-.84a5.902 5.902 0 0 1-2.4-2.4c-.58-1.04-.87-2.256-.87-3.648 0-1.392.28-2.608.84-3.648a6.025 6.025 0 0 1 2.4-2.4c1.03-.56 2.2-.84 3.53-.84 1.3 0 2.45.272 3.46.816a5.764 5.764 0 0 1 2.35 2.328c.58 1.008.86 2.184.86 3.528Zm-4.2-1.08c0-.704-.24-1.264-.72-1.68-.48-.416-1.08-.624-1.8-.624-.68 0-1.27.2-1.75.6-.46.4-.75.968-.86 1.704h5.13Zm14.53-5.544c1.57 0 2.82.512 3.74 1.536.95 1.008 1.42 2.4 1.42 4.176V264h-4.08v-7.272c0-.896-.23-1.592-.7-2.088-.46-.496-1.08-.744-1.87-.744-.78 0-1.41.248-1.87.744-.46.496-.7 1.192-.7 2.088V264h-4.1v-13.392h4.1v1.776c.42-.592.98-1.056 1.68-1.392.71-.352 1.5-.528 2.38-.528Zm15.48 10.056V264h-2.09c-1.49 0-2.65-.36-3.48-1.08-.83-.736-1.25-1.928-1.25-3.576v-5.328h-1.63v-3.408h1.63v-3.264h4.1v3.264h2.69v3.408h-2.69v5.376c0 .4.1.688.29.864.19.176.51.264.96.264h1.47Zm7.73 3.672c-1.17 0-2.21-.2-3.12-.6-.91-.4-1.63-.944-2.16-1.632a4.421 4.421 0 0 1-.89-2.352h4.06c.05.464.26.84.65 1.128.38.288.85.432 1.41.432.51 0 .91-.096 1.18-.288.29-.208.43-.472.43-.792 0-.384-.2-.664-.6-.84-.4-.192-1.05-.4-1.94-.624-.96-.224-1.76-.456-2.4-.696a4.293 4.293 0 0 1-1.66-1.176c-.46-.544-.7-1.272-.7-2.184 0-.768.21-1.464.63-2.088.43-.64 1.05-1.144 1.87-1.512.83-.368 1.82-.552 2.95-.552 1.68 0 3 .416 3.96 1.248.98.832 1.54 1.936 1.68 3.312h-3.79a1.605 1.605 0 0 0-.62-1.104c-.34-.272-.79-.408-1.35-.408-.48 0-.85.096-1.1.288a.847.847 0 0 0-.39.744c0 .384.2.672.6.864.42.192 1.06.384 1.92.576 1 .256 1.8.512 2.43.768.62.24 1.17.64 1.63 1.2.48.544.73 1.28.74 2.208 0 .784-.22 1.488-.67 2.112-.43.608-1.06 1.088-1.89 1.44-.82.352-1.77.528-2.86.528Z"/>
    <g filter="url(#d)">
      <path fill="#fff" d="M885.415 159.933h8.859V166h-16.787v-28.517h7.928v22.45Zm13.883-22.45h8.009l-4.652 11.407h-5.299l1.942-11.407Zm10.747 17.151c0-2.346.418-4.396 1.254-6.149.863-1.752 2.023-3.101 3.479-4.045 1.483-.943 3.128-1.415 4.935-1.415 1.564 0 2.912.31 4.045.93 1.132.62 2.009 1.456 2.629 2.508v-3.155h7.928V166h-7.928v-3.155c-.62 1.052-1.51 1.888-2.67 2.508-1.132.62-2.467.93-4.004.93-1.807 0-3.452-.472-4.935-1.416-1.456-.943-2.616-2.292-3.479-4.045-.836-1.779-1.254-3.842-1.254-6.188Zm16.342 0c0-1.456-.405-2.603-1.214-3.438-.782-.836-1.752-1.254-2.912-1.254-1.186 0-2.171.418-2.953 1.254-.782.808-1.173 1.955-1.173 3.438 0 1.456.391 2.615 1.173 3.478.782.836 1.767 1.254 2.953 1.254 1.16 0 2.13-.418 2.912-1.254.809-.836 1.214-1.995 1.214-3.478Zm22.113 11.649c-2.049 0-3.883-.337-5.501-1.011-1.591-.701-2.858-1.645-3.802-2.832a7.53 7.53 0 0 1-1.537-4.085h7.685c.108.728.445 1.294 1.011 1.699.567.404 1.268.607 2.104.607.647 0 1.159-.135 1.537-.405.377-.269.566-.62.566-1.052 0-.566-.31-.984-.93-1.253-.62-.27-1.645-.567-3.074-.89-1.618-.324-2.967-.688-4.045-1.092-1.079-.405-2.023-1.066-2.832-1.982-.782-.917-1.173-2.158-1.173-3.722 0-1.348.364-2.562 1.092-3.64.728-1.106 1.794-1.982 3.196-2.629 1.429-.648 3.141-.971 5.137-.971 2.966 0 5.299.728 6.998 2.184 1.699 1.456 2.683 3.371 2.952 5.744h-7.159c-.135-.728-.459-1.281-.971-1.659-.485-.404-1.146-.606-1.982-.606-.647 0-1.146.121-1.497.364-.323.242-.485.579-.485 1.011 0 .539.31.957.93 1.254.621.27 1.618.553 2.994.849 1.645.351 3.006.742 4.085 1.173 1.106.432 2.063 1.133 2.872 2.104.836.944 1.254 2.238 1.254 3.883a5.814 5.814 0 0 1-1.173 3.559c-.755 1.052-1.847 1.888-3.277 2.508-1.402.594-3.06.89-4.975.89Zm22.99 0c-2.049 0-3.883-.337-5.501-1.011-1.591-.701-2.859-1.645-3.802-2.832a7.522 7.522 0 0 1-1.537-4.085h7.685c.108.728.445 1.294 1.011 1.699.566.404 1.268.607 2.104.607.647 0 1.159-.135 1.537-.405.377-.269.566-.62.566-1.052 0-.566-.31-.984-.93-1.253-.621-.27-1.645-.567-3.075-.89-1.618-.324-2.966-.688-4.045-1.092-1.078-.405-2.022-1.066-2.831-1.982-.782-.917-1.173-2.158-1.173-3.722 0-1.348.364-2.562 1.092-3.64.728-1.106 1.793-1.982 3.196-2.629 1.429-.648 3.141-.971 5.137-.971 2.966 0 5.299.728 6.997 2.184 1.699 1.456 2.684 3.371 2.953 5.744h-7.159c-.135-.728-.459-1.281-.971-1.659-.485-.404-1.146-.606-1.982-.606-.647 0-1.146.121-1.497.364-.323.242-.485.579-.485 1.011 0 .539.31.957.93 1.254.62.27 1.618.553 2.993.849 1.645.351 3.007.742 4.086 1.173 1.105.432 2.063 1.133 2.872 2.104.836.944 1.254 2.238 1.254 3.883a5.814 5.814 0 0 1-1.173 3.559c-.755 1.052-1.848 1.888-3.277 2.508-1.402.594-3.06.89-4.975.89Zm23.88 0c-2.265 0-4.301-.472-6.108-1.416a10.462 10.462 0 0 1-4.207-4.045c-1.025-1.752-1.537-3.815-1.537-6.188 0-2.346.512-4.396 1.537-6.149 1.052-1.752 2.467-3.101 4.247-4.045 1.807-.943 3.843-1.415 6.108-1.415 2.265 0 4.288.472 6.07 1.415 1.8.944 3.22 2.293 4.24 4.045 1.06 1.753 1.58 3.803 1.58 6.149s-.52 4.409-1.58 6.188a10.39 10.39 0 0 1-4.24 4.045c-1.809.944-3.845 1.416-6.11 1.416Zm0-6.876c1.105 0 2.022-.405 2.75-1.214.755-.836 1.133-2.022 1.133-3.559 0-1.537-.378-2.71-1.133-3.519-.728-.809-1.631-1.214-2.71-1.214s-1.982.405-2.71 1.214c-.728.809-1.092 1.982-1.092 3.519 0 1.564.35 2.75 1.052 3.559.701.809 1.604 1.214 2.71 1.214Zm13.86-4.773c0-2.346.49-4.396 1.46-6.149.97-1.752 2.32-3.101 4.04-4.045 1.76-.943 3.75-1.415 5.99-1.415 2.89 0 5.31.795 7.28 2.386 1.97 1.564 3.24 3.762 3.8 6.593h-8.41c-.48-1.483-1.43-2.224-2.83-2.224-1 0-1.79.418-2.39 1.254-.56.809-.85 2.009-.85 3.6 0 1.591.29 2.804.85 3.64.6.836 1.39 1.254 2.39 1.254 1.43 0 2.37-.741 2.83-2.225h8.41c-.56 2.805-1.83 5.003-3.8 6.594-1.97 1.591-4.39 2.386-7.28 2.386-2.24 0-4.23-.472-5.99-1.416-1.72-.943-3.07-2.292-4.04-4.045-.97-1.752-1.46-3.815-1.46-6.188Zm29.87-13.43c-1.4 0-2.53-.377-3.4-1.132-.83-.782-1.25-1.753-1.25-2.912 0-1.187.42-2.171 1.25-2.953.87-.782 2-1.173 3.4-1.173 1.38 0 2.48.391 3.32 1.173.86.782 1.29 1.766 1.29 2.953 0 1.159-.43 2.13-1.29 2.912-.84.755-1.94 1.132-3.32 1.132Zm3.93 2.104V166h-7.93v-22.692h7.93Zm3.22 11.326c0-2.346.41-4.396 1.25-6.149.86-1.752 2.02-3.101 3.48-4.045 1.48-.943 3.13-1.415 4.93-1.415 1.57 0 2.92.31 4.05.93 1.13.62 2.01 1.456 2.63 2.508v-3.155h7.93V166h-7.93v-3.155c-.62 1.052-1.51 1.888-2.67 2.508-1.13.62-2.47.93-4.01.93-1.8 0-3.45-.472-4.93-1.416-1.46-.943-2.62-2.292-3.48-4.045-.84-1.779-1.25-3.842-1.25-6.188Zm16.34 0c0-1.456-.41-2.603-1.22-3.438-.78-.836-1.75-1.254-2.91-1.254-1.18 0-2.17.418-2.95 1.254-.78.808-1.17 1.955-1.17 3.438 0 1.456.39 2.615 1.17 3.478.78.836 1.77 1.254 2.95 1.254 1.16 0 2.13-.418 2.91-1.254.81-.836 1.22-1.995 1.22-3.478Zm25.83 4.611V166h-3.44c-5.79 0-8.69-2.872-8.69-8.616v-7.483h-2.79v-6.593h2.79v-5.501h7.97v5.501h4.12v6.593h-4.12v7.605c0 .62.13 1.065.4 1.334.3.27.78.405 1.46.405h2.3Zm7.64-18.041c-1.4 0-2.53-.377-3.39-1.132-.84-.782-1.26-1.753-1.26-2.912 0-1.187.42-2.171 1.26-2.953.86-.782 1.99-1.173 3.39-1.173 1.38 0 2.48.391 3.32 1.173.86.782 1.29 1.766 1.29 2.953 0 1.159-.43 2.13-1.29 2.912-.84.755-1.94 1.132-3.32 1.132Zm3.93 2.104V166h-7.93v-22.692h7.93Zm15.07 22.975c-2.27 0-4.3-.472-6.11-1.416-1.78-.943-3.18-2.292-4.21-4.045-1.02-1.752-1.53-3.815-1.53-6.188 0-2.346.51-4.396 1.53-6.149 1.06-1.752 2.47-3.101 4.25-4.045 1.81-.943 3.84-1.415 6.11-1.415 2.26 0 4.29.472 6.07 1.415 1.8.944 3.22 2.293 4.24 4.045 1.06 1.753 1.58 3.803 1.58 6.149s-.52 4.409-1.58 6.188a10.39 10.39 0 0 1-4.24 4.045c-1.81.944-3.85 1.416-6.11 1.416Zm0-6.876c1.1 0 2.02-.405 2.75-1.214.75-.836 1.13-2.022 1.13-3.559 0-1.537-.38-2.71-1.13-3.519-.73-.809-1.63-1.214-2.71-1.214s-1.98.405-2.71 1.214c-.73.809-1.09 1.982-1.09 3.519 0 1.564.35 2.75 1.05 3.559.7.809 1.6 1.214 2.71 1.214Zm30-16.301c2.62 0 4.69.876 6.23 2.629 1.54 1.726 2.31 4.072 2.31 7.038V166h-7.93v-12.175c0-1.295-.34-2.306-1.01-3.034-.68-.755-1.58-1.133-2.71-1.133-1.19 0-2.12.378-2.79 1.133-.68.728-1.01 1.739-1.01 3.034V166h-7.93v-22.692h7.93v3.236c.7-1.025 1.64-1.847 2.83-2.468 1.18-.647 2.54-.97 4.08-.97Zm24.63-1.902c-1.4 0-2.53-.377-3.39-1.132-.84-.782-1.26-1.753-1.26-2.912 0-1.187.42-2.171 1.26-2.953.86-.782 1.99-1.173 3.39-1.173 1.38 0 2.48.391 3.32 1.173.86.782 1.3 1.766 1.3 2.953 0 1.159-.44 2.13-1.3 2.912-.84.755-1.94 1.132-3.32 1.132Zm3.93 2.104V166h-7.93v-22.692h7.93Zm19.36-.202c2.61 0 4.69.876 6.23 2.629 1.53 1.726 2.3 4.072 2.3 7.038V166h-7.93v-12.175c0-1.295-.33-2.306-1.01-3.034-.67-.755-1.57-1.133-2.71-1.133-1.18 0-2.11.378-2.79 1.133-.67.728-1.01 1.739-1.01 3.034V166h-7.93v-22.692h7.93v3.236c.7-1.025 1.65-1.847 2.83-2.468 1.19-.647 2.55-.97 4.09-.97Zm25.14 6.795h-3.56V166h-7.97v-16.099h-2.47v-6.593h2.47v-.202c0-2.913.85-5.137 2.55-6.675 1.72-1.564 4.19-2.346 7.4-2.346.65 0 1.15.014 1.5.041v6.755a7.576 7.576 0 0 0-.89-.041c-.87 0-1.5.203-1.9.607-.41.378-.64.998-.69 1.861h3.56v6.593Zm13.39 16.382c-2.27 0-4.3-.472-6.11-1.416-1.78-.943-3.18-2.292-4.21-4.045-1.02-1.752-1.53-3.815-1.53-6.188 0-2.346.51-4.396 1.53-6.149 1.06-1.752 2.47-3.101 4.25-4.045 1.81-.943 3.84-1.415 6.11-1.415 2.26 0 4.29.472 6.07 1.415 1.8.944 3.22 2.293 4.24 4.045 1.06 1.753 1.58 3.803 1.58 6.149s-.52 4.409-1.58 6.188a10.39 10.39 0 0 1-4.24 4.045c-1.81.944-3.85 1.416-6.11 1.416Zm0-6.876c1.1 0 2.02-.405 2.75-1.214.75-.836 1.13-2.022 1.13-3.559 0-1.537-.38-2.71-1.13-3.519-.73-.809-1.63-1.214-2.71-1.214s-1.98.405-2.71 1.214c-.73.809-1.09 1.982-1.09 3.519 0 1.564.35 2.75 1.05 3.559.7.809 1.6 1.214 2.71 1.214Zm23.09-12.095c.89-1.294 1.96-2.319 3.23-3.074a7.859 7.859 0 0 1 4.09-1.132v8.454h-2.23c-1.72 0-3 .337-3.84 1.011-.84.674-1.25 1.847-1.25 3.519V166h-7.93v-22.692h7.93v4.004Zm39.81-4.206c2.86 0 5.09.863 6.71 2.588 1.65 1.726 2.47 4.086 2.47 7.079V166h-7.93v-12.175c0-1.214-.33-2.158-1.01-2.832-.67-.674-1.59-1.011-2.75-1.011s-2.08.337-2.75 1.011c-.67.674-1.01 1.618-1.01 2.832V166h-7.93v-12.175c0-1.214-.34-2.158-1.01-2.832-.65-.674-1.55-1.011-2.71-1.011-1.19 0-2.12.337-2.79 1.011-.68.674-1.01 1.618-1.01 2.832V166h-7.93v-22.692h7.93v2.993c.7-.971 1.6-1.739 2.71-2.305 1.13-.594 2.42-.89 3.88-.89 1.67 0 3.16.364 4.45 1.092a7.904 7.904 0 0 1 3.11 3.074 9.23 9.23 0 0 1 3.2-2.993c1.32-.782 2.78-1.173 4.37-1.173Zm12.23 11.528c0-2.346.42-4.396 1.25-6.149.87-1.752 2.03-3.101 3.48-4.045 1.49-.943 3.13-1.415 4.94-1.415 1.56 0 2.91.31 4.04.93 1.13.62 2.01 1.456 2.63 2.508v-3.155h7.93V166h-7.93v-3.155c-.62 1.052-1.51 1.888-2.67 2.508-1.13.62-2.47.93-4 .93-1.81 0-3.45-.472-4.94-1.416-1.45-.943-2.61-2.292-3.48-4.045-.83-1.779-1.25-3.842-1.25-6.188Zm16.34 0c0-1.456-.4-2.603-1.21-3.438-.78-.836-1.76-1.254-2.91-1.254-1.19 0-2.18.418-2.96 1.254-.78.808-1.17 1.955-1.17 3.438 0 1.456.39 2.615 1.17 3.478.78.836 1.77 1.254 2.96 1.254 1.15 0 2.13-.418 2.91-1.254.81-.836 1.21-1.995 1.21-3.478Zm25.84 4.611V166h-3.44c-5.8 0-8.7-2.872-8.7-8.616v-7.483h-2.79v-6.593h2.79v-5.501h7.97v5.501h4.13v6.593h-4.13v7.605c0 .62.13 1.065.4 1.334.3.27.79.405 1.46.405h2.31Zm7.64-18.041c-1.41 0-2.54-.377-3.4-1.132-.84-.782-1.26-1.753-1.26-2.912 0-1.187.42-2.171 1.26-2.953.86-.782 1.99-1.173 3.4-1.173 1.37 0 2.48.391 3.31 1.173.87.782 1.3 1.766 1.3 2.953 0 1.159-.43 2.13-1.3 2.912-.83.755-1.94 1.132-3.31 1.132Zm3.92 2.104V166h-7.93v-22.692h7.93Zm3.22 11.447c0-2.238.46-4.234 1.38-5.986.94-1.78 2.18-3.169 3.72-4.167a9.27 9.27 0 0 1 5.09-1.496c2.65 0 4.7.836 6.15 2.507v-2.305h7.93v33.532h-7.93v-13.51c-1.67 1.969-3.73 2.953-6.19 2.953a9.46 9.46 0 0 1-5.09-1.456c-1.54-.971-2.77-2.333-3.68-4.085-.92-1.753-1.38-3.749-1.38-5.987Zm16.34-.121c0-1.51-.43-2.656-1.29-3.438-.84-.809-1.78-1.214-2.83-1.214-1.06 0-2.01.418-2.88 1.254-.83.809-1.25 1.982-1.25 3.519 0 1.537.42 2.697 1.25 3.479.84.755 1.8 1.132 2.88 1.132 1.05 0 1.99-.404 2.83-1.213.86-.809 1.29-1.982 1.29-3.519Zm35.67-11.326V166h-7.97v-3.236c-.68 1.025-1.61 1.861-2.79 2.508-1.19.62-2.55.93-4.09.93-2.64 0-4.73-.863-6.27-2.589-1.51-1.752-2.26-4.125-2.26-7.119v-13.186h7.88v12.175c0 1.295.34 2.319 1.01 3.074.71.728 1.62 1.092 2.76 1.092 1.16 0 2.07-.364 2.75-1.092.67-.755 1.01-1.779 1.01-3.074v-12.175h7.97Zm26.19 11.083c0 .62-.04 1.24-.12 1.861h-15.01c.08 1.24.42 2.17 1.01 2.791.62.593 1.4.89 2.35.89 1.32 0 2.26-.594 2.83-1.78h8.45a9.858 9.858 0 0 1-2.06 4.207c-1 1.213-2.26 2.17-3.8 2.871-1.54.702-3.24 1.052-5.1 1.052-2.24 0-4.23-.472-5.98-1.416-1.73-.943-3.09-2.292-4.09-4.045-.97-1.752-1.46-3.815-1.46-6.188 0-2.373.49-4.423 1.46-6.149.97-1.752 2.32-3.101 4.04-4.045 1.76-.943 3.77-1.415 6.03-1.415 2.24 0 4.22.458 5.95 1.375a9.89 9.89 0 0 1 4.04 3.964c.97 1.699 1.46 3.708 1.46 6.027Zm-8.09-1.982c0-.971-.32-1.726-.97-2.265-.65-.566-1.46-.85-2.43-.85-.97 0-1.77.27-2.39.809-.62.513-1.02 1.281-1.21 2.306h7Zm-404.8 63.225c0-2.346.41-4.396 1.25-6.149.86-1.752 2.04-3.101 3.52-4.045 1.48-.943 3.13-1.415 4.93-1.415 1.46 0 2.75.31 3.89.93 1.16.593 2.06 1.416 2.71 2.467v-10.355h7.96V227h-7.96v-3.155c-.62 1.052-1.5 1.888-2.63 2.508-1.14.62-2.47.93-4.01.93-1.8 0-3.45-.472-4.93-1.416-1.46-.943-2.62-2.292-3.48-4.045-.84-1.779-1.25-3.842-1.25-6.188Zm16.34 0c0-1.456-.41-2.603-1.22-3.438-.78-.836-1.75-1.254-2.91-1.254-1.19 0-2.17.418-2.95 1.254-.78.808-1.17 1.955-1.17 3.438 0 1.456.39 2.615 1.17 3.478.78.836 1.76 1.254 2.95 1.254 1.16 0 2.13-.418 2.91-1.254.81-.836 1.22-1.995 1.22-3.478Zm14.38-17.151h8.01l-4.65 11.407h-5.3l1.94-11.407Zm19.97 6.351v4.651h9.11v6.027h-9.11v5.137h10.32V227h-18.24v-28.517h18.24v6.351h-10.32Zm33.57-6.351v6.31h-11.41v5.016h8.42v6.027h-8.42V227h-7.92v-28.517h19.33ZM1130.95 227l-5.66-10.517h-.85V227h-7.93v-28.517h12.5c2.29 0 4.23.405 5.82 1.214 1.59.782 2.79 1.874 3.6 3.276.81 1.375 1.22 2.926 1.22 4.652 0 1.941-.54 3.654-1.62 5.137-1.05 1.456-2.6 2.494-4.65 3.114l6.43 11.124h-8.86Zm-6.51-15.937h3.92c1.08 0 1.89-.256 2.43-.769.54-.512.81-1.254.81-2.224 0-.917-.29-1.632-.85-2.144-.54-.539-1.34-.809-2.39-.809h-3.92v5.946Zm26.74-6.229v4.651h9.1v6.027h-9.1v5.137h10.32V227h-18.25v-28.517h18.25v6.351h-10.32Zm22.16-6.351V227h-7.93v-28.517h7.93Zm34.79 9.506c0 1.726-.41 3.303-1.22 4.732-.78 1.403-1.98 2.535-3.6 3.398-1.59.836-3.54 1.254-5.86 1.254h-3.92V227h-7.93v-28.517h11.85c2.29 0 4.23.405 5.82 1.214 1.62.809 2.84 1.928 3.64 3.357.81 1.429 1.22 3.074 1.22 4.935Zm-11.45 3.074c2.24 0 3.36-1.025 3.36-3.074 0-2.077-1.12-3.115-3.36-3.115h-3.15v6.189h3.15Zm13.34 4.571c0-2.346.42-4.396 1.25-6.149.87-1.752 2.03-3.101 3.48-4.045 1.48-.943 3.13-1.415 4.94-1.415 1.56 0 2.91.31 4.04.93 1.13.62 2.01 1.456 2.63 2.508v-3.155h7.93V227h-7.93v-3.155c-.62 1.052-1.51 1.888-2.67 2.508-1.13.62-2.47.93-4 .93-1.81 0-3.46-.472-4.94-1.416-1.45-.943-2.61-2.292-3.48-4.045-.83-1.779-1.25-3.842-1.25-6.188Zm16.34 0c0-1.456-.4-2.603-1.21-3.438-.78-.836-1.76-1.254-2.92-1.254-1.18 0-2.17.418-2.95 1.254-.78.808-1.17 1.955-1.17 3.438 0 1.456.39 2.615 1.17 3.478.78.836 1.77 1.254 2.95 1.254 1.16 0 2.14-.418 2.92-1.254.81-.836 1.21-1.995 1.21-3.478Zm20.37-7.322c.89-1.294 1.97-2.319 3.24-3.074a7.859 7.859 0 0 1 4.09-1.132v8.454h-2.23c-1.72 0-3.01.337-3.84 1.011-.84.674-1.26 1.847-1.26 3.519V227h-7.92v-22.692h7.92v4.004Zm14.17-6.108c-1.4 0-2.53-.377-3.4-1.132-.83-.782-1.25-1.753-1.25-2.912 0-1.187.42-2.171 1.25-2.953.87-.782 2-1.173 3.4-1.173 1.38 0 2.48.391 3.32 1.173.86.782 1.29 1.766 1.29 2.953 0 1.159-.43 2.13-1.29 2.912-.84.755-1.94 1.132-3.32 1.132Zm3.93 2.104V227h-7.93v-22.692h7.93Zm14.18 22.975c-2.05 0-3.88-.337-5.5-1.011-1.59-.701-2.86-1.645-3.8-2.832a7.526 7.526 0 0 1-1.54-4.085h7.68c.11.728.45 1.294 1.01 1.699.57.404 1.27.607 2.11.607.65 0 1.16-.135 1.54-.405.37-.269.56-.62.56-1.052 0-.566-.31-.984-.93-1.253-.62-.27-1.64-.567-3.07-.89-1.62-.324-2.97-.688-4.05-1.092-1.08-.405-2.02-1.066-2.83-1.982-.78-.917-1.17-2.158-1.17-3.722 0-1.348.36-2.562 1.09-3.64.73-1.106 1.79-1.982 3.2-2.629 1.42-.648 3.14-.971 5.13-.971 2.97 0 5.3.728 7 2.184 1.7 1.456 2.68 3.371 2.95 5.744h-7.16c-.13-.728-.46-1.281-.97-1.659-.48-.404-1.14-.606-1.98-.606-.65 0-1.15.121-1.5.364-.32.242-.48.579-.48 1.011 0 .539.31.957.93 1.254.62.27 1.62.553 2.99.849 1.65.351 3.01.742 4.09 1.173 1.1.432 2.06 1.133 2.87 2.104.84.944 1.25 2.238 1.25 3.883 0 1.321-.39 2.508-1.17 3.559-.75 1.052-1.85 1.888-3.28 2.508-1.4.594-3.06.89-4.97.89Z"/>
    </g>
    <path fill="#DBDFE4" d="M288.615 279.55v-12.704h7.954v1.711h-5.915v3.695h5.696v1.711h-5.696v3.876h5.915v1.711h-7.954Zm10.913 0v-12.704h8.172v1.711h-6.133v3.695h5.569v1.711h-5.569v5.587h-2.039Zm12.897 0h-2.02v-12.704h4.75c1.213 0 2.135.34 2.766 1.02.643.679.965 1.613.965 2.802 0 .971-.237 1.772-.71 2.403s-1.153 1.019-2.038 1.165l2.93 5.314h-2.257l-2.694-5.132h-1.692v5.132Zm2.439-6.77c1.262 0 1.892-.577 1.892-1.729v-.783c0-1.153-.63-1.729-1.892-1.729h-2.439v4.241h2.439Zm6.49 6.77v-12.704h7.953v1.711h-5.915v3.695h5.697v1.711h-5.697v3.876h5.915v1.711h-7.953Zm10.804 0v-1.547h2.985v-9.61h-2.985v-1.547h8.008v1.547h-2.985v9.61h2.985v1.547h-8.008Zm21.898 0v-12.704h4.75c1.214 0 2.136.34 2.767 1.02.643.679.964 1.613.964 2.802s-.321 2.124-.964 2.803c-.631.68-1.553 1.019-2.767 1.019h-2.711v5.06h-2.039Zm2.039-6.752h2.402c1.262 0 1.893-.583 1.893-1.747v-.783c0-1.153-.631-1.729-1.893-1.729h-2.402v4.259Zm15.754 6.752-.965-3.385h-4.04l-.965 3.385h-2.075l3.713-12.704h2.785l3.712 12.704h-2.165Zm-2.912-10.647h-.146l-1.565 5.569h3.276l-1.565-5.569Zm8.965 10.647h-2.02v-12.704h4.75c1.213 0 2.136.34 2.766 1.02.644.679.965 1.613.965 2.802 0 .971-.237 1.772-.71 2.403s-1.152 1.019-2.038 1.165l2.93 5.314h-2.257l-2.693-5.132h-1.693v5.132Zm2.439-6.77c1.262 0 1.893-.577 1.893-1.729v-.783c0-1.153-.631-1.729-1.893-1.729h-2.439v4.241h2.439Zm6.381 6.77v-1.547h2.985v-9.61h-2.985v-1.547h8.008v1.547h-2.985v9.61h2.985v1.547h-8.008Zm14.808.218c-1.105 0-2.033-.194-2.785-.582a5.373 5.373 0 0 1-1.856-1.547l1.31-1.256c.486.583 1.001 1.013 1.547 1.292.546.267 1.165.401 1.856.401.801 0 1.414-.182 1.839-.546.436-.364.655-.886.655-1.565 0-.546-.158-.965-.473-1.256-.316-.304-.856-.522-1.62-.655l-1.383-.219c-.607-.097-1.116-.255-1.529-.473a3.54 3.54 0 0 1-1.001-.801 3.19 3.19 0 0 1-.564-1.037 4.453 4.453 0 0 1-.164-1.22c0-1.201.388-2.111 1.165-2.73.776-.631 1.844-.946 3.203-.946 1.007 0 1.862.164 2.566.491a4.27 4.27 0 0 1 1.729 1.347l-1.274 1.274a4.084 4.084 0 0 0-1.256-1.019c-.473-.267-1.061-.4-1.765-.4-.752 0-1.329.163-1.729.491-.388.315-.583.783-.583 1.401 0 .522.152.934.455 1.238.316.291.868.504 1.657.637l1.346.237c1.141.206 1.972.624 2.494 1.255.522.619.782 1.378.782 2.275a4.06 4.06 0 0 1-.309 1.602 3.118 3.118 0 0 1-.892 1.238c-.388.339-.873.606-1.456.8-.57.182-1.225.273-1.965.273Zm18.003-.218v-12.704h4.751c1.213 0 2.135.34 2.766 1.02.643.679.965 1.613.965 2.802s-.322 2.124-.965 2.803c-.631.68-1.553 1.019-2.766 1.019h-2.712v5.06h-2.039Zm2.039-6.752h2.402c1.262 0 1.893-.583 1.893-1.747v-.783c0-1.153-.631-1.729-1.893-1.729h-2.402v4.259Zm15.754 6.752-.965-3.385h-4.04l-.965 3.385h-2.075l3.713-12.704h2.785l3.713 12.704h-2.166Zm-2.912-10.647h-.146l-1.565 5.569h3.276l-1.565-5.569Zm8.675.874h-.164v9.773h-1.784v-12.704h2.621l3.731 9.774h.164v-9.774h1.783v12.704h-2.62l-3.731-9.773Zm14.133-1.22v10.993h-2.038v-10.993h-3.986v-1.711h10.01v1.711h-3.986Zm12.005 5.406h-4.222v5.587h-2.038v-12.704h2.038v5.406h4.222v-5.406h2.039v12.704h-2.039v-5.587Zm4.908 5.587v-12.704h7.953v1.711h-5.915v3.695h5.697v1.711h-5.697v3.876h5.915v1.711h-7.953Zm4.167-13.632-1.219-.582 1.656-3.276 1.711.837-2.148 3.021Zm10.64 13.85c-.801 0-1.498-.145-2.093-.436a4.016 4.016 0 0 1-1.456-1.293c-.376-.558-.655-1.243-.837-2.056-.182-.813-.273-1.742-.273-2.785 0-1.031.091-1.953.273-2.766.182-.825.461-1.517.837-2.075a3.857 3.857 0 0 1 1.456-1.274c.595-.304 1.292-.455 2.093-.455.801 0 1.492.151 2.075.455.594.291 1.08.716 1.456 1.274.388.558.673 1.25.855 2.075.182.813.273 1.735.273 2.766 0 1.043-.091 1.972-.273 2.785-.182.813-.467 1.498-.855 2.056a3.831 3.831 0 0 1-1.456 1.293c-.583.291-1.274.436-2.075.436Zm0-1.692c.91 0 1.553-.34 1.929-1.019.376-.692.564-1.626.564-2.803v-2.13c0-1.164-.188-2.087-.564-2.766-.376-.692-1.019-1.037-1.929-1.037-.91 0-1.553.345-1.929 1.037-.376.679-.564 1.602-.564 2.766v2.148c0 1.165.188 2.093.564 2.785.376.679 1.019 1.019 1.929 1.019Zm8.711-8.299h-.164v9.773h-1.784v-12.704h2.621l3.731 9.774h.164v-9.774h1.784v12.704h-2.621l-3.731-9.773ZM508.02 275v-1.984h5.496V275h-5.496Zm16.609 4.55-.965-3.385h-4.04l-.965 3.385h-2.075l3.713-12.704h2.785l3.713 12.704h-2.166Zm-2.912-10.647h-.146l-1.565 5.569h3.276l-1.565-5.569Zm10.767 10.865c-1.104 0-2.032-.194-2.784-.582a5.376 5.376 0 0 1-1.857-1.547l1.311-1.256c.485.583 1.001 1.013 1.547 1.292.546.267 1.164.401 1.856.401.801 0 1.414-.182 1.838-.546.437-.364.655-.886.655-1.565 0-.546-.157-.965-.473-1.256-.315-.304-.855-.522-1.62-.655l-1.383-.219c-.606-.097-1.116-.255-1.529-.473a3.555 3.555 0 0 1-1.001-.801 3.228 3.228 0 0 1-.564-1.037 4.492 4.492 0 0 1-.164-1.22c0-1.201.389-2.111 1.165-2.73.777-.631 1.844-.946 3.203-.946 1.007 0 1.863.164 2.567.491.715.316 1.292.765 1.729 1.347l-1.274 1.274a4.095 4.095 0 0 0-1.256-1.019c-.473-.267-1.062-.4-1.766-.4-.752 0-1.328.163-1.729.491-.388.315-.582.783-.582 1.401 0 .522.152.934.455 1.238.315.291.868.504 1.656.637l1.347.237c1.141.206 1.972.624 2.493 1.255.522.619.783 1.378.783 2.275a4.06 4.06 0 0 1-.309 1.602 3.138 3.138 0 0 1-.892 1.238c-.388.339-.874.606-1.456.8-.57.182-1.225.273-1.966.273Zm10.913 0c-1.104 0-2.032-.194-2.784-.582a5.367 5.367 0 0 1-1.857-1.547l1.311-1.256c.485.583 1.001 1.013 1.547 1.292.546.267 1.165.401 1.856.401.801 0 1.413-.182 1.838-.546.437-.364.656-.886.656-1.565 0-.546-.158-.965-.474-1.256-.315-.304-.855-.522-1.619-.655l-1.384-.219c-.607-.097-1.116-.255-1.528-.473a3.526 3.526 0 0 1-1.001-.801 3.212 3.212 0 0 1-.565-1.037 4.492 4.492 0 0 1-.163-1.22c0-1.201.388-2.111 1.164-2.73.777-.631 1.844-.946 3.204-.946 1.006 0 1.862.164 2.566.491.715.316 1.292.765 1.729 1.347l-1.274 1.274a4.095 4.095 0 0 0-1.256-1.019c-.473-.267-1.062-.4-1.765-.4-.753 0-1.329.163-1.729.491-.389.315-.583.783-.583 1.401 0 .522.152.934.455 1.238.316.291.867.504 1.656.637l1.347.237c1.14.206 1.972.624 2.494 1.255.521.619.782 1.378.782 2.275a4.06 4.06 0 0 1-.309 1.602 3.138 3.138 0 0 1-.892 1.238c-.388.339-.874.606-1.456.8-.571.182-1.225.273-1.966.273Zm13.971-.218-.965-3.385h-4.04l-.965 3.385h-2.075l3.713-12.704h2.785l3.712 12.704h-2.165Zm-2.912-10.647h-.146l-1.565 5.569h3.276l-1.565-5.569Zm10.767 10.865c-1.104 0-2.032-.194-2.785-.582a5.373 5.373 0 0 1-1.856-1.547l1.31-1.256c.486.583 1.001 1.013 1.547 1.292.546.267 1.165.401 1.857.401.801 0 1.413-.182 1.838-.546.437-.364.655-.886.655-1.565 0-.546-.158-.965-.473-1.256-.315-.304-.855-.522-1.62-.655l-1.383-.219c-.607-.097-1.116-.255-1.529-.473a3.555 3.555 0 0 1-1.001-.801 3.19 3.19 0 0 1-.564-1.037 4.492 4.492 0 0 1-.164-1.22c0-1.201.389-2.111 1.165-2.73.777-.631 1.844-.946 3.203-.946 1.007 0 1.863.164 2.566.491.717.316 1.293.765 1.729 1.347l-1.274 1.274a4.08 4.08 0 0 0-1.255-1.019c-.474-.267-1.062-.4-1.766-.4-.752 0-1.328.163-1.729.491-.388.315-.582.783-.582 1.401 0 .522.152.934.455 1.238.316.291.867.504 1.656.637l1.347.237c1.14.206 1.972.624 2.493 1.255.522.619.783 1.378.783 2.275 0 .583-.103 1.116-.31 1.602a3.126 3.126 0 0 1-.891 1.238c-.389.339-.874.606-1.456.8-.571.182-1.226.273-1.966.273Zm19.769-12.922v7.808c0 .522.012.995.037 1.42.036.424.127.788.273 1.092.146.291.364.515.655.673.291.158.692.237 1.201.237.51 0 .91-.079 1.201-.237.292-.158.51-.382.656-.673.145-.304.23-.668.255-1.092.036-.425.054-.898.054-1.42v-7.808h2.038v7.444c0 .91-.054 1.711-.163 2.403-.098.679-.298 1.249-.601 1.71-.303.449-.734.789-1.292 1.02-.546.23-1.262.345-2.148.345-.886 0-1.608-.115-2.166-.345-.546-.231-.97-.571-1.273-1.02-.304-.461-.51-1.031-.619-1.71a17.344 17.344 0 0 1-.146-2.403v-7.444h2.038Zm10.877 2.931h-.164v9.773h-1.784v-12.704h2.621l3.731 9.774h.164v-9.774h1.784v12.704H599.6l-3.731-9.773Zm9.111 9.773v-1.547h2.985v-9.61h-2.985v-1.547h8.008v1.547h-2.985v9.61h2.985v1.547h-8.008Zm13.496 0-3.584-12.704h2.201l1.677 6.407 1.109 4.313h.109l1.109-4.313 1.694-6.407h2.111l-3.585 12.704h-2.841Zm8.438 0v-12.704h7.956v1.711h-5.915v3.695h5.694v1.711h-5.694v3.876h5.915v1.711h-7.956Zm12.897 0h-2.019v-12.704h4.749c1.215 0 2.135.34 2.765 1.02.644.679.966 1.613.966 2.802 0 .971-.238 1.772-.71 2.403-.473.631-1.152 1.019-2.037 1.165l2.929 5.314h-2.257l-2.692-5.132h-1.694v5.132Zm2.44-6.77c1.26 0 1.894-.577 1.894-1.729v-.783c0-1.153-.634-1.729-1.894-1.729h-2.44v4.241h2.44Zm10.276 6.988c-1.106 0-2.033-.194-2.786-.582a5.351 5.351 0 0 1-1.855-1.547l1.309-1.256c.486.583 1.001 1.013 1.547 1.292.546.267 1.166.401 1.859.401.798 0 1.41-.182 1.837-.546.438-.364.655-.886.655-1.565 0-.546-.158-.965-.473-1.256-.315-.304-.858-.522-1.621-.655l-1.382-.219c-.609-.097-1.117-.255-1.53-.473a3.535 3.535 0 0 1-1-.801 3.135 3.135 0 0 1-.564-1.037 4.531 4.531 0 0 1-.164-1.22c0-1.201.388-2.111 1.165-2.73.777-.631 1.845-.946 3.203-.946 1.008 0 1.861.164 2.565.491a4.263 4.263 0 0 1 1.729 1.347l-1.274 1.274a4.053 4.053 0 0 0-1.257-1.019c-.472-.267-1.06-.4-1.763-.4-.753 0-1.331.163-1.73.491-.388.315-.581.783-.581 1.401 0 .522.151.934.455 1.238.315.291.865.504 1.656.637l1.347.237c1.138.206 1.971.624 2.492 1.255.522.619.785 1.378.785 2.275 0 .583-.105 1.116-.312 1.602-.192.485-.49.898-.893 1.238-.388.339-.871.606-1.456.8-.57.182-1.225.273-1.963.273Zm7.017-.218v-1.547h2.986v-9.61h-2.986v-1.547h8.008v1.547h-2.985v9.61h2.985v1.547h-8.008Zm15.936-10.993v10.993h-2.037v-10.993h-3.986v-1.711h10.01v1.711h-3.987Zm5.999 10.993v-12.704h7.952v1.711h-5.915v3.695h5.698v1.711h-5.698v3.876h5.915v1.711h-7.952Zm4.169-13.632-1.222-.582 1.659-3.276 1.708.837-2.145 3.021Zm-227.764-23.576v-28.046h9.056a10.859 10.859 0 0 1 3.78.571 6.86 6.86 0 0 1 2.638 1.715 7.768 7.768 0 0 1 1.538 2.857c.357 1.273.52 2.592.484 3.913a13.884 13.884 0 0 1-.527 3.956 9.145 9.145 0 0 1-1.715 3.077 7.167 7.167 0 0 1-2.813 1.935c-1.284.457-2.639.68-4.001.659h-4.967v9.363h-3.473Zm3.473-12.44h4.967a7.428 7.428 0 0 0 2.814-.44 3.822 3.822 0 0 0 1.714-1.362 5.188 5.188 0 0 0 .835-2.023c.097-.906.097-1.819 0-2.725.015-.916-.073-1.83-.263-2.726a4.391 4.391 0 0 0-.836-1.846 3.766 3.766 0 0 0-1.582-1.099 8.785 8.785 0 0 0-2.594-.352h-5.275l.22 12.573Zm22.747 12.44v-.307c.66-2.594 1.363-5.319 2.154-8.045a170.712 170.712 0 0 1 2.506-7.956 179.79 179.79 0 0 1 2.506-6.858 51.287 51.287 0 0 1 2.198-4.88h4.396a39.262 39.262 0 0 1 2.198 4.88c.835 2.022 1.671 4.396 2.55 6.858.879 2.461 1.67 5.187 2.505 7.956.836 2.77 1.495 5.451 2.111 8.045v.307h-3.517c0-.263 0-.791-.352-1.582l-.527-1.978c0-.528-.264-1.099-.44-1.671-.176-.571-.264-1.099-.44-1.67h-12.748c0 .571-.308 1.143-.44 1.714-.132.572-.308 1.143-.44 1.715-.131.571-.307 1.143-.439 1.714-.132.572-.264 1.143-.396 1.758h-3.385Zm11.474-25.232c-.528.967-1.011 2.021-1.495 3.165a35.958 35.958 0 0 0-1.45 3.692c-.484 1.275-.923 2.638-1.363 4.001-.44 1.363-.879 2.857-1.319 4.396h11.342c-.44-1.495-.879-2.902-1.319-4.396a52.41 52.41 0 0 0-1.363-4.001c-.483-1.275-.967-2.55-1.45-3.692a26.546 26.546 0 0 0-1.583-3.165Zm20.369 25.232v-28.046h2.33l15.254 20.749v-20.749h3.517v28.046h-2.33l-15.166-20.836v20.749l-3.605.087Zm38.613 0v-25.013h-8.792v-3.033h21.101v3.033h-8.793v25.013h-3.516Zm21.028 0v-28.046h3.517v11.606h13.76v-11.606h3.604v28.046h-3.472v-13.188h-13.892v13.188h-3.517Zm29.606-7.827v-20.397h15.826v3.033h-12.265v8.792h11.079v3.121h-11.079v5.979c-.024.638.05 1.275.22 1.89.159.485.413.934.747 1.319.354.311.754.563 1.188.747a4.637 4.637 0 0 0 1.626.264h8.484v3.077h-8.22a10.91 10.91 0 0 1-3.297-.439 5.9 5.9 0 0 1-2.374-1.407 6.367 6.367 0 0 1-1.451-2.374 11.052 11.052 0 0 1-.484-3.605Zm5.716-23.387v-.571l3.648-5.275h3.648v.571l-5.23 5.275h-2.066Zm18.829 18.313v-2.286c.028-1.843.357-3.669.969-5.407a10.278 10.278 0 0 1 2.24-4.089 8.827 8.827 0 0 1 3.693-2.55c1.596-.626 3.3-.925 5.012-.879a13.636 13.636 0 0 1 5.012.836 9.38 9.38 0 0 1 3.65 2.505 11.084 11.084 0 0 1 2.286 4.045c.514 1.8.766 3.666.745 5.539v2.286a18.98 18.98 0 0 1-.745 5.407 11.645 11.645 0 0 1-2.286 4.088 9.945 9.945 0 0 1-3.65 2.55 15.203 15.203 0 0 1-10.066 0 9.385 9.385 0 0 1-3.651-2.506 10.417 10.417 0 0 1-2.24-4.044 17.916 17.916 0 0 1-.969-5.495Zm3.517 0a16.341 16.341 0 0 0 .529 4.396 8.422 8.422 0 0 0 1.54 3.077 6.276 6.276 0 0 0 2.548 1.802c1.155.41 2.38.604 3.605.572a10.154 10.154 0 0 0 3.605-.572 6.602 6.602 0 0 0 2.548-1.802 8.323 8.323 0 0 0 1.494-3.077c.378-1.435.553-2.914.529-4.396v-2.286a16.621 16.621 0 0 0-.529-4.396 8.108 8.108 0 0 0-1.494-3.034 6.144 6.144 0 0 0-2.548-1.802 10.168 10.168 0 0 0-3.605-.616 10.011 10.011 0 0 0-3.605.616 5.88 5.88 0 0 0-2.548 1.802 8.161 8.161 0 0 0-1.54 3.034 16.621 16.621 0 0 0-.529 4.396v2.286Zm28.812 12.901v-28.046h2.327l15.257 20.749v-20.749h3.472v28.046h-2.461l-15.078-20.836v20.749l-3.517.087ZM553.186 158.38l17.135 30.552h9.752v-51.163h4.915v-6.59h-18.743v6.59h6.476v38.934l-.305 1.829-19.23-34.599v14.447Zm80.563-27.201h-41.371v6.59h5.486v44.61h-5.486v6.553h41.371v-16.305h-7.808v9.752h-20.61v-19.581h17.334v-6.552h-17.334v-18.477h20.61v9.753h7.808v-16.343Z"/>
    <path fill="#4392B2" d="M542.214 131.103h-23.119v6.666h15.683v44.61h-15.531v6.553h38.048v-6.553h-15.051v-19.581h-.03v-31.695Z"/>
    <path fill="#fff" d="M487.399 121.35h-7.314v39.01h7.314v-39.01Z"/>
    <path fill="#fff" d="M497.419 141.731a19.583 19.583 0 0 0-2.767-2.543l3.736-6.471a25.929 25.929 0 0 1 5.011 4.328c2.439 2.693 4.331 5.867 5.677 9.524 1.346 3.657 2.019 7.569 2.019 11.734s-.686 8.076-2.057 11.733c-1.347 3.632-3.251 6.807-5.715 9.524-2.438 2.718-5.358 4.864-8.762 6.438-3.378 1.549-7.098 2.324-11.162 2.324-3.987 0-7.631-.737-10.933-2.209-3.302-1.499-6.248-3.62-8.838-6.363-2.591-2.742-4.559-5.993-5.905-9.752a34.431 34.431 0 0 1-2.019-11.695c0-4.165.673-8.077 2.019-11.734 1.371-3.657 3.276-6.831 5.714-9.524a26.628 26.628 0 0 1 4.606-4.041l3.708 6.423a19.17 19.17 0 0 0-2.866 2.838c-1.727 2.082-3.061 4.52-4 7.314-.94 2.768-1.41 5.676-1.41 8.724 0 3.555.521 6.73 1.562 9.524 1.042 2.768 2.413 5.079 4.115 6.933 1.726 1.828 3.771 3.365 6.133 4.61 2.387 1.244 5.092 1.866 8.114 1.866 3.023 0 5.753-.622 8.191-1.866a19.497 19.497 0 0 0 6.286-4.991c1.727-2.108 3.06-4.546 4-7.314.939-2.769 1.409-5.689 1.409-8.762 0-3.15-.52-6.184-1.562-9.105-1.016-2.946-2.45-5.435-4.304-7.467Z"/>
    <mask id="e" width="88" height="101" x="319" y="124" maskUnits="userSpaceOnUse" style="mask-type:luminance">
      <path fill="#fff" d="M406.652 124.62H319.45v100.282h87.202V124.62Z"/>
    </mask>
    <g mask="url(#e)">
      <path fill="#fff" d="M401.202 142.061h-76.301v34.881h76.301v-34.881Z"/>
      <path fill="#4392B2" d="M323.228 124.62c-1.406 0-2.355 7.791-2.976 15.256-.347 4.148-1.077 15.998-.694 28.917.735 9.822 1.121 20.709 3.816 29.786 5.569 18.608 21.856 23.699 27.717 25.167a46.47 46.47 0 0 0 11.959 1.123c4.649.145 8.032-.467 11.96-1.123 5.843-1.468 22.13-6.559 27.717-25.167 2.548-9.494 3.711-19.825 3.816-29.786.383-12.937-.347-24.769-.694-28.917-.621-7.483-1.57-15.256-2.976-15.256s-6.756 1.395-13.347 9.186c-8.783-5.291-26.476-5.599-26.476-5.599s-17.692.308-26.475 5.599c-6.591-7.791-11.923-9.186-13.347-9.186Zm18.606 20.619c8.107 0 14.68 6.522 14.68 14.567 0 8.044-6.573 14.567-14.68 14.567s-14.681-6.523-14.681-14.567c0-8.045 6.574-14.567 14.681-14.567Zm42.433 0c8.107 0 14.681 6.522 14.681 14.567 0 8.044-6.574 14.567-14.681 14.567s-14.68-6.523-14.68-14.567c0-8.045 6.573-14.567 14.68-14.567Zm-21.226 14.452c.356-.003.712.033 1.068.115 1.315.29 3.378.888 3.378 1.867 0 1.141-1.131 4.674-2.885 7.827-.31.561-.912.905-1.552.905a1.775 1.775 0 0 1-1.551-.905c-1.771-3.153-2.885-6.686-2.885-7.827 0-.979 2.045-1.577 3.359-1.867a5.54 5.54 0 0 1 1.068-.115Z"/>
      <path fill="#4392B2" d="M344.008 153.138c-5.295 0-9.585 4.258-9.585 9.512 0 5.255 4.29 9.513 9.585 9.513 5.296 0 9.586-4.258 9.586-9.513 0-5.254-4.29-9.512-9.586-9.512Zm-3.797 7.465a2.255 2.255 0 0 1-2.265-2.247 2.255 2.255 0 0 1 2.265-2.246c1.241 0 2.264.996 2.264 2.246a2.267 2.267 0 0 1-2.264 2.247Zm41.301-7.465c-5.295 0-9.586 4.258-9.586 9.512 0 5.255 4.291 9.513 9.586 9.513s9.586-4.258 9.586-9.513c-.018-5.254-4.291-9.512-9.586-9.512Zm-4.199 7.465a2.255 2.255 0 0 1-2.265-2.247 2.255 2.255 0 0 1 2.265-2.246c1.241 0 2.264.996 2.264 2.246a2.267 2.267 0 0 1-2.264 2.247Z"/>
    </g>
    <path fill="#224E5E" stroke="#fff" stroke-width="2" d="M309.64 238.191h-.003c-.675.002-.955-.153-1.128-.337-.216-.23-.415-.662-.591-1.518l-6.12-59.615c.082-1.139.306-1.791.685-2.225.38-.434 1.04-.792 2.334-1.04H421.29c1.293.248 1.954.606 2.334 1.04.379.434.603 1.086.684 2.226l-6.119 59.617c-.177.857-.375 1.288-.591 1.519-.173.183-.454.339-1.128.336h-.004l-52.538.004v-.004h-.876l-53.412-.003Z"/>
    <path stroke="#fff" stroke-width="2" d="M307.35 233.7h111.3"/>
    <path fill="#4392B2" d="M363.052 215.092c5.418 0 9.81-3.904 9.81-8.72 0-4.816-4.392-8.72-9.81-8.72s-9.81 3.904-9.81 8.72c0 4.816 4.392 8.72 9.81 8.72Z"/>
    <path fill="#fff" d="m360.608 210.301 3.743-8.326a.614.614 0 0 1 .325-.311.651.651 0 0 1 .46-.013c.15.051.273.155.345.29a.563.563 0 0 1 .043.436l-.025.066-3.743 8.326a.612.612 0 0 1-.325.31.646.646 0 0 1-.46.014.613.613 0 0 1-.345-.29.563.563 0 0 1-.043-.436l.025-.066Zm-3.617-4.351 2.498-2.378a.634.634 0 0 1 .421-.173.64.64 0 0 1 .432.148.572.572 0 0 1 .081.81l-.052.055-2.055 1.959 2.055 1.957a.578.578 0 0 1 .029.816.646.646 0 0 1-.853.075l-.058-.05-2.498-2.378a.573.573 0 0 1-.051-.785l.051-.056Zm8.741-2.379a.645.645 0 0 1 .824-.049l.058.049 2.498 2.379a.575.575 0 0 1 .051.785l-.051.056-2.498 2.376a.646.646 0 0 1-.854.025.574.574 0 0 1-.081-.81l.053-.057 2.054-1.954-2.055-1.959a.578.578 0 0 1 0-.841h.001Z"/>
  </g>
  <defs>
    <radialGradient id="b" cx="0" cy="0" r="1" gradientTransform="matrix(30.4861 0 0 30.4966 280.414 407.229)" gradientUnits="userSpaceOnUse">
      <stop offset=".1" stop-color="#fff"/>
      <stop offset=".2" stop-color="#1C414E"/>
      <stop offset="1" stop-color="#1C414E" stop-opacity="0"/>
    </radialGradient>
    <radialGradient id="c" cx="0" cy="0" r="1" gradientTransform="matrix(30.4861 0 0 30.4966 952.693 217.906)" gradientUnits="userSpaceOnUse">
      <stop offset=".1" stop-color="#fff"/>
      <stop offset=".2" stop-color="#1C414E"/>
      <stop offset="1" stop-color="#1C414E" stop-opacity="0"/>
    </radialGradient>
    <clipPath id="a">
      <path fill="#fff" d="M0 0h1584v396H0z"/>
    </clipPath>
    <filter id="d" width="569.705" height="99.643" x="874.791" y="130.337" color-interpolation-filters="sRGB" filterUnits="userSpaceOnUse">
      <feFlood flood-opacity="0" result="BackgroundImageFix"/>
      <feColorMatrix in="SourceAlpha" result="hardAlpha" values="0 0 0 0 0 0 0 0 0 0 0 0 0 0 0 0 0 0 127 0"/>
      <feOffset/>
      <feGaussianBlur stdDeviation="1.348"/>
      <feComposite in2="hardAlpha" operator="out"/>
      <feColorMatrix values="0 0 0 0 0 0 0 0 0 0 0 0 0 0 0 0 0 0 0.5 0"/>
      <feBlend in2="BackgroundImageFix" result="effect1_dropShadow_574_10857"/>
      <feBlend in="SourceGraphic" in2="effect1_dropShadow_574_10857" result="shape"/>
    </filter>
  </defs>
</svg>
