<svg width="1000" height="1000" viewBox="0 0 1000 1000" fill="none" xmlns="http://www.w3.org/2000/svg">
<path d="M500.486 111.952C500.398 106.889 500.397 106.889 500.395 106.889L500.389 106.889L500.369 106.889L500.293 106.891L500.246 106.891C500.184 106.893 500.104 106.894 500.005 106.897C499.753 106.902 499.382 106.911 498.897 106.924C497.927 106.95 496.503 106.993 494.673 107.062C491.012 107.199 485.722 107.437 479.18 107.844C466.1 108.656 447.992 110.141 427.874 112.831C389.352 117.983 342.685 127.647 310.055 145.957C263.076 91.757 224.498 80.9359 212.392 80.9359C208.603 80.9359 206.063 83.5381 204.602 85.5941C203.028 87.8101 201.721 90.7406 200.588 93.9777C198.3 100.516 196.292 109.587 194.505 120.081C190.917 141.146 188.063 168.916 185.815 195.944C183.295 226.092 177.998 312.015 180.779 405.714L180.783 405.828L180.791 405.942C181.334 413.187 181.85 420.515 182.361 427.907H78.6001H78.1365L77.6807 427.991C66.9807 429.967 59.026 433.269 53.7306 439.325C48.4375 445.377 46.5612 453.321 45.9468 462.702L45.919 463.126L45.9624 463.55L90.3196 895.677L90.3447 895.922L90.3937 896.164C91.7597 902.917 93.6995 908.838 97.595 912.985C101.759 917.417 107.356 919.039 114.093 919.012C114.098 919.012 114.103 919.012 114.108 919.012L495.414 919.037L495.414 919.064L500.486 919.064L886.885 919.039C886.889 919.039 886.894 919.039 886.899 919.039C893.637 919.066 899.234 917.444 903.398 913.011C907.294 908.864 909.234 902.942 910.6 896.19L910.649 895.948L910.674 895.702L955.034 463.551L955.077 463.128L955.049 462.703C954.435 453.322 952.558 445.378 947.265 439.325C941.969 433.269 934.014 429.967 923.314 427.991L922.858 427.907H922.394H819.716C819.957 420.471 820.115 413.054 820.194 405.665C822.971 311.854 817.677 226.087 815.156 195.944C812.909 168.85 810.055 141.08 806.467 120.031C804.68 109.545 802.671 100.486 800.383 93.9567C799.25 90.7243 797.942 87.7978 796.367 85.5848C794.903 83.5294 792.364 80.9359 788.58 80.9359C776.605 80.9359 737.903 91.7547 690.918 145.957C658.287 127.647 611.62 117.982 573.098 112.831C552.98 110.141 534.872 108.656 521.792 107.844C515.25 107.437 509.961 107.199 506.3 107.062C504.469 106.993 503.045 106.95 502.075 106.924C501.591 106.911 501.219 106.902 500.967 106.897C500.841 106.894 500.745 106.892 500.679 106.891L500.603 106.889L500.583 106.889L500.577 106.889C500.575 106.889 500.574 106.889 500.486 111.952ZM500.486 111.952L500.398 106.889L500.486 106.887L500.574 106.889L500.486 111.952Z" fill="#0E2A47" stroke="#0E2A47" stroke-width="10.1282"/>
<g clip-path="url(#clip0_358_23)">
<rect x="224.486" y="212.171" width="552" height="252.343" fill="white"/>
<path d="M193.378 196.575L193.378 196.573C195.623 169.585 198.455 142.083 201.986 121.355C203.755 110.971 205.679 102.407 207.751 96.4848C208.793 93.5076 209.82 91.3539 210.788 89.992C211.812 88.5501 212.372 88.5302 212.385 88.5302C221.672 88.5317 259.6 98.0479 307.012 154.088L308.405 155.734L310.252 154.622C341.539 135.775 388.966 125.695 428.874 120.358C448.771 117.698 466.695 116.228 479.644 115.424C486.117 115.021 491.344 114.786 494.95 114.651C496.753 114.583 498.15 114.541 499.094 114.516C499.567 114.503 499.926 114.494 500.166 114.489C500.286 114.486 500.376 114.485 500.436 114.483L500.479 114.483L500.522 114.483C500.582 114.485 500.672 114.486 500.793 114.489C501.033 114.494 501.392 114.503 501.864 114.516C502.809 114.541 504.206 114.583 506.008 114.651C509.614 114.786 514.841 115.021 521.315 115.423C534.264 116.228 552.187 117.697 572.085 120.358C611.992 125.695 659.42 135.774 690.707 154.622L692.554 155.734L693.947 154.088C741.361 98.0454 779.42 88.5302 788.573 88.5302C788.588 88.5302 789.148 88.5514 790.172 89.9886C791.139 91.347 792.165 93.4958 793.207 96.4676C795.279 102.379 797.204 110.931 798.972 121.306C802.503 142.018 805.335 169.519 807.58 196.573L807.58 196.575C810.084 226.525 815.363 312.019 812.593 405.487L812.592 405.511L812.592 405.536C811.833 477.422 803.439 551.927 785.08 620.36C745.091 753.479 628.652 790.034 586.482 800.638C585.204 800.852 583.934 801.064 582.672 801.276C555.885 805.765 532.364 809.706 500.558 808.714L500.475 808.711L500.393 808.714C469.834 809.757 442.095 806.818 414.543 800.655C372.296 790.073 255.739 753.545 215.868 620.329C199.345 564.671 194.881 499.547 190.624 437.431C189.885 426.652 189.152 415.963 188.364 405.43C185.597 312.115 190.875 226.519 193.378 196.575ZM492.18 338.069L492.16 338.073L492.139 338.078C487.337 339.137 481.051 340.788 475.915 343.13C473.355 344.297 470.931 345.702 469.112 347.401C467.288 349.104 465.848 351.324 465.848 354.053C465.848 356.43 466.412 359.816 467.379 363.777C468.359 367.789 469.793 372.552 471.622 377.749C475.28 388.14 480.555 400.364 487.04 411.909C489.746 416.799 494.966 419.763 500.479 419.763C505.996 419.763 511.219 416.796 513.924 411.901C520.339 400.361 525.612 388.141 529.285 377.753C531.122 372.556 532.568 367.794 533.557 363.783C534.535 359.824 535.109 356.435 535.109 354.053C535.109 351.316 533.651 349.094 531.816 347.394C529.984 345.697 527.545 344.294 524.969 343.127C519.806 340.788 513.493 339.138 508.694 338.08C505.92 337.446 503.153 337.166 500.397 337.184C497.638 337.201 494.898 337.516 492.18 338.069ZM455.722 340.55C455.722 280.935 407.016 232.632 346.987 232.632C286.958 232.632 238.253 280.935 238.253 340.55C238.253 400.164 286.958 448.467 346.987 448.467C407.016 448.467 455.722 400.164 455.722 340.55ZM762.705 340.55C762.705 280.935 713.999 232.632 653.97 232.632C593.941 232.632 545.236 280.935 545.236 340.55C545.236 400.164 593.941 448.467 653.97 448.467C713.999 448.467 762.705 400.164 762.705 340.55Z" fill="#4392B2" stroke="#285E7C" stroke-width="5.06411"/>
<path d="M362.718 292.313C324.411 292.313 293.369 323.116 293.369 361.128C293.369 399.14 324.411 429.943 362.718 429.943C401.024 429.943 432.066 399.14 432.066 361.128C432.066 323.116 401.024 292.313 362.718 292.313ZM335.242 346.316C326.26 346.316 318.863 339.107 318.863 330.063C318.863 321.15 326.128 313.809 335.242 313.809C344.225 313.809 351.622 321.018 351.622 330.063C351.49 339.107 344.225 346.316 335.242 346.316Z" fill="#4392B2"/>
<path d="M634.036 292.313C595.729 292.313 564.687 323.116 564.687 361.128C564.687 399.14 595.729 429.943 634.036 429.943C672.343 429.943 703.384 399.14 703.384 361.128C703.252 323.116 672.343 292.313 634.036 292.313ZM603.654 346.316C594.672 346.316 587.275 339.107 587.275 330.063C587.275 321.15 594.54 313.809 603.654 313.809C612.637 313.809 620.034 321.018 620.034 330.063C619.902 339.107 612.637 346.316 603.654 346.316Z" fill="#4392B2"/>
</g>
<path d="M496.679 917.771L496.679 917.798L500.486 917.798L886.89 917.773C886.893 917.773 886.895 917.773 886.897 917.773C893.431 917.8 898.634 916.234 902.475 912.144C906.115 908.27 908.001 902.651 909.359 895.938L909.396 895.757L909.415 895.573L953.774 463.422L953.807 463.104L953.786 462.786C953.177 453.495 951.328 445.895 946.312 440.158C941.294 434.42 933.676 431.192 923.084 429.236L922.742 429.173H922.394H78.6H78.2523L77.9105 429.236C67.3187 431.192 59.7015 434.42 54.6836 440.158C49.6674 445.894 47.8185 453.493 47.21 462.784L47.1892 463.103L47.2218 463.42L91.5789 895.548L91.5978 895.732L91.6345 895.913C92.9925 902.625 94.8786 908.244 98.5177 912.118C102.359 916.207 107.562 917.774 114.095 917.746C114.097 917.746 114.1 917.746 114.102 917.746L496.679 917.771Z" fill="#224E5E" stroke="#0E2A47" stroke-width="7.59616"/>
<path d="M89.9192 875.132L907.773 875.132" stroke="#0E2A47" stroke-width="7.59616"/>
<ellipse cx="500.486" cy="677.428" rx="70.9714" ry="63.0857" fill="#4392B2"/>
<path d="M482.808 705.855L509.889 645.618C510.344 644.612 511.185 643.809 512.241 643.373C513.296 642.937 514.486 642.902 515.568 643.273C516.65 643.645 517.543 644.396 518.064 645.372C518.584 646.349 518.694 647.478 518.371 648.53L518.19 649.003L491.11 709.24C490.654 710.246 489.813 711.049 488.758 711.484C487.702 711.92 486.512 711.956 485.43 711.584C484.348 711.213 483.455 710.462 482.935 709.485C482.414 708.508 482.304 707.379 482.628 706.328L482.808 705.855ZM456.645 674.377L474.71 657.171C475.523 656.4 476.614 655.952 477.761 655.919C478.908 655.885 480.025 656.269 480.886 656.992C481.746 657.714 482.286 658.722 482.395 659.81C482.503 660.898 482.173 661.985 481.472 662.849L481.097 663.253L466.224 677.418L481.097 691.582C481.915 692.355 482.393 693.396 482.432 694.493C482.471 695.589 482.069 696.659 481.307 697.482C480.545 698.306 479.482 698.82 478.334 698.922C477.187 699.023 476.042 698.702 475.135 698.026L474.71 697.665L456.645 680.459C455.867 679.718 455.4 678.733 455.331 677.688C455.262 676.642 455.596 675.609 456.27 674.781L456.645 674.377ZM519.875 657.167C520.652 656.426 521.687 655.981 522.785 655.916C523.882 655.85 524.967 656.168 525.836 656.81L526.256 657.167L544.327 674.377C545.104 675.118 545.571 676.103 545.64 677.148C545.709 678.194 545.376 679.227 544.701 680.055L544.327 680.463L526.256 697.647C525.444 698.419 524.353 698.867 523.206 698.9C522.059 698.933 520.942 698.55 520.081 697.827C519.221 697.104 518.681 696.097 518.572 695.009C518.463 693.921 518.793 692.834 519.495 691.97L519.875 691.561L534.738 677.418L519.866 663.249C519.019 662.442 518.543 661.349 518.543 660.208C518.543 659.067 519.019 657.974 519.866 657.167H519.875Z" fill="#DBDFE4"/>
<defs>
<clipPath id="clip0_358_23">
<rect width="630.857" height="725.486" fill="white" transform="translate(185.057 86)"/>
</clipPath>
</defs>
</svg>
