<svg width="1000" height="1000" viewBox="0 0 1000 1000" fill="none" xmlns="http://www.w3.org/2000/svg">
<g clip-path="url(#clip0_358_37)">
<rect x="224.486" y="212.171" width="552" height="252.343" fill="#DBDFE4"/>
<path d="M212.385 85.9982C202.214 85.9982 195.346 142.36 190.855 196.364C188.345 226.38 183.06 312.105 185.834 405.562C191.155 476.624 193.946 555.383 213.442 621.053C253.73 755.669 371.557 792.501 413.958 803.119C441.719 809.331 469.682 812.296 500.479 811.244C534.108 812.294 558.581 807.865 587 803.119C629.269 792.501 747.096 755.669 787.516 621.053C805.947 552.365 814.363 477.628 815.124 405.562C817.897 311.973 812.613 226.38 810.103 196.364C805.612 142.229 798.745 85.9982 788.573 85.9982C778.402 85.9982 739.699 96.0902 692.013 152.453C628.477 114.178 500.479 111.95 500.479 111.95C500.479 111.95 372.482 114.179 308.945 152.453C261.26 96.0898 222.686 85.9982 212.383 85.9982H212.385ZM346.987 235.164C405.636 235.164 453.19 282.351 453.19 340.55C453.19 398.748 405.636 445.935 346.987 445.935C288.338 445.935 240.785 398.748 240.785 340.55C240.785 282.351 288.338 235.164 346.987 235.164ZM653.97 235.164C712.619 235.164 760.173 282.351 760.173 340.55C760.173 398.748 712.619 445.935 653.97 445.935C595.321 445.935 547.768 398.748 547.768 340.55C547.768 282.351 595.321 235.164 653.97 235.164ZM500.413 339.716C502.988 339.7 505.564 339.961 508.14 340.55C517.65 342.648 532.577 346.974 532.577 354.053C532.577 362.311 524.389 387.869 511.707 410.677C509.462 414.74 505.103 417.23 500.48 417.23C495.856 417.23 491.497 414.74 489.252 410.677C476.439 387.869 468.38 362.311 468.38 354.053C468.38 346.975 483.174 342.648 492.685 340.55C495.261 340.026 497.837 339.732 500.413 339.716Z" fill="#4392B2"/>
<path d="M362.718 292.313C324.411 292.313 293.369 323.116 293.369 361.128C293.369 399.14 324.411 429.943 362.718 429.943C401.024 429.943 432.066 399.14 432.066 361.128C432.066 323.116 401.024 292.313 362.718 292.313ZM335.242 346.316C326.26 346.316 318.863 339.107 318.863 330.063C318.863 321.15 326.128 313.809 335.242 313.809C344.225 313.809 351.622 321.018 351.622 330.063C351.49 339.107 344.225 346.316 335.242 346.316Z" fill="#4392B2"/>
<path d="M634.036 292.313C595.729 292.313 564.687 323.116 564.687 361.128C564.687 399.14 595.729 429.943 634.036 429.943C672.343 429.943 703.384 399.14 703.384 361.128C703.252 323.116 672.343 292.313 634.036 292.313ZM603.655 346.316C594.672 346.316 587.275 339.107 587.275 330.063C587.275 321.15 594.54 313.809 603.655 313.809C612.637 313.809 620.034 321.018 620.034 330.063C619.902 339.107 612.637 346.316 603.655 346.316Z" fill="#4392B2"/>
</g>
<path d="M496.679 917.771L496.679 917.798L500.486 917.798L886.89 917.773C886.893 917.773 886.895 917.773 886.897 917.773C893.431 917.8 898.634 916.234 902.475 912.144C906.115 908.27 908.001 902.651 909.359 895.938L909.396 895.757L909.415 895.573L953.774 463.422L953.807 463.104L953.786 462.786C953.177 453.495 951.328 445.895 946.312 440.158C941.294 434.42 933.676 431.192 923.084 429.236L922.742 429.173H922.394H78.6H78.2523L77.9105 429.236C67.3187 431.192 59.7015 434.42 54.6836 440.158C49.6674 445.894 47.8185 453.493 47.21 462.784L47.1892 463.103L47.2218 463.42L91.5789 895.548L91.5978 895.732L91.6345 895.913C92.9925 902.625 94.8786 908.244 98.5177 912.118C102.359 916.207 107.562 917.774 114.095 917.746C114.097 917.746 114.1 917.746 114.102 917.746L496.679 917.771Z" fill="#224E5E" stroke="#DBDFE4" stroke-width="7.59616"/>
<path d="M89.9192 875.132L907.773 875.132" stroke="#DBDFE4" stroke-width="7.59616"/>
<ellipse cx="500.486" cy="677.428" rx="70.9714" ry="63.0857" fill="#4392B2"/>
<path d="M482.808 705.855L509.889 645.618C510.344 644.612 511.185 643.809 512.241 643.373C513.296 642.937 514.486 642.902 515.568 643.273C516.65 643.645 517.543 644.396 518.064 645.372C518.584 646.349 518.694 647.478 518.371 648.53L518.19 649.003L491.11 709.24C490.654 710.246 489.813 711.049 488.758 711.484C487.702 711.92 486.512 711.956 485.43 711.584C484.348 711.213 483.455 710.462 482.935 709.485C482.414 708.508 482.304 707.379 482.628 706.328L482.808 705.855ZM456.645 674.377L474.71 657.171C475.523 656.4 476.614 655.952 477.761 655.919C478.908 655.885 480.025 656.269 480.886 656.992C481.746 657.714 482.286 658.722 482.395 659.81C482.503 660.898 482.173 661.985 481.472 662.849L481.097 663.253L466.224 677.418L481.097 691.582C481.915 692.355 482.393 693.396 482.432 694.493C482.471 695.589 482.069 696.659 481.307 697.482C480.545 698.306 479.482 698.82 478.334 698.922C477.187 699.023 476.042 698.702 475.135 698.026L474.71 697.665L456.645 680.459C455.867 679.718 455.4 678.733 455.331 677.688C455.262 676.642 455.596 675.609 456.27 674.781L456.645 674.377ZM519.875 657.167C520.652 656.426 521.687 655.981 522.785 655.916C523.882 655.85 524.967 656.168 525.836 656.81L526.256 657.167L544.327 674.377C545.104 675.118 545.571 676.103 545.64 677.148C545.709 678.194 545.376 679.227 544.701 680.055L544.327 680.463L526.256 697.647C525.444 698.419 524.353 698.867 523.206 698.9C522.059 698.933 520.942 698.55 520.081 697.827C519.221 697.104 518.681 696.097 518.572 695.009C518.463 693.921 518.793 692.834 519.495 691.97L519.875 691.561L534.738 677.418L519.866 663.249C519.019 662.442 518.543 661.349 518.543 660.208C518.543 659.067 519.019 657.974 519.866 657.167H519.875Z" fill="#DBDFE4"/>
<defs>
<clipPath id="clip0_358_37">
<rect width="630.857" height="725.486" fill="white" transform="translate(185.057 86)"/>
</clipPath>
</defs>
</svg>
