<svg width="1013" height="560" viewBox="0 0 1013 560" fill="none" xmlns="http://www.w3.org/2000/svg">
<path d="M75 506.572V399.114H109.697C114.616 398.981 119.521 399.723 124.182 401.303C128.014 402.68 131.473 404.929 134.287 407.872C137 411.067 139.009 414.797 140.182 418.82C141.548 423.696 142.172 428.749 142.035 433.81C142.095 438.934 141.414 444.04 140.014 448.969C138.609 453.288 136.378 457.292 133.445 460.759C130.502 464.062 126.804 466.605 122.666 468.17C117.749 469.923 112.558 470.778 107.339 470.697H88.306V506.572H75ZM88.306 458.907H107.339C111.007 459.046 114.667 458.474 118.118 457.222C120.77 456.159 123.053 454.345 124.687 452.001C126.292 449.675 127.383 447.034 127.887 444.253C128.255 440.782 128.255 437.282 127.887 433.81C127.944 430.303 127.605 426.8 126.876 423.368C126.375 420.793 125.279 418.37 123.676 416.294C122.053 414.39 119.964 412.939 117.613 412.083C114.386 411.14 111.037 410.686 107.675 410.736H87.4638L88.306 458.907Z" fill="#0E2A47"/>
<path d="M175.462 506.57V505.391C177.988 495.453 180.683 485.011 183.715 474.568C186.747 464.125 189.947 453.851 193.315 444.082C196.684 434.313 199.884 425.555 202.916 417.807C205.948 410.059 208.979 403.659 211.337 399.111H228.18C231.411 405.144 234.225 411.39 236.602 417.807C239.802 425.555 243.002 434.65 246.371 444.082C249.739 453.514 252.771 463.957 255.971 474.568C259.171 485.179 261.698 495.453 264.056 505.391V506.57H250.582C250.582 505.559 250.582 503.538 249.234 500.506L247.213 492.927C247.213 490.906 246.202 488.716 245.529 486.527C244.855 484.337 244.518 482.316 243.844 480.126H195C195 482.316 193.821 484.506 193.315 486.695C192.81 488.885 192.136 491.074 191.631 493.264C191.126 495.453 190.452 497.643 189.947 499.833C189.441 502.022 188.936 504.212 188.431 506.57H175.462ZM219.422 409.891C217.401 413.596 215.548 417.639 213.695 422.018C211.583 426.628 209.728 431.351 208.137 436.166C206.284 441.051 204.6 446.272 202.916 451.493C201.232 456.715 199.547 462.441 197.863 468.336H241.318C239.634 462.61 237.949 457.22 236.265 451.493C234.581 445.767 232.896 441.051 231.044 436.166C229.191 431.282 227.338 426.397 225.485 422.018C223.633 417.639 221.78 413.933 219.422 409.891Z" fill="#0E2A47"/>
<path d="M297.465 506.57V399.111H306.392L364.837 478.611V399.111H378.311V506.57H369.384L311.276 426.734V506.233L297.465 506.57Z" fill="#0E2A47"/>
<path d="M445.405 506.57V410.733H411.719V399.111H492.566V410.733H458.88V506.57H445.405Z" fill="#0E2A47"/>
<path d="M525.974 506.57V399.111H539.448V443.577H592.167V399.111H605.978V506.57H592.672V456.041H539.448V506.57H525.974Z" fill="#0E2A47"/>
<path d="M639.41 476.582V398.431H700.044V410.052H653.052V443.738H695.497V455.697H653.052V478.603C652.959 481.047 653.243 483.49 653.895 485.846C654.502 487.704 655.476 489.422 656.758 490.899C658.111 492.091 659.646 493.057 661.305 493.762C663.306 494.467 665.417 494.809 667.537 494.773H700.044V506.563H668.548C664.276 506.651 660.016 506.083 655.916 504.879C652.5 503.827 649.383 501.98 646.82 499.489C644.321 496.903 642.423 493.798 641.262 490.394C639.885 485.924 639.259 481.257 639.41 476.582ZM661.305 386.977V384.788L675.285 364.576H689.265V366.766L669.222 386.977H661.305Z" fill="#0E2A47"/>
<path d="M733.453 457.137V448.379C733.561 441.319 734.813 434.322 737.159 427.662C738.78 421.85 741.719 416.49 745.749 411.998C749.541 407.573 754.415 404.207 759.897 402.229C766.006 399.827 772.536 398.682 779.098 398.86C785.642 398.714 792.156 399.8 798.299 402.061C803.659 404.098 808.453 407.39 812.279 411.661C816.265 416.146 819.25 421.429 821.037 427.157C823.012 434.055 823.976 441.204 823.9 448.379V457.137C823.953 464.145 822.989 471.124 821.037 477.854C819.213 483.617 816.232 488.946 812.279 493.518C808.418 497.79 803.638 501.13 798.299 503.287C785.815 507.665 772.213 507.665 759.728 503.287C754.368 501.25 749.575 497.958 745.749 493.687C741.756 489.234 738.82 483.937 737.159 478.191C734.833 471.409 733.583 464.306 733.453 457.137ZM746.928 457.137C746.831 462.818 747.511 468.484 748.949 473.98C750.084 478.273 752.09 482.287 754.844 485.771C757.468 488.857 760.828 491.232 764.613 492.676C769.044 494.245 773.725 494.987 778.424 494.866C783.122 494.976 787.802 494.234 792.235 492.676C795.998 491.189 799.348 488.821 802.004 485.771C804.702 482.275 806.652 478.262 807.731 473.98C809.169 468.484 809.849 462.818 809.752 457.137V448.379C809.833 442.7 809.153 437.035 807.731 431.536C806.653 427.305 804.702 423.347 802.004 419.914C799.396 416.811 796.031 414.432 792.235 413.009C787.812 411.393 783.133 410.594 778.424 410.651C773.715 410.579 769.032 411.379 764.613 413.009C760.795 414.39 757.42 416.776 754.844 419.914C752.09 423.335 750.082 427.293 748.949 431.536C747.527 437.035 746.847 442.7 746.928 448.379V457.137Z" fill="#0E2A47"/>
<path d="M857.312 506.57V399.111H866.239L924.684 478.611V399.111H937.99V506.57H928.558L870.787 426.734V506.233L857.312 506.57Z" fill="#0E2A47"/>
<path d="M538.496 194.876L604.149 311.933H641.514V115.909H660.343V90.6578H588.531V115.909H613.344V265.08L612.176 272.086L538.496 139.525V194.876Z" fill="#0E2A47"/>
<path d="M847.172 90.6578H688.659V115.909H709.678V286.828H688.659V311.933H847.172V249.462H817.25V286.828H738.286V211.805H804.698V186.7H738.286V115.909H817.25V153.275H847.172V90.6578Z" fill="#0E2A47"/>
<path d="M496.458 90.3659H407.878V115.909H467.966V286.828H408.462V311.933H554.238V286.828H496.575V211.805H496.458V90.3659Z" fill="#4392B2"/>
<path d="M286.439 53H258.415V202.463H286.439V53Z" fill="#0E2A47"/>
<path d="M324.826 131.089C321.549 127.447 318.016 124.199 314.228 121.346L328.542 96.5528C335.633 101.244 342.033 106.772 347.742 113.135C357.084 123.45 364.333 135.613 369.49 149.625C374.647 163.638 377.226 178.623 377.226 194.581C377.226 210.539 374.599 225.525 369.344 239.537C364.187 253.452 356.889 265.615 347.45 276.027C338.109 286.439 326.919 294.661 313.879 300.694C300.938 306.63 286.682 309.598 271.113 309.598C255.836 309.598 241.873 306.776 229.223 301.132C216.573 295.391 205.285 287.266 195.36 276.757C185.435 266.248 177.893 253.792 172.736 239.391C167.579 224.99 165 210.053 165 194.581C165 178.623 167.579 163.638 172.736 149.625C177.991 135.613 185.289 123.45 194.63 113.135C199.955 107.262 205.836 102.101 212.275 97.652L226.483 122.26C222.47 125.471 218.81 129.095 215.502 133.132C208.886 141.111 203.777 150.453 200.177 161.156C196.576 171.763 194.776 182.904 194.776 194.581C194.776 208.204 196.771 220.367 200.76 231.071C204.75 241.678 210.005 250.533 216.524 257.636C223.141 264.642 230.974 270.529 240.024 275.297C249.171 280.065 259.534 282.449 271.113 282.449C282.693 282.449 293.153 280.065 302.495 275.297C311.933 270.529 319.961 264.155 326.578 256.176C333.195 248.1 338.303 238.758 341.904 228.152C345.504 217.546 347.304 206.355 347.304 194.581C347.304 182.515 345.31 170.887 341.32 159.697C337.428 148.409 331.93 138.873 324.826 131.089Z" fill="#0E2A47"/>
</svg>
