<svg width="1280" height="560" viewBox="0 0 1280 560" fill="none" xmlns="http://www.w3.org/2000/svg">
<rect width="1280" height="560" fill="#0E2A47"/>
<path d="M67.472 513V476.704H90.196V481.592H73.296V492.148H89.572V497.036H73.296V508.112H90.196V513H67.472ZM98.6517 513V476.704H122V481.592H104.476V492.148H120.388V497.036H104.476V513H98.6517ZM135.499 513H129.727V476.704H143.299C146.766 476.704 149.401 477.675 151.203 479.616C153.041 481.557 153.959 484.227 153.959 487.624C153.959 490.397 153.283 492.685 151.931 494.488C150.579 496.291 148.638 497.4 146.107 497.816L154.479 513H148.031L140.335 498.336H135.499V513ZM142.467 493.656C146.073 493.656 147.875 492.009 147.875 488.716V486.48C147.875 483.187 146.073 481.54 142.467 481.54H135.499V493.656H142.467ZM161.011 513V476.704H183.735V481.592H166.835V492.148H183.111V497.036H166.835V508.112H183.735V513H161.011ZM191.879 513V508.58H200.407V481.124H191.879V476.704H214.759V481.124H206.231V508.58H214.759V513H191.879ZM254.446 513V476.704H268.018C271.485 476.704 274.119 477.675 275.922 479.616C277.759 481.557 278.678 484.227 278.678 487.624C278.678 491.021 277.759 493.691 275.922 495.632C274.119 497.573 271.485 498.544 268.018 498.544H260.27V513H254.446ZM260.27 493.708H267.134C270.739 493.708 272.542 492.044 272.542 488.716V486.48C272.542 483.187 270.739 481.54 267.134 481.54H260.27V493.708ZM305.282 513L302.526 503.328H290.982L288.226 513H282.298L292.906 476.704H300.862L311.47 513H305.282ZM296.962 482.58H296.546L292.074 498.492H301.434L296.962 482.58ZM322.578 513H316.806V476.704H330.378C333.844 476.704 336.479 477.675 338.282 479.616C340.119 481.557 341.038 484.227 341.038 487.624C341.038 490.397 340.362 492.685 339.01 494.488C337.658 496.291 335.716 497.4 333.186 497.816L341.558 513H335.11L327.414 498.336H322.578V513ZM329.546 493.656C333.151 493.656 334.954 492.009 334.954 488.716V486.48C334.954 483.187 333.151 481.54 329.546 481.54H322.578V493.656H329.546ZM347.777 513V508.58H356.305V481.124H347.777V476.704H370.657V481.124H362.129V508.58H370.657V513H347.777ZM390.085 513.624C386.93 513.624 384.278 513.069 382.129 511.96C379.98 510.851 378.212 509.377 376.825 507.54L380.569 503.952C381.956 505.616 383.429 506.847 384.989 507.644C386.549 508.407 388.317 508.788 390.293 508.788C392.581 508.788 394.332 508.268 395.545 507.228C396.793 506.188 397.417 504.697 397.417 502.756C397.417 501.196 396.966 500 396.065 499.168C395.164 498.301 393.621 497.677 391.437 497.296L387.485 496.672C385.752 496.395 384.296 495.944 383.117 495.32C381.938 494.661 380.985 493.899 380.257 493.032C379.529 492.131 378.992 491.143 378.645 490.068C378.333 488.959 378.177 487.797 378.177 486.584C378.177 483.152 379.286 480.552 381.505 478.784C383.724 476.981 386.774 476.08 390.657 476.08C393.534 476.08 395.978 476.548 397.989 477.484C400.034 478.385 401.681 479.668 402.929 481.332L399.289 484.972C398.284 483.759 397.088 482.788 395.701 482.06C394.349 481.297 392.668 480.916 390.657 480.916C388.508 480.916 386.861 481.384 385.717 482.32C384.608 483.221 384.053 484.556 384.053 486.324C384.053 487.815 384.486 488.993 385.353 489.86C386.254 490.692 387.832 491.299 390.085 491.68L393.933 492.356C397.192 492.945 399.566 494.141 401.057 495.944C402.548 497.712 403.293 499.879 403.293 502.444C403.293 504.108 402.998 505.633 402.409 507.02C401.854 508.407 401.005 509.585 399.861 510.556C398.752 511.527 397.365 512.289 395.701 512.844C394.072 513.364 392.2 513.624 390.085 513.624ZM441.524 513V476.704H455.096C458.563 476.704 461.198 477.675 463 479.616C464.838 481.557 465.756 484.227 465.756 487.624C465.756 491.021 464.838 493.691 463 495.632C461.198 497.573 458.563 498.544 455.096 498.544H447.348V513H441.524ZM447.348 493.708H454.212C457.818 493.708 459.62 492.044 459.62 488.716V486.48C459.62 483.187 457.818 481.54 454.212 481.54H447.348V493.708ZM492.36 513L489.604 503.328H478.06L475.304 513H469.376L479.984 476.704H487.94L498.548 513H492.36ZM484.04 482.58H483.624L479.152 498.492H488.512L484.04 482.58ZM508.824 485.076H508.356V513H503.26V476.704H510.748L521.408 504.628H521.876V476.704H526.972V513H519.484L508.824 485.076ZM549.207 481.592V513H543.383V481.592H531.995V476.704H560.595V481.592H549.207ZM583.507 497.036H571.443V513H565.619V476.704H571.443V492.148H583.507V476.704H589.331V513H583.507V497.036ZM597.527 513V476.704H620.251V481.592H603.351V492.148H619.627V497.036H603.351V508.112H620.251V513H597.527ZM609.435 474.052L605.951 472.388L610.683 463.028L615.571 465.42L609.435 474.052ZM639.834 513.624C637.546 513.624 635.553 513.208 633.854 512.376C632.19 511.509 630.804 510.279 629.694 508.684C628.62 507.089 627.822 505.131 627.302 502.808C626.782 500.485 626.522 497.833 626.522 494.852C626.522 491.905 626.782 489.271 627.302 486.948C627.822 484.591 628.62 482.615 629.694 481.02C630.804 479.425 632.19 478.212 633.854 477.38C635.553 476.513 637.546 476.08 639.834 476.08C642.122 476.08 644.098 476.513 645.762 477.38C647.461 478.212 648.848 479.425 649.922 481.02C651.032 482.615 651.846 484.591 652.366 486.948C652.886 489.271 653.146 491.905 653.146 494.852C653.146 497.833 652.886 500.485 652.366 502.808C651.846 505.131 651.032 507.089 649.922 508.684C648.848 510.279 647.461 511.509 645.762 512.376C644.098 513.208 642.122 513.624 639.834 513.624ZM639.834 508.788C642.434 508.788 644.272 507.817 645.346 505.876C646.421 503.9 646.958 501.231 646.958 497.868V491.784C646.958 488.456 646.421 485.821 645.346 483.88C644.272 481.904 642.434 480.916 639.834 480.916C637.234 480.916 635.397 481.904 634.322 483.88C633.248 485.821 632.71 488.456 632.71 491.784V497.92C632.71 501.248 633.248 503.9 634.322 505.876C635.397 507.817 637.234 508.788 639.834 508.788ZM664.722 485.076H664.254V513H659.158V476.704H666.646L677.306 504.628H677.774V476.704H682.87V513H675.382L664.722 485.076ZM694.342 500V494.332H710.046V500H694.342ZM741.797 513L739.041 503.328H727.497L724.741 513H718.813L729.421 476.704H737.377L747.985 513H741.797ZM733.477 482.58H733.061L728.589 498.492H737.949L733.477 482.58ZM764.241 513.624C761.086 513.624 758.434 513.069 756.285 511.96C754.136 510.851 752.368 509.377 750.981 507.54L754.725 503.952C756.112 505.616 757.585 506.847 759.145 507.644C760.705 508.407 762.473 508.788 764.449 508.788C766.737 508.788 768.488 508.268 769.701 507.228C770.949 506.188 771.573 504.697 771.573 502.756C771.573 501.196 771.122 500 770.221 499.168C769.32 498.301 767.777 497.677 765.593 497.296L761.641 496.672C759.908 496.395 758.452 495.944 757.273 495.32C756.094 494.661 755.141 493.899 754.413 493.032C753.685 492.131 753.148 491.143 752.801 490.068C752.489 488.959 752.333 487.797 752.333 486.584C752.333 483.152 753.442 480.552 755.661 478.784C757.88 476.981 760.93 476.08 764.813 476.08C767.69 476.08 770.134 476.548 772.145 477.484C774.19 478.385 775.837 479.668 777.085 481.332L773.445 484.972C772.44 483.759 771.244 482.788 769.857 482.06C768.505 481.297 766.824 480.916 764.813 480.916C762.664 480.916 761.017 481.384 759.873 482.32C758.764 483.221 758.209 484.556 758.209 486.324C758.209 487.815 758.642 488.993 759.509 489.86C760.41 490.692 761.988 491.299 764.241 491.68L768.089 492.356C771.348 492.945 773.722 494.141 775.213 495.944C776.704 497.712 777.449 499.879 777.449 502.444C777.449 504.108 777.154 505.633 776.565 507.02C776.01 508.407 775.161 509.585 774.017 510.556C772.908 511.527 771.521 512.289 769.857 512.844C768.228 513.364 766.356 513.624 764.241 513.624ZM795.421 513.624C792.266 513.624 789.614 513.069 787.465 511.96C785.315 510.851 783.547 509.377 782.161 507.54L785.905 503.952C787.291 505.616 788.765 506.847 790.325 507.644C791.885 508.407 793.653 508.788 795.629 508.788C797.917 508.788 799.667 508.268 800.881 507.228C802.129 506.188 802.753 504.697 802.753 502.756C802.753 501.196 802.302 500 801.401 499.168C800.499 498.301 798.957 497.677 796.773 497.296L792.821 496.672C791.087 496.395 789.631 495.944 788.453 495.32C787.274 494.661 786.321 493.899 785.593 493.032C784.865 492.131 784.327 491.143 783.981 490.068C783.669 488.959 783.513 487.797 783.513 486.584C783.513 483.152 784.622 480.552 786.841 478.784C789.059 476.981 792.11 476.08 795.993 476.08C798.87 476.08 801.314 476.548 803.325 477.484C805.37 478.385 807.017 479.668 808.265 481.332L804.625 484.972C803.619 483.759 802.423 482.788 801.037 482.06C799.685 481.297 798.003 480.916 795.993 480.916C793.843 480.916 792.197 481.384 791.053 482.32C789.943 483.221 789.389 484.556 789.389 486.324C789.389 487.815 789.822 488.993 790.689 489.86C791.59 490.692 793.167 491.299 795.421 491.68L799.269 492.356C802.527 492.945 804.902 494.141 806.393 495.944C807.883 497.712 808.629 499.879 808.629 502.444C808.629 504.108 808.334 505.633 807.745 507.02C807.19 508.407 806.341 509.585 805.197 510.556C804.087 511.527 802.701 512.289 801.037 512.844C799.407 513.364 797.535 513.624 795.421 513.624ZM835.337 513L832.581 503.328H821.037L818.281 513H812.353L822.961 476.704H830.917L841.525 513H835.337ZM827.017 482.58H826.6L822.129 498.492H831.489L827.017 482.58ZM857.78 513.624C854.626 513.624 851.974 513.069 849.824 511.96C847.675 510.851 845.907 509.377 844.52 507.54L848.264 503.952C849.651 505.616 851.124 506.847 852.684 507.644C854.244 508.407 856.012 508.788 857.988 508.788C860.276 508.788 862.027 508.268 863.24 507.228C864.488 506.188 865.112 504.697 865.112 502.756C865.112 501.196 864.662 500 863.76 499.168C862.859 498.301 861.316 497.677 859.132 497.296L855.18 496.672C853.447 496.395 851.991 495.944 850.812 495.32C849.634 494.661 848.68 493.899 847.952 493.032C847.224 492.131 846.687 491.143 846.34 490.068C846.028 488.959 845.872 487.797 845.872 486.584C845.872 483.152 846.982 480.552 849.2 478.784C851.419 476.981 854.47 476.08 858.352 476.08C861.23 476.08 863.674 476.548 865.684 477.484C867.73 478.385 869.376 479.668 870.624 481.332L866.984 484.972C865.979 483.759 864.783 482.788 863.396 482.06C862.044 481.297 860.363 480.916 858.352 480.916C856.203 480.916 854.556 481.384 853.412 482.32C852.303 483.221 851.748 484.556 851.748 486.324C851.748 487.815 852.182 488.993 853.048 489.86C853.95 490.692 855.527 491.299 857.78 491.68L861.628 492.356C864.887 492.945 867.262 494.141 868.752 495.944C870.243 497.712 870.988 499.879 870.988 502.444C870.988 504.108 870.694 505.633 870.104 507.02C869.55 508.407 868.7 509.585 867.556 510.556C866.447 511.527 865.06 512.289 863.396 512.844C861.767 513.364 859.895 513.624 857.78 513.624ZM914.264 476.704V499.012C914.264 500.503 914.298 501.855 914.368 503.068C914.472 504.281 914.732 505.321 915.148 506.188C915.564 507.02 916.188 507.661 917.02 508.112C917.852 508.563 918.996 508.788 920.452 508.788C921.908 508.788 923.052 508.563 923.884 508.112C924.716 507.661 925.34 507.02 925.756 506.188C926.172 505.321 926.414 504.281 926.484 503.068C926.588 501.855 926.64 500.503 926.64 499.012V476.704H932.464V497.972C932.464 500.572 932.308 502.86 931.996 504.836C931.718 506.777 931.146 508.407 930.28 509.724C929.413 511.007 928.182 511.977 926.588 512.636C925.028 513.295 922.982 513.624 920.452 513.624C917.921 513.624 915.858 513.295 914.264 512.636C912.704 511.977 911.49 511.007 910.624 509.724C909.757 508.407 909.168 506.777 908.856 504.836C908.578 502.86 908.44 500.572 908.44 497.972V476.704H914.264ZM945.339 485.076H944.871V513H939.775V476.704H947.263L957.923 504.628H958.391V476.704H963.487V513H955.999L945.339 485.076ZM971.371 513V508.58H979.899V481.124H971.371V476.704H994.251V481.124H985.723V508.58H994.251V513H971.371ZM1009.93 513L999.691 476.704H1005.98L1010.77 495.008L1013.94 507.332H1014.25L1017.42 495.008L1022.26 476.704H1028.29L1018.05 513H1009.93ZM1034.04 513V476.704H1056.77V481.592H1039.87V492.148H1056.14V497.036H1039.87V508.112H1056.77V513H1034.04ZM1070.89 513H1065.12V476.704H1078.69C1082.16 476.704 1084.79 477.675 1086.59 479.616C1088.43 481.557 1089.35 484.227 1089.35 487.624C1089.35 490.397 1088.67 492.685 1087.32 494.488C1085.97 496.291 1084.03 497.4 1081.5 497.816L1089.87 513H1083.42L1075.73 498.336H1070.89V513ZM1077.86 493.656C1081.46 493.656 1083.27 492.009 1083.27 488.716V486.48C1083.27 483.187 1081.46 481.54 1077.86 481.54H1070.89V493.656H1077.86ZM1107.22 513.624C1104.06 513.624 1101.41 513.069 1099.26 511.96C1097.11 510.851 1095.34 509.377 1093.96 507.54L1097.7 503.952C1099.09 505.616 1100.56 506.847 1102.12 507.644C1103.68 508.407 1105.45 508.788 1107.43 508.788C1109.71 508.788 1111.46 508.268 1112.68 507.228C1113.93 506.188 1114.55 504.697 1114.55 502.756C1114.55 501.196 1114.1 500 1113.2 499.168C1112.3 498.301 1110.75 497.677 1108.57 497.296L1104.62 496.672C1102.88 496.395 1101.43 495.944 1100.25 495.32C1099.07 494.661 1098.12 493.899 1097.39 493.032C1096.66 492.131 1096.12 491.143 1095.78 490.068C1095.47 488.959 1095.31 487.797 1095.31 486.584C1095.31 483.152 1096.42 480.552 1098.64 478.784C1100.86 476.981 1103.91 476.08 1107.79 476.08C1110.67 476.08 1113.11 476.548 1115.12 477.484C1117.17 478.385 1118.81 479.668 1120.06 481.332L1116.42 484.972C1115.42 483.759 1114.22 482.788 1112.83 482.06C1111.48 481.297 1109.8 480.916 1107.79 480.916C1105.64 480.916 1103.99 481.384 1102.85 482.32C1101.74 483.221 1101.19 484.556 1101.19 486.324C1101.19 487.815 1101.62 488.993 1102.49 489.86C1103.39 490.692 1104.96 491.299 1107.22 491.68L1111.07 492.356C1114.32 492.945 1116.7 494.141 1118.19 495.944C1119.68 497.712 1120.43 499.879 1120.43 502.444C1120.43 504.108 1120.13 505.633 1119.54 507.02C1118.99 508.407 1118.14 509.585 1116.99 510.556C1115.88 511.527 1114.5 512.289 1112.83 512.844C1111.2 513.364 1109.33 513.624 1107.22 513.624ZM1127.27 513V508.58H1135.8V481.124H1127.27V476.704H1150.15V481.124H1141.62V508.58H1150.15V513H1127.27ZM1172.8 481.592V513H1166.98V481.592H1155.59V476.704H1184.19V481.592H1172.8ZM1189.94 513V476.704H1212.66V481.592H1195.76V492.148H1212.04V497.036H1195.76V508.112H1212.66V513H1189.94ZM1201.85 474.052L1198.36 472.388L1203.1 463.028L1207.98 465.42L1201.85 474.052Z" fill="#DBDFE4"/>
<path d="M551.097 406.693V326.56H576.97C580.639 326.461 584.296 327.014 587.772 328.193C590.63 329.22 593.21 330.897 595.308 333.091C597.331 335.473 598.829 338.255 599.704 341.255C600.722 344.891 601.188 348.66 601.086 352.434C601.13 356.255 600.622 360.062 599.579 363.738C598.531 366.958 596.867 369.944 594.68 372.53C592.485 374.993 589.727 376.889 586.642 378.056C582.975 379.363 579.104 380.001 575.212 379.94H561.019V406.693H551.097ZM561.019 371.148H575.212C577.947 371.252 580.677 370.825 583.25 369.892C585.228 369.1 586.931 367.746 588.149 365.999C589.346 364.264 590.16 362.295 590.535 360.221C590.81 357.633 590.81 355.022 590.535 352.434C590.578 349.818 590.325 347.206 589.782 344.647C589.408 342.726 588.591 340.92 587.395 339.371C586.185 337.952 584.627 336.87 582.874 336.231C580.467 335.529 577.97 335.19 575.463 335.227H560.391L561.019 371.148Z" fill="#DBDFE4"/>
<path d="M626.013 406.693V405.814C627.897 398.404 629.906 390.617 632.167 382.829C634.428 375.042 636.814 367.38 639.326 360.096C641.838 352.811 644.225 346.279 646.486 340.502C648.746 334.724 651.007 329.951 652.766 326.56H665.326C667.735 331.059 669.833 335.717 671.606 340.502C673.992 346.279 676.378 353.062 678.891 360.096C681.403 367.129 683.663 374.916 686.05 382.829C688.436 390.742 690.32 398.404 692.079 405.814V406.693H682.031C682.031 405.94 682.031 404.433 681.026 402.172L679.519 396.52C679.519 395.013 678.765 393.38 678.263 391.747C677.76 390.114 677.509 388.607 677.007 386.974H640.582C640.582 388.607 639.703 390.24 639.326 391.873C638.949 393.505 638.447 395.138 638.07 396.771C637.693 398.404 637.191 400.037 636.814 401.669C636.437 403.302 636.061 404.935 635.684 406.693H626.013ZM658.794 334.599C657.287 337.362 655.906 340.376 654.524 343.642C652.949 347.08 651.565 350.602 650.379 354.192C648.998 357.835 647.742 361.728 646.486 365.622C645.23 369.516 643.974 373.786 642.718 378.182H675.122C673.866 373.912 672.61 369.892 671.354 365.622C670.098 361.352 668.842 357.835 667.461 354.192C666.079 350.55 664.698 346.907 663.316 343.642C661.934 340.376 660.553 337.613 658.794 334.599Z" fill="#DBDFE4"/>
<path d="M716.992 406.693V326.56H723.648L767.232 385.844V326.56H777.28V406.693H770.623L727.291 347.159V406.442L716.992 406.693Z" fill="#DBDFE4"/>
<path d="M827.313 406.693V335.227H802.193V326.56H862.482V335.227H837.361V406.693H827.313Z" fill="#DBDFE4"/>
<path d="M887.395 406.693V326.56H897.443V359.719H936.756V326.56H947.055V406.693H937.133V369.013H897.443V406.693H887.395Z" fill="#DBDFE4"/>
<path d="M971.984 384.33V326.051H1017.2V334.718H982.158V359.838H1013.81V368.755H982.158V385.837C982.088 387.659 982.3 389.481 982.786 391.238C983.239 392.624 983.965 393.905 984.921 395.006C985.93 395.895 987.075 396.615 988.313 397.141C989.805 397.666 991.378 397.922 992.96 397.895H1017.2V406.687H993.713C990.528 406.752 987.351 406.329 984.293 405.431C981.746 404.647 979.422 403.269 977.511 401.412C975.647 399.484 974.231 397.168 973.366 394.629C972.339 391.296 971.872 387.816 971.984 384.33ZM988.313 317.51V315.878L998.737 300.805H1009.16V302.438L994.216 317.51H988.313Z" fill="#DBDFE4"/>
<path d="M1042.11 369.83V363.299C1042.19 358.034 1043.13 352.817 1044.88 347.85C1046.09 343.516 1048.28 339.519 1051.28 336.169C1054.11 332.869 1057.75 330.359 1061.83 328.884C1066.39 327.093 1071.26 326.239 1076.15 326.372C1081.03 326.263 1085.89 327.073 1090.47 328.759C1094.47 330.278 1098.04 332.733 1100.9 335.918C1103.87 339.263 1106.09 343.202 1107.43 347.473C1108.9 352.618 1109.62 357.948 1109.56 363.299V369.83C1109.6 375.056 1108.88 380.26 1107.43 385.279C1106.07 389.576 1103.84 393.551 1100.9 396.96C1098.02 400.146 1094.45 402.636 1090.47 404.245C1081.16 407.51 1071.02 407.51 1061.71 404.245C1057.71 402.726 1054.14 400.271 1051.28 397.086C1048.31 393.765 1046.12 389.815 1044.88 385.53C1043.14 380.473 1042.21 375.176 1042.11 369.83ZM1052.16 369.83C1052.09 374.066 1052.6 378.292 1053.67 382.39C1054.52 385.592 1056.01 388.585 1058.07 391.182C1060.02 393.484 1062.53 395.255 1065.35 396.332C1068.65 397.502 1072.15 398.056 1075.65 397.965C1079.15 398.047 1082.64 397.494 1085.95 396.332C1088.75 395.223 1091.25 393.457 1093.23 391.182C1095.25 388.576 1096.7 385.583 1097.5 382.39C1098.58 378.292 1099.08 374.066 1099.01 369.83V363.299C1099.07 359.064 1098.56 354.84 1097.5 350.739C1096.7 347.584 1095.25 344.632 1093.23 342.072C1091.29 339.758 1088.78 337.985 1085.95 336.923C1082.65 335.718 1079.16 335.123 1075.65 335.164C1072.14 335.111 1068.65 335.707 1065.35 336.923C1062.5 337.953 1059.99 339.732 1058.07 342.072C1056.01 344.623 1054.51 347.575 1053.67 350.739C1052.61 354.84 1052.1 359.064 1052.16 363.299V369.83Z" fill="#DBDFE4"/>
<path d="M1134.48 406.693V326.56H1141.13L1184.72 385.844V326.56H1194.64V406.693H1187.61L1144.53 347.159V406.442L1134.48 406.693Z" fill="#DBDFE4"/>
<path d="M823.388 166.799L872.346 254.09H900.21V107.912H914.251V89.082H860.699V107.912H879.203V219.151L878.332 224.376L823.388 125.523V166.799Z" fill="#DBDFE4"/>
<path d="M1053.57 89.082H935.367V107.912H951.04V235.369H935.367V254.09H1053.57V207.505H1031.26V235.369H972.374V179.423H1021.9V160.702H972.374V107.912H1031.26V135.776H1053.57V89.082Z" fill="#DBDFE4"/>
<path d="M792.04 88.8642H725.985V107.912H770.794V235.369H726.42V254.09H835.128V235.369H792.127V179.423H792.04V88.8642Z" fill="#4392B2"/>
<path d="M635.426 61H614.528V172.457H635.426V61Z" fill="white"/>
<path d="M664.053 119.232C661.609 116.516 658.974 114.094 656.149 111.966L666.823 93.4779C672.111 96.9765 676.884 101.098 681.141 105.844C688.107 113.536 693.513 122.606 697.359 133.055C701.205 143.504 703.128 154.679 703.128 166.579C703.128 178.479 701.169 189.654 697.25 200.103C693.404 210.48 687.962 219.55 680.923 227.314C673.957 235.079 665.613 241.21 655.889 245.709C646.238 250.135 635.608 252.348 623.998 252.348C612.605 252.348 602.193 250.244 592.759 246.036C583.326 241.754 574.909 235.695 567.508 227.858C560.106 220.022 554.483 210.734 550.637 199.994C546.791 189.255 544.868 178.117 544.868 166.579C544.868 154.679 546.791 143.504 550.637 133.055C554.555 122.606 559.997 113.536 566.963 105.844C570.934 101.464 575.32 97.6153 580.122 94.2976L590.717 112.648C587.724 115.043 584.995 117.745 582.528 120.756C577.594 126.706 573.784 133.672 571.099 141.654C568.415 149.563 567.072 157.872 567.072 166.579C567.072 176.738 568.56 185.808 571.535 193.79C574.51 201.7 578.428 208.303 583.29 213.6C588.224 218.824 594.066 223.214 600.814 226.77C607.635 230.326 615.363 232.103 623.998 232.103C632.633 232.103 640.433 230.326 647.399 226.77C654.438 223.214 660.424 218.462 665.359 212.511C670.293 206.489 674.103 199.523 676.787 191.613C679.472 183.704 680.815 175.359 680.815 166.579C680.815 157.581 679.327 148.91 676.352 140.565C673.449 132.148 669.35 125.037 664.053 119.232Z" fill="white"/>
<g clip-path="url(#clip0_494_4897)">
<rect x="171.145" y="120.173" width="218.005" height="99.6594" fill="white"/>
<path d="M166.366 70.3423C162.349 70.3423 159.637 92.6016 157.863 113.93C156.872 125.784 154.785 159.64 155.88 196.55C157.982 224.615 159.084 255.72 166.784 281.655C182.695 334.82 229.229 349.366 245.975 353.559C256.939 356.013 267.982 357.184 280.145 356.768C293.427 357.183 303.092 355.434 314.315 353.559C331.009 349.366 377.543 334.82 393.506 281.655C400.785 254.527 404.109 225.011 404.41 196.55C405.505 159.588 403.418 125.784 402.427 113.93C400.653 92.5499 397.941 70.3423 393.924 70.3423C389.907 70.3423 374.622 74.328 355.789 96.5877C330.696 81.4717 280.145 80.5917 280.145 80.5917C280.145 80.5917 229.594 81.4719 204.501 96.5877C185.669 74.3279 170.434 70.3423 166.365 70.3423H166.366ZM219.526 129.253C242.688 129.253 261.469 147.889 261.469 170.874C261.469 193.858 242.688 212.495 219.526 212.495C196.363 212.495 177.582 193.858 177.582 170.874C177.582 147.889 196.363 129.253 219.526 129.253ZM340.764 129.253C363.927 129.253 382.708 147.889 382.708 170.874C382.708 193.858 363.927 212.495 340.764 212.495C317.602 212.495 298.821 193.858 298.821 170.874C298.821 147.889 317.602 129.253 340.764 129.253ZM280.119 170.545C281.136 170.538 282.153 170.641 283.17 170.874C286.927 171.703 292.822 173.411 292.822 176.207C292.822 179.468 289.588 189.562 284.58 198.57C283.693 200.174 281.971 201.158 280.145 201.158C278.319 201.158 276.598 200.174 275.711 198.57C270.651 189.562 267.468 179.468 267.468 176.207C267.468 173.411 273.311 171.703 277.067 170.874C278.084 170.667 279.102 170.551 280.119 170.545Z" fill="#4392B2"/>
<path d="M225.738 151.823C210.609 151.823 198.35 163.989 198.35 179.001C198.35 194.014 210.609 206.179 225.738 206.179C240.867 206.179 253.126 194.014 253.126 179.001C253.126 163.989 240.867 151.823 225.738 151.823ZM214.887 173.151C211.34 173.151 208.418 170.304 208.418 166.732C208.418 163.212 211.287 160.313 214.887 160.313C218.435 160.313 221.356 163.16 221.356 166.732C221.304 170.304 218.435 173.151 214.887 173.151Z" fill="#4392B2"/>
<path d="M332.891 151.823C317.763 151.823 305.503 163.989 305.503 179.001C305.503 194.014 317.763 206.179 332.891 206.179C348.02 206.179 360.28 194.014 360.28 179.001C360.228 163.989 348.02 151.823 332.891 151.823ZM320.893 173.151C317.345 173.151 314.424 170.304 314.424 166.732C314.424 163.212 317.293 160.313 320.893 160.313C324.44 160.313 327.362 163.16 327.362 166.732C327.309 170.304 324.44 173.151 320.893 173.151Z" fill="#4392B2"/>
</g>
<path d="M432.759 394.84L282.653 394.85L282.653 394.84L280.148 394.84L127.544 394.83L127.533 394.83C125.607 394.838 124.805 394.394 124.311 393.868C123.694 393.211 123.127 391.978 122.622 389.531L105.138 219.204C105.372 215.948 106.012 214.085 107.095 212.846C108.179 211.607 110.067 210.583 113.763 209.875H446.542C450.237 210.583 452.126 211.607 453.21 212.846C454.293 214.085 454.933 215.948 455.167 219.205L437.682 389.541C437.177 391.988 436.61 393.221 435.993 393.879C435.499 394.404 434.697 394.849 432.77 394.84H432.759Z" fill="#224E5E" stroke="white" stroke-width="5"/>
<path d="M120.5 381.779L438.98 381.779" stroke="white" stroke-width="5"/>
<ellipse cx="280.148" cy="303.92" rx="28.0292" ry="24.9148" fill="#4392B2"/>
<path d="M273.166 315.146L283.861 291.356C284.041 290.959 284.373 290.642 284.79 290.47C285.207 290.298 285.677 290.284 286.104 290.431C286.532 290.577 286.884 290.874 287.09 291.26C287.296 291.645 287.339 292.091 287.211 292.507L287.14 292.693L276.445 316.483C276.265 316.88 275.933 317.198 275.516 317.37C275.099 317.542 274.629 317.556 274.202 317.409C273.774 317.262 273.422 316.966 273.216 316.58C273.011 316.194 272.967 315.748 273.095 315.333L273.166 315.146ZM262.833 302.715L269.968 295.919C270.289 295.615 270.72 295.438 271.173 295.425C271.626 295.411 272.067 295.563 272.407 295.848C272.747 296.134 272.96 296.532 273.003 296.962C273.046 297.391 272.916 297.82 272.638 298.162L272.49 298.321L266.617 303.916L272.49 309.51C272.814 309.815 273.002 310.226 273.018 310.659C273.033 311.092 272.874 311.514 272.573 311.84C272.272 312.165 271.852 312.368 271.399 312.408C270.946 312.448 270.494 312.322 270.136 312.054L269.968 311.912L262.833 305.117C262.526 304.824 262.342 304.435 262.314 304.022C262.287 303.609 262.419 303.201 262.685 302.874L262.833 302.715ZM287.805 295.918C288.112 295.625 288.521 295.45 288.954 295.424C289.388 295.398 289.816 295.523 290.16 295.777L290.326 295.918L297.462 302.715C297.769 303.007 297.954 303.396 297.981 303.809C298.008 304.222 297.876 304.63 297.61 304.957L297.462 305.118L290.326 311.905C290.005 312.21 289.574 312.386 289.121 312.4C288.668 312.413 288.227 312.261 287.887 311.976C287.547 311.69 287.334 311.292 287.291 310.863C287.248 310.433 287.378 310.004 287.655 309.663L287.805 309.501L293.675 303.916L287.802 298.32C287.467 298.001 287.279 297.569 287.279 297.119C287.279 296.668 287.467 296.236 287.802 295.918H287.805Z" fill="white"/>
<defs>
<clipPath id="clip0_494_4897">
<rect width="249.148" height="286.521" fill="white" transform="translate(155.573 70.3431)"/>
</clipPath>
</defs>
</svg>
