<svg width="1280" height="560" viewBox="0 0 1280 560" fill="none" xmlns="http://www.w3.org/2000/svg">
<path d="M82 497.01V462.229H103.776V466.913H87.5809V477.028H103.178V481.712H87.5809V492.326H103.776V497.01H82Z" fill="#DBDFE4"/>
<path d="M112.377 497.01V462.229H134.75V466.913H117.958V477.028H133.205V481.712H117.958V497.01H112.377Z" fill="#DBDFE4"/>
<path d="M148.185 497.01H142.654V462.229H155.659C158.981 462.229 161.506 463.159 163.233 465.019C164.994 466.879 165.874 469.437 165.874 472.693C165.874 475.35 165.226 477.543 163.931 479.27C162.635 480.998 160.775 482.061 158.35 482.459L166.373 497.01H160.194L152.819 482.958H148.185V497.01ZM154.862 478.473C158.317 478.473 160.044 476.895 160.044 473.739V471.597C160.044 468.441 158.317 466.863 154.862 466.863H148.185V478.473H154.862Z" fill="#DBDFE4"/>
<path d="M173.13 497.01V462.229H194.906V466.913H178.711V477.028H194.308V481.712H178.711V492.326H194.906V497.01H173.13Z" fill="#DBDFE4"/>
<path d="M203.208 497.01V492.774H211.38V466.464H203.208V462.229H225.133V466.464H216.961V492.774H225.133V497.01H203.208Z" fill="#DBDFE4"/>
<path d="M264.16 497.01V462.229H277.166C280.488 462.229 283.012 463.159 284.74 465.019C286.501 466.879 287.381 469.437 287.381 472.693C287.381 475.948 286.501 478.506 284.74 480.367C283.012 482.227 280.488 483.157 277.166 483.157H269.741V497.01H264.16ZM269.741 478.523H276.319C279.773 478.523 281.501 476.928 281.501 473.739V471.597C281.501 468.441 279.773 466.863 276.319 466.863H269.741V478.523Z" fill="#DBDFE4"/>
<path d="M314.867 497.01C313.306 497.01 312.127 496.611 311.329 495.814C310.565 495.017 310.1 493.97 309.934 492.675H309.685C309.187 494.236 308.273 495.448 306.944 496.312C305.649 497.176 303.988 497.608 301.961 497.608C299.337 497.608 297.244 496.927 295.683 495.565C294.122 494.169 293.341 492.259 293.341 489.834C293.341 487.343 294.254 485.449 296.082 484.154C297.942 482.825 300.782 482.16 304.602 482.16H309.536V480.167C309.536 476.679 307.692 474.935 304.005 474.935C302.344 474.935 300.998 475.267 299.968 475.932C298.938 476.563 298.075 477.41 297.377 478.473L294.138 475.832C294.869 474.437 296.098 473.241 297.826 472.244C299.553 471.215 301.779 470.7 304.503 470.7C307.758 470.7 310.316 471.48 312.177 473.042C314.037 474.603 314.967 476.862 314.967 479.818V492.724H318.206V497.01H314.867ZM303.506 493.621C305.267 493.621 306.712 493.223 307.841 492.425C308.971 491.628 309.536 490.598 309.536 489.336V485.599H304.702C300.782 485.599 298.822 486.778 298.822 489.137V490.133C298.822 491.296 299.237 492.176 300.068 492.774C300.898 493.339 302.045 493.621 303.506 493.621Z" fill="#DBDFE4"/>
<path d="M324.515 492.625H331.342V475.683H324.515V471.298H336.773V478.124H337.072C337.304 477.227 337.637 476.364 338.069 475.533C338.5 474.703 339.049 473.988 339.713 473.39C340.377 472.759 341.191 472.261 342.155 471.896C343.118 471.497 344.247 471.298 345.543 471.298H348.632V476.48H343.55C341.557 476.48 339.929 477.078 338.666 478.274C337.404 479.436 336.773 481.014 336.773 483.008V492.625H346.091V497.01H324.515V492.625Z" fill="#DBDFE4"/>
<path d="M367.648 466.614C366.253 466.614 365.273 466.331 364.708 465.766C364.176 465.202 363.911 464.504 363.911 463.674V462.627C363.911 461.797 364.176 461.099 364.708 460.534C365.273 459.97 366.236 459.687 367.598 459.687C368.993 459.687 369.957 459.97 370.488 460.534C371.053 461.099 371.335 461.797 371.335 462.627V463.674C371.335 464.504 371.053 465.202 370.488 465.766C369.957 466.331 369.01 466.614 367.648 466.614ZM356.137 492.625H364.907V475.683H356.137V471.298H370.339V492.625H378.561V497.01H356.137V492.625Z" fill="#DBDFE4"/>
<path d="M396.48 497.608C393.689 497.608 391.281 497.159 389.255 496.262C387.261 495.365 385.65 494.169 384.421 492.675L387.76 489.685C388.889 490.914 390.151 491.861 391.547 492.525C392.975 493.156 394.653 493.472 396.579 493.472C398.34 493.472 399.752 493.173 400.815 492.575C401.911 491.977 402.459 491.047 402.459 489.784C402.459 489.253 402.36 488.804 402.16 488.439C401.961 488.074 401.679 487.775 401.313 487.542C400.948 487.31 400.516 487.127 400.018 486.994C399.553 486.861 399.054 486.761 398.523 486.695L394.437 486.047C393.44 485.914 392.427 485.698 391.397 485.399C390.367 485.1 389.437 484.685 388.607 484.154C387.809 483.589 387.145 482.875 386.614 482.011C386.115 481.147 385.866 480.051 385.866 478.722C385.866 476.098 386.863 474.105 388.856 472.743C390.882 471.381 393.54 470.7 396.829 470.7C399.22 470.7 401.28 471.065 403.008 471.796C404.768 472.493 406.23 473.473 407.393 474.736L404.353 477.925C403.689 477.161 402.742 476.463 401.513 475.832C400.283 475.168 398.656 474.835 396.629 474.835C393.008 474.835 391.198 475.982 391.198 478.274C391.198 479.37 391.58 480.134 392.344 480.566C393.141 480.965 394.071 481.23 395.134 481.363L399.22 482.011C400.25 482.177 401.263 482.393 402.26 482.659C403.29 482.925 404.203 483.34 405.001 483.904C405.831 484.436 406.496 485.134 406.994 485.997C407.525 486.861 407.791 487.957 407.791 489.286C407.791 491.877 406.778 493.92 404.752 495.415C402.758 496.877 400.001 497.608 396.48 497.608Z" fill="#DBDFE4"/>
<path d="M446.42 497.01V462.229H459.426C462.748 462.229 465.272 463.159 467 465.019C468.76 466.879 469.641 469.437 469.641 472.693C469.641 475.948 468.76 478.506 467 480.367C465.272 482.227 462.748 483.157 459.426 483.157H452.001V497.01H446.42ZM452.001 478.523H458.578C462.033 478.523 463.761 476.928 463.761 473.739V471.597C463.761 468.441 462.033 466.863 458.578 466.863H452.001V478.523Z" fill="#DBDFE4"/>
<path d="M497.127 497.01C495.566 497.01 494.387 496.611 493.589 495.814C492.825 495.017 492.36 493.97 492.194 492.675H491.945C491.447 494.236 490.533 495.448 489.204 496.312C487.909 497.176 486.248 497.608 484.221 497.608C481.597 497.608 479.504 496.927 477.943 495.565C476.381 494.169 475.601 492.259 475.601 489.834C475.601 487.343 476.514 485.449 478.341 484.154C480.202 482.825 483.042 482.16 486.862 482.16H491.795V480.167C491.795 476.679 489.952 474.935 486.264 474.935C484.603 474.935 483.258 475.267 482.228 475.932C481.198 476.563 480.335 477.41 479.637 478.473L476.398 475.832C477.129 474.437 478.358 473.241 480.085 472.244C481.813 471.215 484.039 470.7 486.763 470.7C490.018 470.7 492.576 471.48 494.436 473.042C496.297 474.603 497.227 476.862 497.227 479.818V492.724H500.466V497.01H497.127ZM485.766 493.621C487.527 493.621 488.972 493.223 490.101 492.425C491.231 491.628 491.795 490.598 491.795 489.336V485.599H486.962C483.042 485.599 481.082 486.778 481.082 489.137V490.133C481.082 491.296 481.497 492.176 482.328 492.774C483.158 493.339 484.304 493.621 485.766 493.621Z" fill="#DBDFE4"/>
<path d="M507.173 497.01V471.298H512.605V475.683H512.854C513.12 475.018 513.452 474.387 513.851 473.789C514.282 473.158 514.797 472.626 515.395 472.195C515.993 471.729 516.691 471.364 517.488 471.098C518.285 470.833 519.216 470.7 520.279 470.7C522.87 470.7 524.963 471.547 526.557 473.241C528.152 474.935 528.949 477.344 528.949 480.466V497.01H523.517V481.264C523.517 477.177 521.74 475.134 518.186 475.134C517.488 475.134 516.807 475.234 516.143 475.433C515.478 475.6 514.88 475.865 514.349 476.231C513.817 476.596 513.385 477.061 513.053 477.626C512.754 478.191 512.605 478.838 512.605 479.569V497.01H507.173Z" fill="#DBDFE4"/>
<path d="M549.858 497.01C547.599 497.01 545.938 496.412 544.875 495.216C543.812 493.987 543.28 492.409 543.28 490.482V475.683H535.357V471.298H540.988C541.952 471.298 542.633 471.115 543.031 470.749C543.43 470.351 543.629 469.653 543.629 468.657V462.229H548.712V471.298H559.674V475.683H548.712V492.625H559.674V497.01H549.858Z" fill="#DBDFE4"/>
<path d="M567.927 460.136H573.358V475.683H573.607C573.873 475.018 574.205 474.387 574.604 473.789C575.036 473.158 575.551 472.626 576.148 472.195C576.746 471.729 577.444 471.364 578.241 471.098C579.039 470.833 579.969 470.7 581.032 470.7C583.623 470.7 585.716 471.547 587.31 473.241C588.905 474.935 589.702 477.344 589.702 480.466V497.01H584.271V481.264C584.271 477.177 582.493 475.134 578.939 475.134C578.241 475.134 577.56 475.234 576.896 475.433C576.232 475.6 575.634 475.865 575.102 476.231C574.571 476.596 574.139 477.061 573.806 477.626C573.508 478.191 573.358 478.838 573.358 479.569V497.01H567.927V460.136Z" fill="#DBDFE4"/>
<path d="M609.664 468.158L606.326 466.564L610.86 457.594L615.544 459.887L609.664 468.158ZM609.615 497.608C607.655 497.608 605.894 497.292 604.333 496.661C602.771 496.03 601.459 495.133 600.396 493.97C599.333 492.807 598.519 491.412 597.954 489.784C597.39 488.123 597.107 486.263 597.107 484.203C597.107 482.144 597.39 480.284 597.954 478.623C598.552 476.962 599.366 475.55 600.396 474.387C601.459 473.191 602.738 472.278 604.233 471.646C605.728 471.015 607.389 470.7 609.216 470.7C611.01 470.7 612.638 471.015 614.099 471.646C615.561 472.244 616.807 473.108 617.836 474.238C618.866 475.367 619.647 476.712 620.178 478.274C620.743 479.835 621.026 481.562 621.026 483.456V485.499H602.589V486.346C602.589 488.373 603.22 490.034 604.482 491.329C605.745 492.591 607.489 493.223 609.714 493.223C611.375 493.223 612.787 492.874 613.95 492.176C615.146 491.445 616.109 490.482 616.84 489.286L620.228 492.276C619.365 493.771 618.036 495.033 616.242 496.063C614.481 497.093 612.272 497.608 609.615 497.608ZM609.216 474.835C608.253 474.835 607.356 475.002 606.525 475.334C605.728 475.666 605.03 476.148 604.432 476.779C603.868 477.377 603.419 478.091 603.087 478.922C602.755 479.752 602.589 480.666 602.589 481.662V482.011H615.495V481.513C615.495 479.486 614.913 477.875 613.75 476.679C612.621 475.45 611.109 474.835 609.216 474.835Z" fill="#DBDFE4"/>
<path d="M639.443 497.608C637.55 497.608 635.839 497.292 634.311 496.661C632.816 496.03 631.537 495.133 630.474 493.97C629.444 492.807 628.647 491.396 628.082 489.735C627.517 488.074 627.235 486.213 627.235 484.154C627.235 482.094 627.517 480.234 628.082 478.573C628.647 476.912 629.444 475.5 630.474 474.337C631.537 473.175 632.816 472.278 634.311 471.646C635.839 471.015 637.55 470.7 639.443 470.7C641.337 470.7 643.031 471.015 644.526 471.646C646.054 472.278 647.333 473.175 648.363 474.337C649.426 475.5 650.24 476.912 650.804 478.573C651.369 480.234 651.651 482.094 651.651 484.154C651.651 486.213 651.369 488.074 650.804 489.735C650.24 491.396 649.426 492.807 648.363 493.97C647.333 495.133 646.054 496.03 644.526 496.661C643.031 497.292 641.337 497.608 639.443 497.608ZM639.443 493.322C641.436 493.322 643.014 492.724 644.177 491.528C645.373 490.299 645.971 488.489 645.971 486.097V482.21C645.971 479.818 645.373 478.025 644.177 476.829C643.014 475.6 641.436 474.985 639.443 474.985C637.45 474.985 635.855 475.6 634.659 476.829C633.497 478.025 632.915 479.818 632.915 482.21V486.097C632.915 488.489 633.497 490.299 634.659 491.528C635.855 492.724 637.45 493.322 639.443 493.322Z" fill="#DBDFE4"/>
<path d="M659.057 497.01V471.298H664.488V475.683H664.737C665.003 475.018 665.335 474.387 665.734 473.789C666.166 473.158 666.68 472.626 667.278 472.195C667.876 471.729 668.574 471.364 669.371 471.098C670.169 470.833 671.099 470.7 672.162 470.7C674.753 470.7 676.846 471.547 678.44 473.241C680.035 474.935 680.832 477.344 680.832 480.466V497.01H675.401V481.264C675.401 477.177 673.623 475.134 670.069 475.134C669.371 475.134 668.69 475.234 668.026 475.433C667.361 475.6 666.763 475.865 666.232 476.231C665.7 476.596 665.269 477.061 664.936 477.626C664.637 478.191 664.488 478.838 664.488 479.569V497.01H659.057Z" fill="#DBDFE4"/>
<path d="M692.672 484.552V479.121H707.721V484.552H692.672Z" fill="#DBDFE4"/>
<path d="M738.645 497.01L736.005 487.741H724.942L722.301 497.01H716.621L726.786 462.229H734.41L744.575 497.01H738.645ZM730.673 467.859H730.274L725.989 483.107H734.958L730.673 467.859Z" fill="#DBDFE4"/>
<path d="M761 497.608C758.209 497.608 755.801 497.159 753.774 496.262C751.781 495.365 750.17 494.169 748.941 492.675L752.279 489.685C753.409 490.914 754.671 491.861 756.066 492.525C757.495 493.156 759.172 493.472 761.099 493.472C762.86 493.472 764.272 493.173 765.335 492.575C766.431 491.977 766.979 491.047 766.979 489.784C766.979 489.253 766.879 488.804 766.68 488.439C766.481 488.074 766.198 487.775 765.833 487.542C765.468 487.31 765.036 487.127 764.537 486.994C764.072 486.861 763.574 486.761 763.043 486.695L758.957 486.047C757.96 485.914 756.947 485.698 755.917 485.399C754.887 485.1 753.957 484.685 753.126 484.154C752.329 483.589 751.665 482.875 751.133 482.011C750.635 481.147 750.386 480.051 750.386 478.722C750.386 476.098 751.382 474.105 753.376 472.743C755.402 471.381 758.06 470.7 761.348 470.7C763.74 470.7 765.8 471.065 767.527 471.796C769.288 472.493 770.75 473.473 771.912 474.736L768.873 477.925C768.208 477.161 767.261 476.463 766.032 475.832C764.803 475.168 763.175 474.835 761.149 474.835C757.528 474.835 755.718 475.982 755.718 478.274C755.718 479.37 756.1 480.134 756.864 480.566C757.661 480.965 758.591 481.23 759.654 481.363L763.74 482.011C764.77 482.177 765.783 482.393 766.78 482.659C767.81 482.925 768.723 483.34 769.52 483.904C770.351 484.436 771.015 485.134 771.514 485.997C772.045 486.861 772.311 487.957 772.311 489.286C772.311 491.877 771.298 493.92 769.271 495.415C767.278 496.877 764.521 497.608 761 497.608Z" fill="#DBDFE4"/>
<path d="M791.376 497.608C788.586 497.608 786.177 497.159 784.151 496.262C782.158 495.365 780.547 494.169 779.317 492.675L782.656 489.685C783.785 490.914 785.048 491.861 786.443 492.525C787.871 493.156 789.549 493.472 791.476 493.472C793.236 493.472 794.648 493.173 795.711 492.575C796.808 491.977 797.356 491.047 797.356 489.784C797.356 489.253 797.256 488.804 797.057 488.439C796.857 488.074 796.575 487.775 796.21 487.542C795.844 487.31 795.412 487.127 794.914 486.994C794.449 486.861 793.951 486.761 793.419 486.695L789.333 486.047C788.337 485.914 787.323 485.698 786.294 485.399C785.264 485.1 784.333 484.685 783.503 484.154C782.706 483.589 782.041 482.875 781.51 482.011C781.012 481.147 780.762 480.051 780.762 478.722C780.762 476.098 781.759 474.105 783.752 472.743C785.779 471.381 788.436 470.7 791.725 470.7C794.117 470.7 796.176 471.065 797.904 471.796C799.664 472.493 801.126 473.473 802.289 474.736L799.249 477.925C798.585 477.161 797.638 476.463 796.409 475.832C795.18 475.168 793.552 474.835 791.526 474.835C787.905 474.835 786.094 475.982 786.094 478.274C786.094 479.37 786.476 480.134 787.24 480.566C788.038 480.965 788.968 481.23 790.031 481.363L794.117 482.011C795.147 482.177 796.16 482.393 797.156 482.659C798.186 482.925 799.1 483.34 799.897 483.904C800.728 484.436 801.392 485.134 801.89 485.997C802.422 486.861 802.687 487.957 802.687 489.286C802.687 491.877 801.674 493.92 799.648 495.415C797.655 496.877 794.897 497.608 791.376 497.608Z" fill="#DBDFE4"/>
<path d="M831.27 497.01C829.709 497.01 828.53 496.611 827.732 495.814C826.968 495.017 826.503 493.97 826.337 492.675H826.088C825.59 494.236 824.676 495.448 823.347 496.312C822.052 497.176 820.391 497.608 818.364 497.608C815.74 497.608 813.647 496.927 812.086 495.565C810.525 494.169 809.744 492.259 809.744 489.834C809.744 487.343 810.657 485.449 812.484 484.154C814.345 482.825 817.185 482.16 821.005 482.16H825.938V480.167C825.938 476.679 824.095 474.935 820.407 474.935C818.746 474.935 817.401 475.267 816.371 475.932C815.341 476.563 814.478 477.41 813.78 478.473L810.541 475.832C811.272 474.437 812.501 473.241 814.229 472.244C815.956 471.215 818.182 470.7 820.906 470.7C824.161 470.7 826.719 471.48 828.579 473.042C830.44 474.603 831.37 476.862 831.37 479.818V492.724H834.609V497.01H831.27ZM819.909 493.621C821.67 493.621 823.115 493.223 824.244 492.425C825.374 491.628 825.938 490.598 825.938 489.336V485.599H821.105C817.185 485.599 815.225 486.778 815.225 489.137V490.133C815.225 491.296 815.64 492.176 816.471 492.774C817.301 493.339 818.447 493.621 819.909 493.621Z" fill="#DBDFE4"/>
<path d="M852.129 497.608C849.339 497.608 846.931 497.159 844.904 496.262C842.911 495.365 841.3 494.169 840.071 492.675L843.409 489.685C844.539 490.914 845.801 491.861 847.196 492.525C848.625 493.156 850.302 493.472 852.229 493.472C853.99 493.472 855.402 493.173 856.465 492.575C857.561 491.977 858.109 491.047 858.109 489.784C858.109 489.253 858.009 488.804 857.81 488.439C857.611 488.074 857.328 487.775 856.963 487.542C856.597 487.31 856.166 487.127 855.667 486.994C855.202 486.861 854.704 486.761 854.172 486.695L850.086 486.047C849.09 485.914 848.077 485.698 847.047 485.399C846.017 485.1 845.087 484.685 844.256 484.154C843.459 483.589 842.795 482.875 842.263 482.011C841.765 481.147 841.516 480.051 841.516 478.722C841.516 476.098 842.512 474.105 844.505 472.743C846.532 471.381 849.189 470.7 852.478 470.7C854.87 470.7 856.93 471.065 858.657 471.796C860.418 472.493 861.879 473.473 863.042 474.736L860.003 477.925C859.338 477.161 858.391 476.463 857.162 475.832C855.933 475.168 854.305 474.835 852.279 474.835C848.658 474.835 846.847 475.982 846.847 478.274C846.847 479.37 847.23 480.134 847.994 480.566C848.791 480.965 849.721 481.23 850.784 481.363L854.87 482.011C855.9 482.177 856.913 482.393 857.91 482.659C858.94 482.925 859.853 483.34 860.65 483.904C861.481 484.436 862.145 485.134 862.643 485.997C863.175 486.861 863.441 487.957 863.441 489.286C863.441 491.877 862.428 493.92 860.401 495.415C858.408 496.877 855.651 497.608 852.129 497.608Z" fill="#DBDFE4"/>
<path d="M918.165 492.625H917.916C917.65 493.289 917.301 493.937 916.869 494.568C916.471 495.166 915.972 495.698 915.374 496.163C914.776 496.594 914.079 496.943 913.281 497.209C912.484 497.475 911.554 497.608 910.491 497.608C907.9 497.608 905.807 496.761 904.212 495.066C902.618 493.372 901.821 490.964 901.821 487.841V471.298H907.252V487.044C907.252 491.13 909.029 493.173 912.584 493.173C913.281 493.173 913.962 493.09 914.627 492.924C915.291 492.724 915.889 492.442 916.421 492.077C916.952 491.711 917.367 491.263 917.666 490.731C917.999 490.166 918.165 489.502 918.165 488.738V471.298H923.596V497.01H918.165V492.625Z" fill="#DBDFE4"/>
<path d="M932.446 497.01V471.298H937.878V475.683H938.127C938.393 475.018 938.725 474.387 939.124 473.789C939.555 473.158 940.07 472.626 940.668 472.195C941.266 471.729 941.964 471.364 942.761 471.098C943.558 470.833 944.489 470.7 945.552 470.7C948.143 470.7 950.236 471.547 951.83 473.241C953.425 474.935 954.222 477.344 954.222 480.466V497.01H948.791V481.264C948.791 477.177 947.013 475.134 943.459 475.134C942.761 475.134 942.08 475.234 941.416 475.433C940.751 475.6 940.153 475.865 939.622 476.231C939.09 476.596 938.658 477.061 938.326 477.626C938.027 478.191 937.878 478.838 937.878 479.569V497.01H932.446Z" fill="#DBDFE4"/>
<path d="M975.181 466.614C973.786 466.614 972.806 466.331 972.241 465.766C971.709 465.202 971.444 464.504 971.444 463.674V462.627C971.444 461.797 971.709 461.099 972.241 460.534C972.806 459.97 973.769 459.687 975.131 459.687C976.526 459.687 977.49 459.97 978.021 460.534C978.586 461.099 978.868 461.797 978.868 462.627V463.674C978.868 464.504 978.586 465.202 978.021 465.766C977.49 466.331 976.543 466.614 975.181 466.614ZM963.67 492.625H972.44V475.683H963.67V471.298H977.872V492.625H986.094V497.01H963.67V492.625Z" fill="#DBDFE4"/>
<path d="M1000.62 497.01L991.406 471.298H997.036L1000.57 482.16L1003.91 492.475H1004.21L1007.55 482.16L1011.09 471.298H1016.52L1007.3 497.01H1000.62Z" fill="#DBDFE4"/>
<path d="M1034.89 497.608C1032.93 497.608 1031.17 497.292 1029.61 496.661C1028.04 496.03 1026.73 495.133 1025.67 493.97C1024.61 492.807 1023.79 491.412 1023.23 489.784C1022.66 488.123 1022.38 486.263 1022.38 484.203C1022.38 482.144 1022.66 480.284 1023.23 478.623C1023.83 476.962 1024.64 475.55 1025.67 474.387C1026.73 473.191 1028.01 472.278 1029.51 471.646C1031 471.015 1032.66 470.7 1034.49 470.7C1036.28 470.7 1037.91 471.015 1039.37 471.646C1040.83 472.244 1042.08 473.108 1043.11 474.238C1044.14 475.367 1044.92 476.712 1045.45 478.274C1046.02 479.835 1046.3 481.562 1046.3 483.456V485.499H1027.86V486.346C1027.86 488.373 1028.49 490.034 1029.76 491.329C1031.02 492.591 1032.76 493.223 1034.99 493.223C1036.65 493.223 1038.06 492.874 1039.22 492.176C1040.42 491.445 1041.38 490.482 1042.11 489.286L1045.5 492.276C1044.64 493.771 1043.31 495.033 1041.51 496.063C1039.75 497.093 1037.55 497.608 1034.89 497.608ZM1034.49 474.835C1033.53 474.835 1032.63 475.002 1031.8 475.334C1031 475.666 1030.3 476.148 1029.71 476.779C1029.14 477.377 1028.69 478.091 1028.36 478.922C1028.03 479.752 1027.86 480.666 1027.86 481.662V482.011H1040.77V481.513C1040.77 479.486 1040.19 477.875 1039.02 476.679C1037.89 475.45 1036.38 474.835 1034.49 474.835Z" fill="#DBDFE4"/>
<path d="M1053.55 492.625H1060.38V475.683H1053.55V471.298H1065.81V478.124H1066.11C1066.34 477.227 1066.68 476.364 1067.11 475.533C1067.54 474.703 1068.09 473.988 1068.75 473.39C1069.42 472.759 1070.23 472.261 1071.19 471.896C1072.16 471.497 1073.29 471.298 1074.58 471.298H1077.67V476.48H1072.59C1070.6 476.48 1068.97 477.078 1067.71 478.274C1066.44 479.436 1065.81 481.014 1065.81 483.008V492.625H1075.13V497.01H1053.55V492.625Z" fill="#DBDFE4"/>
<path d="M1095.14 497.608C1092.35 497.608 1089.94 497.159 1087.92 496.262C1085.92 495.365 1084.31 494.169 1083.08 492.675L1086.42 489.685C1087.55 490.914 1088.81 491.861 1090.21 492.525C1091.64 493.156 1093.32 493.472 1095.24 493.472C1097 493.472 1098.41 493.173 1099.48 492.575C1100.57 491.977 1101.12 491.047 1101.12 489.784C1101.12 489.253 1101.02 488.804 1100.82 488.439C1100.62 488.074 1100.34 487.775 1099.98 487.542C1099.61 487.31 1099.18 487.127 1098.68 486.994C1098.22 486.861 1097.72 486.761 1097.19 486.695L1093.1 486.047C1092.1 485.914 1091.09 485.698 1090.06 485.399C1089.03 485.1 1088.1 484.685 1087.27 484.154C1086.47 483.589 1085.81 482.875 1085.28 482.011C1084.78 481.147 1084.53 480.051 1084.53 478.722C1084.53 476.098 1085.53 474.105 1087.52 472.743C1089.55 471.381 1092.2 470.7 1095.49 470.7C1097.88 470.7 1099.94 471.065 1101.67 471.796C1103.43 472.493 1104.89 473.473 1106.06 474.736L1103.02 477.925C1102.35 477.161 1101.4 476.463 1100.18 475.832C1098.95 475.168 1097.32 474.835 1095.29 474.835C1091.67 474.835 1089.86 475.982 1089.86 478.274C1089.86 479.37 1090.24 480.134 1091.01 480.566C1091.8 480.965 1092.73 481.23 1093.8 481.363L1097.88 482.011C1098.91 482.177 1099.93 482.393 1100.92 482.659C1101.95 482.925 1102.87 483.34 1103.66 483.904C1104.49 484.436 1105.16 485.134 1105.66 485.997C1106.19 486.861 1106.45 487.957 1106.45 489.286C1106.45 491.877 1105.44 493.92 1103.41 495.415C1101.42 496.877 1098.66 497.608 1095.14 497.608Z" fill="#DBDFE4"/>
<path d="M1127.06 466.614C1125.67 466.614 1124.69 466.331 1124.12 465.766C1123.59 465.202 1123.33 464.504 1123.33 463.674V462.627C1123.33 461.797 1123.59 461.099 1124.12 460.534C1124.69 459.97 1125.65 459.687 1127.01 459.687C1128.41 459.687 1129.37 459.97 1129.9 460.534C1130.47 461.099 1130.75 461.797 1130.75 462.627V463.674C1130.75 464.504 1130.47 465.202 1129.9 465.766C1129.37 466.331 1128.43 466.614 1127.06 466.614ZM1115.55 492.625H1124.32V475.683H1115.55V471.298H1129.75V492.625H1137.98V497.01H1115.55V492.625Z" fill="#DBDFE4"/>
<path d="M1157.39 497.01C1155.13 497.01 1153.47 496.412 1152.41 495.216C1151.34 493.987 1150.81 492.409 1150.81 490.482V475.683H1142.89V471.298H1148.52C1149.48 471.298 1150.17 471.115 1150.56 470.749C1150.96 470.351 1151.16 469.653 1151.16 468.657V462.229H1156.24V471.298H1167.21V475.683H1156.24V492.625H1167.21V497.01H1157.39Z" fill="#DBDFE4"/>
<path d="M1186.82 468.158L1183.48 466.564L1188.02 457.594L1192.7 459.887L1186.82 468.158ZM1186.77 497.608C1184.81 497.608 1183.05 497.292 1181.49 496.661C1179.93 496.03 1178.62 495.133 1177.55 493.97C1176.49 492.807 1175.68 491.412 1175.11 489.784C1174.55 488.123 1174.26 486.263 1174.26 484.203C1174.26 482.144 1174.55 480.284 1175.11 478.623C1175.71 476.962 1176.52 475.55 1177.55 474.387C1178.62 473.191 1179.89 472.278 1181.39 471.646C1182.88 471.015 1184.55 470.7 1186.37 470.7C1188.17 470.7 1189.79 471.015 1191.26 471.646C1192.72 472.244 1193.96 473.108 1194.99 474.238C1196.02 475.367 1196.8 476.712 1197.33 478.274C1197.9 479.835 1198.18 481.562 1198.18 483.456V485.499H1179.74V486.346C1179.74 488.373 1180.38 490.034 1181.64 491.329C1182.9 492.591 1184.64 493.223 1186.87 493.223C1188.53 493.223 1189.94 492.874 1191.11 492.176C1192.3 491.445 1193.27 490.482 1194 489.286L1197.38 492.276C1196.52 493.771 1195.19 495.033 1193.4 496.063C1191.64 497.093 1189.43 497.608 1186.77 497.608ZM1186.37 474.835C1185.41 474.835 1184.51 475.002 1183.68 475.334C1182.88 475.666 1182.19 476.148 1181.59 476.779C1181.02 477.377 1180.58 478.091 1180.24 478.922C1179.91 479.752 1179.74 480.666 1179.74 481.662V482.011H1192.65V481.513C1192.65 479.486 1192.07 477.875 1190.91 476.679C1189.78 475.45 1188.27 474.835 1186.37 474.835Z" fill="#DBDFE4"/>
<path d="M551.097 406.693V326.56H576.97C580.639 326.461 584.296 327.014 587.772 328.193C590.63 329.22 593.21 330.897 595.308 333.091C597.331 335.473 598.829 338.255 599.704 341.255C600.722 344.891 601.188 348.66 601.086 352.434C601.13 356.255 600.623 360.062 599.579 363.738C598.531 366.958 596.867 369.944 594.68 372.53C592.485 374.993 589.727 376.889 586.642 378.056C582.975 379.363 579.104 380.001 575.212 379.94H561.019V406.693H551.097ZM561.019 371.148H575.212C577.947 371.252 580.677 370.825 583.25 369.892C585.228 369.1 586.931 367.746 588.149 365.999C589.346 364.264 590.16 362.295 590.535 360.221C590.81 357.633 590.81 355.022 590.535 352.434C590.578 349.818 590.325 347.206 589.782 344.647C589.408 342.726 588.591 340.92 587.395 339.371C586.185 337.952 584.627 336.87 582.874 336.231C580.467 335.529 577.97 335.19 575.463 335.227H560.391L561.019 371.148Z" fill="#DBDFE4"/>
<path d="M626.013 406.693V405.814C627.897 398.404 629.906 390.617 632.167 382.829C634.428 375.042 636.814 367.38 639.326 360.096C641.838 352.811 644.225 346.279 646.486 340.502C648.746 334.724 651.007 329.951 652.766 326.56H665.326C667.735 331.059 669.833 335.717 671.606 340.502C673.992 346.279 676.379 353.062 678.891 360.096C681.403 367.129 683.663 374.916 686.05 382.829C688.436 390.742 690.32 398.404 692.079 405.814V406.693H682.031C682.031 405.94 682.031 404.433 681.026 402.172L679.519 396.52C679.519 395.013 678.765 393.38 678.263 391.747C677.76 390.114 677.509 388.607 677.007 386.974H640.582C640.582 388.607 639.703 390.24 639.326 391.873C638.95 393.505 638.447 395.138 638.07 396.771C637.694 398.404 637.191 400.037 636.814 401.669C636.438 403.302 636.061 404.935 635.684 406.693H626.013ZM658.795 334.599C657.287 337.362 655.906 340.376 654.524 343.642C652.949 347.08 651.565 350.602 650.379 354.192C648.998 357.835 647.742 361.728 646.486 365.622C645.23 369.516 643.974 373.786 642.718 378.182H675.123C673.867 373.912 672.611 369.892 671.355 365.622C670.099 361.352 668.843 357.835 667.461 354.192C666.079 350.55 664.698 346.907 663.316 343.642C661.935 340.376 660.553 337.613 658.795 334.599Z" fill="#DBDFE4"/>
<path d="M716.992 406.693V326.56H723.649L767.232 385.844V326.56H777.28V406.693H770.623L727.291 347.159V406.442L716.992 406.693Z" fill="#DBDFE4"/>
<path d="M827.313 406.693V335.227H802.193V326.56H862.482V335.227H837.361V406.693H827.313Z" fill="#DBDFE4"/>
<path d="M887.395 406.693V326.56H897.443V359.719H936.756V326.56H947.055V406.693H937.133V369.013H897.443V406.693H887.395Z" fill="#DBDFE4"/>
<path d="M971.984 384.33V326.051H1017.2V334.718H982.158V359.838H1013.81V368.755H982.158V385.837C982.088 387.659 982.3 389.481 982.786 391.238C983.239 392.624 983.965 393.905 984.921 395.006C985.93 395.895 987.075 396.615 988.313 397.141C989.805 397.666 991.378 397.922 992.96 397.895H1017.2V406.687H993.713C990.528 406.752 987.351 406.329 984.293 405.431C981.746 404.647 979.422 403.269 977.511 401.412C975.647 399.484 974.231 397.168 973.366 394.629C972.339 391.296 971.872 387.816 971.984 384.33ZM988.313 317.51V315.878L998.737 300.805H1009.16V302.438L994.216 317.51H988.313Z" fill="#DBDFE4"/>
<path d="M1042.11 369.83V363.299C1042.19 358.034 1043.13 352.817 1044.88 347.85C1046.09 343.516 1048.28 339.519 1051.28 336.169C1054.11 332.869 1057.75 330.359 1061.83 328.884C1066.39 327.093 1071.26 326.239 1076.15 326.372C1081.03 326.263 1085.89 327.073 1090.47 328.759C1094.47 330.278 1098.04 332.733 1100.9 335.918C1103.87 339.263 1106.09 343.202 1107.43 347.473C1108.9 352.618 1109.62 357.948 1109.56 363.299V369.83C1109.6 375.056 1108.88 380.26 1107.43 385.279C1106.07 389.576 1103.84 393.551 1100.9 396.96C1098.02 400.146 1094.45 402.636 1090.47 404.245C1081.16 407.51 1071.02 407.51 1061.71 404.245C1057.71 402.726 1054.14 400.271 1051.28 397.086C1048.31 393.765 1046.12 389.815 1044.88 385.53C1043.14 380.473 1042.21 375.176 1042.11 369.83ZM1052.16 369.83C1052.09 374.066 1052.6 378.292 1053.67 382.39C1054.52 385.592 1056.01 388.585 1058.07 391.182C1060.02 393.484 1062.53 395.255 1065.35 396.332C1068.65 397.502 1072.15 398.056 1075.65 397.965C1079.15 398.047 1082.64 397.494 1085.95 396.332C1088.75 395.223 1091.25 393.457 1093.23 391.182C1095.25 388.576 1096.7 385.583 1097.5 382.39C1098.58 378.292 1099.08 374.066 1099.01 369.83V363.299C1099.07 359.064 1098.56 354.84 1097.5 350.739C1096.7 347.584 1095.25 344.632 1093.23 342.072C1091.29 339.758 1088.78 337.985 1085.95 336.923C1082.65 335.718 1079.16 335.123 1075.65 335.164C1072.14 335.111 1068.65 335.707 1065.35 336.923C1062.5 337.953 1059.99 339.732 1058.07 342.072C1056.01 344.623 1054.51 347.575 1053.67 350.739C1052.61 354.84 1052.1 359.064 1052.16 363.299V369.83Z" fill="#DBDFE4"/>
<path d="M1134.48 406.693V326.56H1141.13L1184.72 385.844V326.56H1194.64V406.693H1187.61L1144.53 347.159V406.442L1134.48 406.693Z" fill="#DBDFE4"/>
<path d="M823.388 166.799L872.346 254.09H900.21V107.912H914.251V89.082H860.699V107.912H879.203V219.151L878.332 224.376L823.388 125.523V166.799Z" fill="#DBDFE4"/>
<path d="M1053.57 89.082H935.367V107.912H951.04V235.369H935.367V254.09H1053.57V207.505H1031.26V235.369H972.374V179.423H1021.9V160.702H972.374V107.912H1031.26V135.776H1053.57V89.082Z" fill="#DBDFE4"/>
<path d="M792.04 88.8642H725.985V107.912H770.794V235.369H726.42V254.09H835.128V235.369H792.127V179.423H792.04V88.8642Z" fill="#4392B2"/>
<path d="M635.426 61H614.528V172.457H635.426V61Z" fill="white"/>
<path d="M664.053 119.232C661.609 116.516 658.974 114.094 656.149 111.966L666.823 93.4779C672.111 96.9765 676.884 101.098 681.141 105.844C688.107 113.536 693.513 122.606 697.359 133.055C701.205 143.504 703.128 154.679 703.128 166.579C703.128 178.479 701.169 189.654 697.25 200.103C693.404 210.48 687.962 219.55 680.923 227.314C673.957 235.079 665.613 241.21 655.889 245.709C646.238 250.135 635.608 252.348 623.998 252.348C612.605 252.348 602.193 250.244 592.759 246.036C583.326 241.754 574.909 235.695 567.508 227.858C560.106 220.022 554.483 210.734 550.637 199.994C546.791 189.255 544.868 178.117 544.868 166.579C544.868 154.679 546.791 143.504 550.637 133.055C554.555 122.606 559.997 113.536 566.963 105.844C570.934 101.464 575.32 97.6153 580.122 94.2976L590.717 112.648C587.724 115.043 584.995 117.745 582.528 120.756C577.594 126.706 573.784 133.672 571.099 141.654C568.415 149.563 567.072 157.872 567.072 166.579C567.072 176.738 568.56 185.808 571.535 193.79C574.51 201.7 578.428 208.303 583.29 213.6C588.224 218.824 594.066 223.214 600.814 226.77C607.635 230.326 615.363 232.103 623.998 232.103C632.633 232.103 640.433 230.326 647.399 226.77C654.438 223.214 660.424 218.462 665.359 212.511C670.293 206.489 674.103 199.523 676.787 191.613C679.472 183.704 680.815 175.359 680.815 166.579C680.815 157.581 679.327 148.91 676.352 140.565C673.449 132.148 669.35 125.037 664.053 119.232Z" fill="white"/>
<g clip-path="url(#clip0_356_5089)">
<rect x="171.145" y="120.173" width="218.005" height="99.6594" fill="white"/>
<path d="M166.366 70.3423C162.349 70.3423 159.637 92.6016 157.863 113.93C156.872 125.784 154.785 159.64 155.88 196.55C157.982 224.615 159.084 255.72 166.784 281.655C182.695 334.82 229.229 349.366 245.975 353.559C256.939 356.013 267.982 357.184 280.145 356.768C293.426 357.183 303.092 355.434 314.315 353.559C331.009 349.366 377.543 334.82 393.506 281.655C400.785 254.527 404.109 225.011 404.41 196.55C405.505 159.588 403.418 125.784 402.427 113.93C400.653 92.5499 397.941 70.3423 393.924 70.3423C389.907 70.3423 374.622 74.328 355.789 96.5877C330.696 81.4717 280.145 80.5917 280.145 80.5917C280.145 80.5917 229.594 81.4719 204.501 96.5877C185.669 74.3279 170.434 70.3423 166.365 70.3423H166.366ZM219.526 129.253C242.688 129.253 261.469 147.889 261.469 170.874C261.469 193.858 242.688 212.495 219.526 212.495C196.363 212.495 177.582 193.858 177.582 170.874C177.582 147.889 196.363 129.253 219.526 129.253ZM340.764 129.253C363.927 129.253 382.708 147.889 382.708 170.874C382.708 193.858 363.927 212.495 340.764 212.495C317.602 212.495 298.821 193.858 298.821 170.874C298.821 147.889 317.602 129.253 340.764 129.253ZM280.119 170.545C281.136 170.538 282.153 170.641 283.17 170.874C286.927 171.703 292.822 173.411 292.822 176.207C292.822 179.468 289.588 189.562 284.579 198.57C283.693 200.174 281.971 201.158 280.145 201.158C278.319 201.158 276.598 200.174 275.711 198.57C270.651 189.562 267.468 179.468 267.468 176.207C267.468 173.411 273.311 171.703 277.067 170.874C278.084 170.667 279.102 170.551 280.119 170.545Z" fill="#4392B2"/>
<path d="M225.738 151.823C210.609 151.823 198.35 163.989 198.35 179.001C198.35 194.014 210.609 206.179 225.738 206.179C240.867 206.179 253.126 194.014 253.126 179.001C253.126 163.989 240.867 151.823 225.738 151.823ZM214.887 173.151C211.34 173.151 208.418 170.304 208.418 166.732C208.418 163.212 211.288 160.313 214.887 160.313C218.435 160.313 221.356 163.16 221.356 166.732C221.304 170.304 218.435 173.151 214.887 173.151Z" fill="#4392B2"/>
<path d="M332.891 151.823C317.763 151.823 305.503 163.989 305.503 179.001C305.503 194.014 317.763 206.179 332.891 206.179C348.02 206.179 360.28 194.014 360.28 179.001C360.228 163.989 348.02 151.823 332.891 151.823ZM320.893 173.151C317.345 173.151 314.424 170.304 314.424 166.732C314.424 163.212 317.293 160.313 320.893 160.313C324.44 160.313 327.362 163.16 327.362 166.732C327.309 170.304 324.44 173.151 320.893 173.151Z" fill="#4392B2"/>
</g>
<path d="M127.544 396.33L127.54 396.33C125.368 396.339 124.096 395.83 123.218 394.895C122.293 393.91 121.656 392.303 121.137 389.759L103.633 219.229C103.867 215.784 104.543 213.486 105.966 211.859C107.389 210.231 109.707 209.108 113.622 208.375H446.683C450.598 209.108 452.916 210.231 454.339 211.859C455.762 213.486 456.438 215.784 456.672 219.23L439.167 389.769C438.648 392.313 438.011 393.921 437.086 394.906C436.208 395.84 434.936 396.35 432.764 396.34H432.759L281.149 396.35L281.149 396.34L280.148 396.34L127.544 396.33Z" fill="#224E5E" stroke="white" stroke-width="2"/>
<path d="M121 382L439 382" stroke="white" stroke-width="2"/>
<ellipse cx="280.148" cy="303.92" rx="28.0292" ry="24.9148" fill="#4392B2"/>
<path d="M273.166 315.146L283.861 291.356C284.041 290.959 284.373 290.642 284.79 290.47C285.207 290.298 285.677 290.284 286.104 290.431C286.532 290.577 286.884 290.874 287.09 291.26C287.296 291.645 287.339 292.091 287.211 292.507L287.14 292.693L276.445 316.483C276.265 316.88 275.933 317.198 275.516 317.37C275.099 317.542 274.629 317.556 274.202 317.409C273.774 317.262 273.422 316.966 273.216 316.58C273.01 316.194 272.967 315.748 273.095 315.333L273.166 315.146ZM262.833 302.715L269.968 295.919C270.289 295.615 270.72 295.438 271.173 295.425C271.626 295.411 272.067 295.563 272.407 295.848C272.747 296.134 272.96 296.532 273.003 296.962C273.046 297.391 272.916 297.82 272.638 298.162L272.49 298.321L266.617 303.916L272.49 309.51C272.814 309.815 273.002 310.226 273.018 310.659C273.033 311.092 272.874 311.514 272.573 311.84C272.272 312.165 271.852 312.368 271.399 312.408C270.946 312.448 270.494 312.322 270.136 312.054L269.968 311.912L262.833 305.117C262.526 304.824 262.342 304.435 262.314 304.022C262.287 303.609 262.419 303.201 262.685 302.874L262.833 302.715ZM287.805 295.918C288.112 295.625 288.521 295.45 288.954 295.424C289.388 295.398 289.816 295.523 290.16 295.777L290.325 295.918L297.462 302.715C297.769 303.007 297.954 303.396 297.981 303.809C298.008 304.222 297.876 304.63 297.61 304.957L297.462 305.118L290.325 311.905C290.004 312.21 289.574 312.386 289.121 312.4C288.668 312.413 288.227 312.261 287.887 311.976C287.547 311.69 287.334 311.292 287.291 310.863C287.248 310.433 287.378 310.004 287.655 309.663L287.805 309.501L293.675 303.916L287.802 298.32C287.467 298.001 287.279 297.569 287.279 297.119C287.279 296.668 287.467 296.236 287.802 295.918H287.805Z" fill="white"/>
<defs>
<clipPath id="clip0_356_5089">
<rect width="249.148" height="286.521" fill="white" transform="translate(155.573 70.3431)"/>
</clipPath>
</defs>
</svg>
