<svg width="1280" height="560" viewBox="0 0 1280 560" fill="none" xmlns="http://www.w3.org/2000/svg">
<rect width="1280" height="560" fill="#DBDFE4"/>
<path d="M551.097 406.693V326.56H576.971C580.639 326.461 584.297 327.014 587.772 328.193C590.63 329.22 593.21 330.897 595.308 333.091C597.331 335.473 598.829 338.255 599.704 341.255C600.722 344.891 601.188 348.66 601.086 352.434C601.13 356.255 600.623 360.062 599.579 363.738C598.531 366.958 596.868 369.944 594.68 372.53C592.485 374.993 589.728 376.889 586.642 378.056C582.975 379.363 579.104 380.001 575.212 379.94H561.019V406.693H551.097ZM561.019 371.148H575.212C577.948 371.252 580.677 370.825 583.251 369.892C585.228 369.1 586.931 367.746 588.149 365.999C589.346 364.264 590.16 362.295 590.536 360.221C590.81 357.633 590.81 355.022 590.536 352.434C590.578 349.818 590.325 347.206 589.782 344.647C589.408 342.726 588.591 340.92 587.396 339.371C586.185 337.952 584.627 336.87 582.874 336.231C580.468 335.529 577.97 335.19 575.463 335.227H560.391L561.019 371.148Z" fill="#0E2A47"/>
<path d="M626.013 406.693V405.814C627.897 398.404 629.907 390.617 632.167 382.829C634.428 375.042 636.815 367.38 639.327 360.096C641.839 352.811 644.225 346.279 646.486 340.502C648.747 334.724 651.008 329.951 652.766 326.56H665.326C667.735 331.059 669.833 335.717 671.606 340.502C673.992 346.279 676.379 353.062 678.891 360.096C681.403 367.129 683.664 374.916 686.05 382.829C688.437 390.742 690.321 398.404 692.079 405.814V406.693H682.031C682.031 405.94 682.031 404.433 681.026 402.172L679.519 396.52C679.519 395.013 678.765 393.38 678.263 391.747C677.76 390.114 677.509 388.607 677.007 386.974H640.583C640.583 388.607 639.703 390.24 639.327 391.873C638.95 393.505 638.447 395.138 638.071 396.771C637.694 398.404 637.191 400.037 636.815 401.669C636.438 403.302 636.061 404.935 635.684 406.693H626.013ZM658.795 334.599C657.288 337.362 655.906 340.376 654.524 343.642C652.949 347.08 651.566 350.602 650.38 354.192C648.998 357.835 647.742 361.728 646.486 365.622C645.23 369.516 643.974 373.786 642.718 378.182H675.123C673.867 373.912 672.611 369.892 671.355 365.622C670.099 361.352 668.843 357.835 667.461 354.192C666.08 350.55 664.698 346.907 663.316 343.642C661.935 340.376 660.553 337.613 658.795 334.599Z" fill="#0E2A47"/>
<path d="M716.992 406.693V326.56H723.649L767.232 385.844V326.56H777.28V406.693H770.623L727.291 347.159V406.442L716.992 406.693Z" fill="#0E2A47"/>
<path d="M827.314 406.693V335.227H802.193V326.56H862.482V335.227H837.362V406.693H827.314Z" fill="#0E2A47"/>
<path d="M887.395 406.693V326.56H897.443V359.719H936.756V326.56H947.055V406.693H937.133V369.013H897.443V406.693H887.395Z" fill="#0E2A47"/>
<path d="M971.985 384.33V326.051H1017.2V334.718H982.158V359.838H1013.81V368.755H982.158V385.837C982.088 387.659 982.3 389.481 982.786 391.238C983.24 392.624 983.965 393.905 984.921 395.006C985.93 395.895 987.075 396.615 988.313 397.141C989.805 397.666 991.378 397.922 992.96 397.895H1017.2V406.687H993.714C990.528 406.752 987.351 406.329 984.293 405.431C981.746 404.647 979.422 403.269 977.511 401.412C975.647 399.484 974.232 397.168 973.366 394.629C972.339 391.296 971.872 387.816 971.985 384.33ZM988.313 317.51V315.878L998.738 300.805H1009.16V302.438L994.216 317.51H988.313Z" fill="#0E2A47"/>
<path d="M1042.11 369.83V363.299C1042.19 358.034 1043.13 352.817 1044.88 347.85C1046.09 343.516 1048.28 339.519 1051.28 336.169C1054.11 332.869 1057.75 330.359 1061.83 328.884C1066.39 327.093 1071.26 326.239 1076.15 326.372C1081.03 326.263 1085.89 327.073 1090.47 328.759C1094.47 330.278 1098.04 332.733 1100.9 335.918C1103.87 339.263 1106.09 343.202 1107.43 347.473C1108.9 352.618 1109.62 357.948 1109.56 363.299V369.83C1109.6 375.056 1108.88 380.26 1107.43 385.279C1106.07 389.576 1103.84 393.551 1100.9 396.96C1098.02 400.146 1094.45 402.636 1090.47 404.245C1081.16 407.51 1071.02 407.51 1061.71 404.245C1057.71 402.726 1054.14 400.271 1051.28 397.086C1048.31 393.765 1046.12 389.815 1044.88 385.53C1043.14 380.473 1042.21 375.176 1042.11 369.83ZM1052.16 369.83C1052.09 374.066 1052.6 378.292 1053.67 382.39C1054.52 385.592 1056.01 388.585 1058.07 391.182C1060.02 393.484 1062.53 395.255 1065.35 396.332C1068.65 397.502 1072.15 398.056 1075.65 397.965C1079.15 398.047 1082.64 397.494 1085.95 396.332C1088.75 395.223 1091.25 393.457 1093.23 391.182C1095.25 388.576 1096.7 385.583 1097.5 382.39C1098.58 378.292 1099.08 374.066 1099.01 369.83V363.299C1099.07 359.064 1098.56 354.84 1097.5 350.739C1096.7 347.584 1095.25 344.632 1093.23 342.072C1091.29 339.758 1088.78 337.985 1085.95 336.923C1082.65 335.718 1079.16 335.123 1075.65 335.164C1072.14 335.111 1068.65 335.707 1065.35 336.923C1062.5 337.953 1059.99 339.732 1058.07 342.072C1056.01 344.623 1054.51 347.575 1053.67 350.739C1052.61 354.84 1052.1 359.064 1052.16 363.299V369.83Z" fill="#0E2A47"/>
<path d="M1134.48 406.693V326.56H1141.13L1184.72 385.844V326.56H1194.64V406.693H1187.61L1144.53 347.159V406.442L1134.48 406.693Z" fill="#0E2A47"/>
<path d="M823.388 166.799L872.346 254.09H900.21V107.912H914.251V89.082H860.7V107.912H879.203V219.151L878.332 224.376L823.388 125.523V166.799Z" fill="#0E2A47"/>
<path d="M1053.57 89.082H935.367V107.912H951.04V235.369H935.367V254.09H1053.57V207.505H1031.26V235.369H972.374V179.423H1021.9V160.702H972.374V107.912H1031.26V135.776H1053.57V89.082Z" fill="#0E2A47"/>
<path d="M792.041 88.8642H725.985V107.912H770.794V235.369H726.421V254.09H835.128V235.369H792.128V179.423H792.041V88.8642Z" fill="#4392B2"/>
<path d="M635.427 61H614.529V172.457H635.427V61Z" fill="#0E2A47"/>
<path d="M664.053 119.232C661.609 116.516 658.974 114.094 656.149 111.966L666.824 93.4779C672.111 96.9765 676.884 101.098 681.141 105.844C688.107 113.536 693.513 122.606 697.359 133.055C701.205 143.504 703.128 154.679 703.128 166.579C703.128 178.479 701.169 189.654 697.25 200.103C693.405 210.48 687.962 219.55 680.924 227.314C673.958 235.079 665.613 241.21 655.889 245.709C646.239 250.135 635.608 252.348 623.998 252.348C612.606 252.348 602.193 250.244 592.76 246.036C583.327 241.754 574.909 235.695 567.508 227.858C560.106 220.022 554.483 210.734 550.637 199.994C546.791 189.255 544.868 178.117 544.868 166.579C544.868 154.679 546.791 143.504 550.637 133.055C554.555 122.606 559.998 113.536 566.964 105.844C570.934 101.464 575.32 97.6153 580.122 94.2976L590.717 112.648C587.724 115.043 584.995 117.745 582.528 120.756C577.594 126.706 573.785 133.672 571.1 141.654C568.415 149.563 567.072 157.872 567.072 166.579C567.072 176.738 568.56 185.808 571.535 193.79C574.51 201.7 578.429 208.303 583.29 213.6C588.225 218.824 594.066 223.214 600.814 226.77C607.635 230.326 615.363 232.103 623.998 232.103C632.633 232.103 640.434 230.326 647.4 226.77C654.438 223.214 660.425 218.462 665.359 212.511C670.293 206.489 674.103 199.523 676.788 191.613C679.472 183.704 680.815 175.359 680.815 166.579C680.815 157.581 679.327 148.91 676.352 140.565C673.45 132.148 669.35 125.037 664.053 119.232Z" fill="#0E2A47"/>
<path d="M154.509 205.375C154.307 202.455 154.103 199.561 153.889 196.7L153.886 196.655L153.884 196.61C152.786 159.605 154.878 125.671 155.873 113.764C156.761 103.09 157.888 92.1223 159.305 83.8029C160.011 79.6583 160.804 76.0761 161.708 73.4938C162.155 72.2153 162.671 71.058 163.293 70.1828C163.87 69.3708 164.873 68.3431 166.369 68.3431C171.15 68.3431 186.386 72.6167 204.94 94.0222C217.827 86.791 236.257 82.9742 251.471 80.9397C259.416 79.8771 266.568 79.2908 271.733 78.97C274.317 78.8095 276.406 78.7153 277.852 78.6612C278.575 78.6341 279.137 78.617 279.52 78.6067C279.712 78.6016 279.859 78.5981 279.958 78.5959L280.072 78.5935L280.102 78.5929L280.11 78.5928L280.112 78.5928C280.113 78.5927 280.113 78.5927 280.148 80.5924M154.509 205.375L402.43 113.93M154.509 205.375H113.53H113.347L113.167 205.408C108.941 206.188 105.799 207.492 103.708 209.884C101.618 212.274 100.877 215.411 100.634 219.116L100.623 219.284L100.64 219.451L118.158 390.114L118.168 390.211L118.188 390.306C118.727 392.973 119.493 395.312 121.032 396.949C122.676 398.7 124.886 399.34 127.546 399.33C127.548 399.33 127.551 399.33 127.553 399.33L278.145 399.34L278.145 399.35L280.148 399.35L432.751 399.34M154.509 205.375L432.758 399.34M280.148 80.5924C280.183 78.5927 280.183 78.5927 280.184 78.5928L280.186 78.5928L280.194 78.5929L280.224 78.5935L280.338 78.5959C280.437 78.5981 280.584 78.6016 280.776 78.6067C281.159 78.617 281.721 78.6341 282.444 78.6612C283.89 78.7153 285.979 78.8095 288.563 78.97C293.728 79.2908 300.88 79.8771 308.825 80.9396C324.039 82.9741 342.469 86.7909 355.356 94.0222C373.913 72.6158 389.198 68.3431 393.927 68.3431C395.421 68.3431 396.424 69.3673 397.002 70.1791C397.624 71.0531 398.141 72.2089 398.588 73.4855C399.492 76.0641 400.285 79.6417 400.991 83.7833C402.408 92.0967 403.535 103.065 404.423 113.765M280.148 80.5924L280.113 78.5927L280.148 78.5921L280.183 78.5927L280.148 80.5924ZM404.423 113.765L402.43 113.93M404.423 113.765C404.423 113.765 404.423 113.764 404.423 113.764L402.43 113.93M404.423 113.765C405.418 125.671 407.509 159.543 406.412 196.591M402.43 113.93C403.421 125.785 405.508 159.589 404.412 196.551M406.412 196.591C406.412 196.585 406.412 196.578 406.412 196.572L404.412 196.551M406.412 196.591C406.412 196.597 406.412 196.604 406.412 196.61L404.412 196.551M406.412 196.591L404.412 196.551M432.758 399.34H432.76L432.76 397.34L432.751 399.34M432.758 399.34C432.756 399.34 432.753 399.34 432.751 399.34M432.758 399.34L432.751 399.34M404.222 205.375C404.201 206.041 404.177 206.708 404.152 207.375H406.154C406.179 206.708 406.202 206.041 406.223 205.375H404.222Z" fill="#0E2A47" stroke="#0E2A47" stroke-width="4"/>
<g clip-path="url(#clip0_358_5370)">
<rect x="171.146" y="120.173" width="218.005" height="99.6594" fill="white"/>
<path d="M158.86 114.013L158.86 114.013C159.746 103.354 160.865 92.4923 162.26 84.3059C162.958 80.2051 163.718 76.8228 164.536 74.4839C164.948 73.3081 165.353 72.4575 165.736 71.9196C166.14 71.3502 166.361 71.3423 166.366 71.3423C170.034 71.3429 185.013 75.1012 203.738 97.2336L204.288 97.8837L205.018 97.4443C217.374 90.0009 236.105 86.0202 251.866 83.9124C259.724 82.8616 266.803 82.2811 271.917 81.9635C274.473 81.8047 276.538 81.7116 277.962 81.6583C278.674 81.6317 279.225 81.6149 279.598 81.6049C279.785 81.5999 279.927 81.5965 280.022 81.5944L280.128 81.5922L280.145 81.5918L280.162 81.5922L280.269 81.5944C280.364 81.5965 280.506 81.5999 280.692 81.6049C281.065 81.6149 281.617 81.6316 282.329 81.6583C283.753 81.7116 285.817 81.8047 288.374 81.9634C293.488 82.2811 300.567 82.8615 308.425 83.9124C324.186 86.0201 342.917 90.0008 355.273 97.4443L356.003 97.8837L356.553 97.2336C375.278 75.1002 390.309 71.3423 393.924 71.3423C393.93 71.3423 394.151 71.3507 394.555 71.9183C394.937 72.4548 395.343 73.3034 395.754 74.4771C396.573 76.8118 397.333 80.1891 398.031 84.2866C399.425 92.4664 400.544 103.328 401.43 114.012L401.43 114.013C402.419 125.842 404.504 159.606 403.41 196.52L403.41 196.53L403.41 196.539C403.11 224.93 399.795 254.355 392.545 281.381C376.751 333.955 330.765 348.392 314.111 352.58C313.606 352.664 313.104 352.748 312.606 352.832C302.027 354.604 292.738 356.161 280.176 355.769L280.144 355.768L280.111 355.769C268.042 356.181 257.088 355.02 246.206 352.586C229.522 348.407 183.489 333.981 167.742 281.369C161.217 259.388 159.454 233.668 157.772 209.136C157.48 204.879 157.191 200.657 156.88 196.498C155.787 159.644 157.871 125.839 158.86 114.013ZM276.868 169.894L276.86 169.896L276.852 169.898C274.955 170.316 272.472 170.968 270.444 171.893C269.433 172.354 268.476 172.909 267.757 173.58C267.037 174.252 266.468 175.129 266.468 176.207C266.468 177.146 266.691 178.483 267.073 180.047C267.46 181.632 268.026 183.513 268.749 185.565C270.193 189.669 272.277 194.497 274.838 199.057C275.907 200.988 277.968 202.158 280.145 202.158C282.323 202.158 284.385 200.987 285.454 199.056C287.988 194.497 290.071 189.67 291.522 185.567C292.247 183.515 292.818 181.634 293.209 180.05C293.595 178.486 293.822 177.148 293.822 176.207C293.822 175.126 293.246 174.248 292.522 173.577C291.798 172.907 290.835 172.353 289.817 171.892C287.778 170.968 285.285 170.317 283.39 169.899C282.294 169.648 281.201 169.538 280.113 169.545C279.023 169.552 277.941 169.676 276.868 169.894ZM262.469 170.874C262.469 147.33 243.233 128.253 219.526 128.253C195.818 128.253 176.583 147.33 176.583 170.874C176.583 194.418 195.818 213.495 219.526 213.495C243.233 213.495 262.469 194.418 262.469 170.874ZM383.708 170.874C383.708 147.33 364.472 128.253 340.765 128.253C317.057 128.253 297.821 147.33 297.821 170.874C297.821 194.418 317.057 213.495 340.765 213.495C364.472 213.495 383.708 194.418 383.708 170.874Z" fill="#4392B2" stroke="#285E7C" stroke-width="2"/>
<path d="M225.738 151.823C210.61 151.823 198.35 163.989 198.35 179.001C198.35 194.014 210.61 206.179 225.738 206.179C240.867 206.179 253.127 194.014 253.127 179.001C253.127 163.989 240.867 151.823 225.738 151.823ZM214.887 173.151C211.34 173.151 208.419 170.304 208.419 166.732C208.419 163.212 211.288 160.313 214.887 160.313C218.435 160.313 221.356 163.16 221.356 166.732C221.304 170.304 218.435 173.151 214.887 173.151Z" fill="#4392B2"/>
<path d="M332.892 151.823C317.763 151.823 305.503 163.989 305.503 179.001C305.503 194.014 317.763 206.179 332.892 206.179C348.02 206.179 360.28 194.014 360.28 179.001C360.228 163.989 348.02 151.823 332.892 151.823ZM320.893 173.151C317.346 173.151 314.424 170.304 314.424 166.732C314.424 163.212 317.293 160.313 320.893 160.313C324.44 160.313 327.362 163.16 327.362 166.732C327.31 170.304 324.44 173.151 320.893 173.151Z" fill="#4392B2"/>
</g>
<path d="M280.148 399.85L432.749 399.84C432.75 399.84 432.751 399.84 432.752 399.84C435.496 399.852 437.864 399.189 439.637 397.302C441.277 395.556 442.064 393.098 442.607 390.416L442.631 390.296L442.644 390.175L460.163 219.503L460.184 219.294L460.17 219.084C459.925 215.344 459.174 212.07 456.974 209.555C454.773 207.038 451.498 205.704 447.229 204.916L447.004 204.875H446.775H113.53H113.301L113.076 204.916C108.807 205.704 105.533 207.038 103.332 209.555C101.132 212.07 100.38 215.343 100.135 219.084L100.121 219.293L100.143 219.502L117.661 390.165L117.673 390.286L117.698 390.405C118.24 393.088 119.028 395.546 120.667 397.292C122.439 399.178 124.806 399.841 127.548 399.83L277.642 399.84L277.642 399.851L280.148 399.85Z" fill="#224E5E" stroke="#0E2A47" stroke-width="5"/>
<path d="M118 382L441 382" stroke="#0E2A47" stroke-width="5"/>
<ellipse cx="280.148" cy="303.92" rx="28.0292" ry="24.9148" fill="#4392B2"/>
<path d="M273.166 315.146L283.861 291.356C284.041 290.959 284.373 290.642 284.79 290.47C285.207 290.298 285.677 290.284 286.104 290.431C286.532 290.577 286.884 290.874 287.09 291.26C287.296 291.645 287.339 292.091 287.211 292.507L287.14 292.693L276.445 316.483C276.265 316.88 275.933 317.198 275.516 317.37C275.099 317.542 274.629 317.556 274.202 317.409C273.774 317.262 273.422 316.966 273.216 316.58C273.011 316.194 272.967 315.748 273.095 315.333L273.166 315.146ZM262.833 302.715L269.968 295.919C270.289 295.615 270.72 295.438 271.173 295.425C271.626 295.411 272.067 295.563 272.407 295.848C272.747 296.134 272.96 296.532 273.003 296.962C273.046 297.391 272.916 297.82 272.638 298.162L272.49 298.321L266.617 303.916L272.49 309.51C272.814 309.815 273.002 310.226 273.018 310.659C273.033 311.092 272.874 311.514 272.573 311.84C272.273 312.165 271.853 312.368 271.399 312.408C270.946 312.448 270.494 312.322 270.136 312.054L269.968 311.912L262.833 305.117C262.526 304.824 262.342 304.435 262.315 304.022C262.287 303.609 262.419 303.201 262.685 302.874L262.833 302.715ZM287.805 295.918C288.112 295.625 288.521 295.45 288.954 295.424C289.388 295.398 289.817 295.523 290.16 295.777L290.326 295.918L297.462 302.715C297.769 303.007 297.954 303.396 297.981 303.809C298.008 304.222 297.876 304.63 297.61 304.957L297.462 305.118L290.326 311.905C290.005 312.21 289.574 312.386 289.121 312.4C288.668 312.413 288.227 312.261 287.887 311.976C287.547 311.69 287.334 311.292 287.291 310.863C287.248 310.433 287.378 310.004 287.655 309.663L287.805 309.501L293.675 303.916L287.802 298.32C287.467 298.001 287.279 297.569 287.279 297.119C287.279 296.668 287.467 296.236 287.802 295.918H287.805Z" fill="#DBDFE4"/>
<path d="M67.4722 513V476.704H90.1962V481.592H73.2962V492.148H89.5722V497.036H73.2962V508.112H90.1962V513H67.4722Z" fill="#0E2A47"/>
<path d="M98.6519 513V476.704H122V481.592H104.476V492.148H120.388V497.036H104.476V513H98.6519Z" fill="#0E2A47"/>
<path d="M135.5 513H129.728V476.704H143.3C146.766 476.704 149.401 477.675 151.204 479.616C153.041 481.557 153.96 484.227 153.96 487.624C153.96 490.397 153.284 492.685 151.932 494.488C150.58 496.291 148.638 497.4 146.108 497.816L154.48 513H148.032L140.336 498.336H135.5V513ZM142.468 493.656C146.073 493.656 147.876 492.009 147.876 488.716V486.48C147.876 483.187 146.073 481.54 142.468 481.54H135.5V493.656H142.468Z" fill="#0E2A47"/>
<path d="M161.011 513V476.704H183.735V481.592H166.835V492.148H183.111V497.036H166.835V508.112H183.735V513H161.011Z" fill="#0E2A47"/>
<path d="M191.879 513V508.58H200.407V481.124H191.879V476.704H214.759V481.124H206.231V508.58H214.759V513H191.879Z" fill="#0E2A47"/>
<path d="M254.446 513V476.704H268.018C271.485 476.704 274.12 477.675 275.922 479.616C277.76 481.557 278.678 484.227 278.678 487.624C278.678 491.021 277.76 493.691 275.922 495.632C274.12 497.573 271.485 498.544 268.018 498.544H260.27V513H254.446ZM260.27 493.708H267.134C270.74 493.708 272.542 492.044 272.542 488.716V486.48C272.542 483.187 270.74 481.54 267.134 481.54H260.27V493.708Z" fill="#0E2A47"/>
<path d="M305.282 513L302.526 503.328H290.982L288.226 513H282.298L292.906 476.704H300.862L311.47 513H305.282ZM296.962 482.58H296.546L292.074 498.492H301.434L296.962 482.58Z" fill="#0E2A47"/>
<path d="M322.578 513H316.806V476.704H330.378C333.844 476.704 336.479 477.675 338.282 479.616C340.119 481.557 341.038 484.227 341.038 487.624C341.038 490.397 340.362 492.685 339.01 494.488C337.658 496.291 335.716 497.4 333.186 497.816L341.558 513H335.11L327.414 498.336H322.578V513ZM329.546 493.656C333.151 493.656 334.954 492.009 334.954 488.716V486.48C334.954 483.187 333.151 481.54 329.546 481.54H322.578V493.656H329.546Z" fill="#0E2A47"/>
<path d="M347.777 513V508.58H356.305V481.124H347.777V476.704H370.657V481.124H362.129V508.58H370.657V513H347.777Z" fill="#0E2A47"/>
<path d="M390.085 513.624C386.93 513.624 384.278 513.069 382.129 511.96C379.98 510.851 378.212 509.377 376.825 507.54L380.569 503.952C381.956 505.616 383.429 506.847 384.989 507.644C386.549 508.407 388.317 508.788 390.293 508.788C392.581 508.788 394.332 508.268 395.545 507.228C396.793 506.188 397.417 504.697 397.417 502.756C397.417 501.196 396.966 500 396.065 499.168C395.164 498.301 393.621 497.677 391.437 497.296L387.485 496.672C385.752 496.395 384.296 495.944 383.117 495.32C381.938 494.661 380.985 493.899 380.257 493.032C379.529 492.131 378.992 491.143 378.645 490.068C378.333 488.959 378.177 487.797 378.177 486.584C378.177 483.152 379.286 480.552 381.505 478.784C383.724 476.981 386.774 476.08 390.657 476.08C393.534 476.08 395.978 476.548 397.989 477.484C400.034 478.385 401.681 479.668 402.929 481.332L399.289 484.972C398.284 483.759 397.088 482.788 395.701 482.06C394.349 481.297 392.668 480.916 390.657 480.916C388.508 480.916 386.861 481.384 385.717 482.32C384.608 483.221 384.053 484.556 384.053 486.324C384.053 487.815 384.486 488.993 385.353 489.86C386.254 490.692 387.832 491.299 390.085 491.68L393.933 492.356C397.192 492.945 399.566 494.141 401.057 495.944C402.548 497.712 403.293 499.879 403.293 502.444C403.293 504.108 402.998 505.633 402.409 507.02C401.854 508.407 401.005 509.585 399.861 510.556C398.752 511.527 397.365 512.289 395.701 512.844C394.072 513.364 392.2 513.624 390.085 513.624Z" fill="#0E2A47"/>
<path d="M441.524 513V476.704H455.096C458.563 476.704 461.198 477.675 463 479.616C464.838 481.557 465.756 484.227 465.756 487.624C465.756 491.021 464.838 493.691 463 495.632C461.198 497.573 458.563 498.544 455.096 498.544H447.348V513H441.524ZM447.348 493.708H454.212C457.818 493.708 459.62 492.044 459.62 488.716V486.48C459.62 483.187 457.818 481.54 454.212 481.54H447.348V493.708Z" fill="#0E2A47"/>
<path d="M492.36 513L489.604 503.328H478.06L475.304 513H469.376L479.984 476.704H487.94L498.548 513H492.36ZM484.04 482.58H483.624L479.152 498.492H488.512L484.04 482.58Z" fill="#0E2A47"/>
<path d="M508.824 485.076H508.356V513H503.26V476.704H510.748L521.408 504.628H521.876V476.704H526.972V513H519.484L508.824 485.076Z" fill="#0E2A47"/>
<path d="M549.207 481.592V513H543.383V481.592H531.995V476.704H560.595V481.592H549.207Z" fill="#0E2A47"/>
<path d="M583.507 497.036H571.443V513H565.619V476.704H571.443V492.148H583.507V476.704H589.331V513H583.507V497.036Z" fill="#0E2A47"/>
<path d="M597.527 513V476.704H620.251V481.592H603.351V492.148H619.627V497.036H603.351V508.112H620.251V513H597.527ZM609.435 474.052L605.951 472.388L610.683 463.028L615.571 465.42L609.435 474.052Z" fill="#0E2A47"/>
<path d="M639.835 513.624C637.547 513.624 635.553 513.208 633.855 512.376C632.191 511.509 630.804 510.279 629.695 508.684C628.62 507.089 627.823 505.131 627.303 502.808C626.783 500.485 626.523 497.833 626.523 494.852C626.523 491.905 626.783 489.271 627.303 486.948C627.823 484.591 628.62 482.615 629.695 481.02C630.804 479.425 632.191 478.212 633.855 477.38C635.553 476.513 637.547 476.08 639.835 476.08C642.123 476.08 644.099 476.513 645.763 477.38C647.461 478.212 648.848 479.425 649.923 481.02C651.032 482.615 651.847 484.591 652.367 486.948C652.887 489.271 653.147 491.905 653.147 494.852C653.147 497.833 652.887 500.485 652.367 502.808C651.847 505.131 651.032 507.089 649.923 508.684C648.848 510.279 647.461 511.509 645.763 512.376C644.099 513.208 642.123 513.624 639.835 513.624ZM639.835 508.788C642.435 508.788 644.272 507.817 645.347 505.876C646.421 503.9 646.959 501.231 646.959 497.868V491.784C646.959 488.456 646.421 485.821 645.347 483.88C644.272 481.904 642.435 480.916 639.835 480.916C637.235 480.916 635.397 481.904 634.323 483.88C633.248 485.821 632.711 488.456 632.711 491.784V497.92C632.711 501.248 633.248 503.9 634.323 505.876C635.397 507.817 637.235 508.788 639.835 508.788Z" fill="#0E2A47"/>
<path d="M664.722 485.076H664.254V513H659.158V476.704H666.646L677.306 504.628H677.774V476.704H682.87V513H675.382L664.722 485.076Z" fill="#0E2A47"/>
<path d="M694.342 500V494.332H710.046V500H694.342Z" fill="#0E2A47"/>
<path d="M741.798 513L739.042 503.328H727.498L724.742 513H718.814L729.422 476.704H737.378L747.986 513H741.798ZM733.478 482.58H733.062L728.59 498.492H737.95L733.478 482.58Z" fill="#0E2A47"/>
<path d="M764.241 513.624C761.087 513.624 758.435 513.069 756.285 511.96C754.136 510.851 752.368 509.377 750.981 507.54L754.725 503.952C756.112 505.616 757.585 506.847 759.145 507.644C760.705 508.407 762.473 508.788 764.449 508.788C766.737 508.788 768.488 508.268 769.701 507.228C770.949 506.188 771.573 504.697 771.573 502.756C771.573 501.196 771.123 500 770.221 499.168C769.32 498.301 767.777 497.677 765.593 497.296L761.641 496.672C759.908 496.395 758.452 495.944 757.273 495.32C756.095 494.661 755.141 493.899 754.413 493.032C753.685 492.131 753.148 491.143 752.801 490.068C752.489 488.959 752.333 487.797 752.333 486.584C752.333 483.152 753.443 480.552 755.661 478.784C757.88 476.981 760.931 476.08 764.813 476.08C767.691 476.08 770.135 476.548 772.145 477.484C774.191 478.385 775.837 479.668 777.085 481.332L773.445 484.972C772.44 483.759 771.244 482.788 769.857 482.06C768.505 481.297 766.824 480.916 764.813 480.916C762.664 480.916 761.017 481.384 759.873 482.32C758.764 483.221 758.209 484.556 758.209 486.324C758.209 487.815 758.643 488.993 759.509 489.86C760.411 490.692 761.988 491.299 764.241 491.68L768.089 492.356C771.348 492.945 773.723 494.141 775.213 495.944C776.704 497.712 777.449 499.879 777.449 502.444C777.449 504.108 777.155 505.633 776.565 507.02C776.011 508.407 775.161 509.585 774.017 510.556C772.908 511.527 771.521 512.289 769.857 512.844C768.228 513.364 766.356 513.624 764.241 513.624Z" fill="#0E2A47"/>
<path d="M795.421 513.624C792.266 513.624 789.614 513.069 787.465 511.96C785.316 510.851 783.548 509.377 782.161 507.54L785.905 503.952C787.292 505.616 788.765 506.847 790.325 507.644C791.885 508.407 793.653 508.788 795.629 508.788C797.917 508.788 799.668 508.268 800.881 507.228C802.129 506.188 802.753 504.697 802.753 502.756C802.753 501.196 802.302 500 801.401 499.168C800.5 498.301 798.957 497.677 796.773 497.296L792.821 496.672C791.088 496.395 789.632 495.944 788.453 495.32C787.274 494.661 786.321 493.899 785.593 493.032C784.865 492.131 784.328 491.143 783.981 490.068C783.669 488.959 783.513 487.797 783.513 486.584C783.513 483.152 784.622 480.552 786.841 478.784C789.06 476.981 792.11 476.08 795.993 476.08C798.87 476.08 801.314 476.548 803.325 477.484C805.37 478.385 807.017 479.668 808.265 481.332L804.625 484.972C803.62 483.759 802.424 482.788 801.037 482.06C799.685 481.297 798.004 480.916 795.993 480.916C793.844 480.916 792.197 481.384 791.053 482.32C789.944 483.221 789.389 484.556 789.389 486.324C789.389 487.815 789.822 488.993 790.689 489.86C791.59 490.692 793.168 491.299 795.421 491.68L799.269 492.356C802.528 492.945 804.902 494.141 806.393 495.944C807.884 497.712 808.629 499.879 808.629 502.444C808.629 504.108 808.334 505.633 807.745 507.02C807.19 508.407 806.341 509.585 805.197 510.556C804.088 511.527 802.701 512.289 801.037 512.844C799.408 513.364 797.536 513.624 795.421 513.624Z" fill="#0E2A47"/>
<path d="M835.337 513L832.581 503.328H821.037L818.281 513H812.353L822.961 476.704H830.917L841.525 513H835.337ZM827.017 482.58H826.601L822.129 498.492H831.489L827.017 482.58Z" fill="#0E2A47"/>
<path d="M857.78 513.624C854.626 513.624 851.974 513.069 849.824 511.96C847.675 510.851 845.907 509.377 844.52 507.54L848.264 503.952C849.651 505.616 851.124 506.847 852.684 507.644C854.244 508.407 856.012 508.788 857.988 508.788C860.276 508.788 862.027 508.268 863.24 507.228C864.488 506.188 865.112 504.697 865.112 502.756C865.112 501.196 864.662 500 863.76 499.168C862.859 498.301 861.316 497.677 859.132 497.296L855.18 496.672C853.447 496.395 851.991 495.944 850.812 495.32C849.634 494.661 848.68 493.899 847.952 493.032C847.224 492.131 846.687 491.143 846.34 490.068C846.028 488.959 845.872 487.797 845.872 486.584C845.872 483.152 846.982 480.552 849.2 478.784C851.419 476.981 854.47 476.08 858.352 476.08C861.23 476.08 863.674 476.548 865.684 477.484C867.73 478.385 869.376 479.668 870.624 481.332L866.984 484.972C865.979 483.759 864.783 482.788 863.396 482.06C862.044 481.297 860.363 480.916 858.352 480.916C856.203 480.916 854.556 481.384 853.412 482.32C852.303 483.221 851.748 484.556 851.748 486.324C851.748 487.815 852.182 488.993 853.048 489.86C853.95 490.692 855.527 491.299 857.78 491.68L861.628 492.356C864.887 492.945 867.262 494.141 868.752 495.944C870.243 497.712 870.988 499.879 870.988 502.444C870.988 504.108 870.694 505.633 870.104 507.02C869.55 508.407 868.7 509.585 867.556 510.556C866.447 511.527 865.06 512.289 863.396 512.844C861.767 513.364 859.895 513.624 857.78 513.624Z" fill="#0E2A47"/>
<path d="M914.264 476.704V499.012C914.264 500.503 914.298 501.855 914.368 503.068C914.472 504.281 914.732 505.321 915.148 506.188C915.564 507.02 916.188 507.661 917.02 508.112C917.852 508.563 918.996 508.788 920.452 508.788C921.908 508.788 923.052 508.563 923.884 508.112C924.716 507.661 925.34 507.02 925.756 506.188C926.172 505.321 926.414 504.281 926.484 503.068C926.588 501.855 926.64 500.503 926.64 499.012V476.704H932.464V497.972C932.464 500.572 932.308 502.86 931.996 504.836C931.718 506.777 931.146 508.407 930.28 509.724C929.413 511.007 928.182 511.977 926.588 512.636C925.028 513.295 922.982 513.624 920.452 513.624C917.921 513.624 915.858 513.295 914.264 512.636C912.704 511.977 911.49 511.007 910.624 509.724C909.757 508.407 909.168 506.777 908.856 504.836C908.578 502.86 908.44 500.572 908.44 497.972V476.704H914.264Z" fill="#0E2A47"/>
<path d="M945.339 485.076H944.871V513H939.775V476.704H947.263L957.923 504.628H958.391V476.704H963.487V513H955.999L945.339 485.076Z" fill="#0E2A47"/>
<path d="M971.371 513V508.58H979.899V481.124H971.371V476.704H994.251V481.124H985.723V508.58H994.251V513H971.371Z" fill="#0E2A47"/>
<path d="M1009.93 513L999.691 476.704H1005.98L1010.77 495.008L1013.94 507.332H1014.25L1017.42 495.008L1022.26 476.704H1028.29L1018.05 513H1009.93Z" fill="#0E2A47"/>
<path d="M1034.04 513V476.704H1056.77V481.592H1039.87V492.148H1056.14V497.036H1039.87V508.112H1056.77V513H1034.04Z" fill="#0E2A47"/>
<path d="M1070.89 513H1065.12V476.704H1078.69C1082.16 476.704 1084.79 477.675 1086.59 479.616C1088.43 481.557 1089.35 484.227 1089.35 487.624C1089.35 490.397 1088.67 492.685 1087.32 494.488C1085.97 496.291 1084.03 497.4 1081.5 497.816L1089.87 513H1083.42L1075.73 498.336H1070.89V513ZM1077.86 493.656C1081.46 493.656 1083.27 492.009 1083.27 488.716V486.48C1083.27 483.187 1081.46 481.54 1077.86 481.54H1070.89V493.656H1077.86Z" fill="#0E2A47"/>
<path d="M1107.22 513.624C1104.06 513.624 1101.41 513.069 1099.26 511.96C1097.11 510.851 1095.34 509.377 1093.96 507.54L1097.7 503.952C1099.09 505.616 1100.56 506.847 1102.12 507.644C1103.68 508.407 1105.45 508.788 1107.43 508.788C1109.71 508.788 1111.46 508.268 1112.68 507.228C1113.93 506.188 1114.55 504.697 1114.55 502.756C1114.55 501.196 1114.1 500 1113.2 499.168C1112.3 498.301 1110.75 497.677 1108.57 497.296L1104.62 496.672C1102.88 496.395 1101.43 495.944 1100.25 495.32C1099.07 494.661 1098.12 493.899 1097.39 493.032C1096.66 492.131 1096.12 491.143 1095.78 490.068C1095.47 488.959 1095.31 487.797 1095.31 486.584C1095.31 483.152 1096.42 480.552 1098.64 478.784C1100.86 476.981 1103.91 476.08 1107.79 476.08C1110.67 476.08 1113.11 476.548 1115.12 477.484C1117.17 478.385 1118.81 479.668 1120.06 481.332L1116.42 484.972C1115.42 483.759 1114.22 482.788 1112.83 482.06C1111.48 481.297 1109.8 480.916 1107.79 480.916C1105.64 480.916 1103.99 481.384 1102.85 482.32C1101.74 483.221 1101.19 484.556 1101.19 486.324C1101.19 487.815 1101.62 488.993 1102.49 489.86C1103.39 490.692 1104.96 491.299 1107.22 491.68L1111.07 492.356C1114.32 492.945 1116.7 494.141 1118.19 495.944C1119.68 497.712 1120.43 499.879 1120.43 502.444C1120.43 504.108 1120.13 505.633 1119.54 507.02C1118.99 508.407 1118.14 509.585 1116.99 510.556C1115.88 511.527 1114.5 512.289 1112.83 512.844C1111.2 513.364 1109.33 513.624 1107.22 513.624Z" fill="#0E2A47"/>
<path d="M1127.27 513V508.58H1135.8V481.124H1127.27V476.704H1150.15V481.124H1141.62V508.58H1150.15V513H1127.27Z" fill="#0E2A47"/>
<path d="M1172.8 481.592V513H1166.98V481.592H1155.59V476.704H1184.19V481.592H1172.8Z" fill="#0E2A47"/>
<path d="M1189.94 513V476.704H1212.66V481.592H1195.76V492.148H1212.04V497.036H1195.76V508.112H1212.66V513H1189.94ZM1201.85 474.052L1198.36 472.388L1203.1 463.028L1207.98 465.42L1201.85 474.052Z" fill="#0E2A47"/>
<defs>
<clipPath id="clip0_358_5370">
<rect width="249.148" height="286.521" fill="white" transform="translate(155.574 70.3431)"/>
</clipPath>
</defs>
</svg>
