<svg width="509" height="679" viewBox="0 0 509 679" fill="none" xmlns="http://www.w3.org/2000/svg">
<rect width="509" height="679" fill="#0E2A47"/>
<path d="M75.376 640.626V629.458H82.368V630.962H77.168V634.21H82.176V635.714H77.168V639.122H82.368V640.626H75.376ZM85.1297 640.626V629.458H92.3138V630.962H86.9218V634.21H91.8177V635.714H86.9218V640.626H85.1297ZM96.6275 640.626H94.8515V629.458H99.0275C100.094 629.458 100.905 629.756 101.459 630.354C102.025 630.951 102.307 631.772 102.307 632.818C102.307 633.671 102.1 634.375 101.684 634.93C101.268 635.484 100.67 635.826 99.8915 635.954L102.467 640.626H100.484L98.1155 636.114H96.6275V640.626ZM98.7715 634.674C99.8808 634.674 100.436 634.167 100.436 633.154V632.466C100.436 631.452 99.8808 630.946 98.7715 630.946H96.6275V634.674H98.7715ZM104.637 640.626V629.458H111.629V630.962H106.429V634.21H111.437V635.714H106.429V639.122H111.629V640.626H104.637ZM114.295 640.626V639.266H116.919V630.818H114.295V629.458H121.335V630.818H118.711V639.266H121.335V640.626H114.295ZM133.866 640.626V629.458H138.042C139.109 629.458 139.92 629.756 140.474 630.354C141.04 630.951 141.322 631.772 141.322 632.818C141.322 633.863 141.04 634.684 140.474 635.282C139.92 635.879 139.109 636.178 138.042 636.178H135.658V640.626H133.866ZM135.658 634.69H137.77C138.88 634.69 139.434 634.178 139.434 633.154V632.466C139.434 631.452 138.88 630.946 137.77 630.946H135.658V634.69ZM150.148 640.626C149.647 640.626 149.268 640.498 149.012 640.242C148.767 639.986 148.618 639.65 148.564 639.234H148.484C148.324 639.735 148.031 640.124 147.604 640.402C147.188 640.679 146.655 640.818 146.004 640.818C145.162 640.818 144.49 640.599 143.988 640.162C143.487 639.714 143.236 639.1 143.236 638.322C143.236 637.522 143.53 636.914 144.116 636.498C144.714 636.071 145.626 635.858 146.852 635.858H148.436V635.218C148.436 634.098 147.844 633.538 146.66 633.538C146.127 633.538 145.695 633.644 145.364 633.858C145.034 634.06 144.756 634.332 144.532 634.674L143.492 633.826C143.727 633.378 144.122 632.994 144.676 632.674C145.231 632.343 145.946 632.178 146.82 632.178C147.866 632.178 148.687 632.428 149.284 632.93C149.882 633.431 150.18 634.156 150.18 635.106V639.25H151.22V640.626H150.148ZM146.5 639.538C147.066 639.538 147.53 639.41 147.892 639.154C148.255 638.898 148.436 638.567 148.436 638.162V636.962H146.884C145.626 636.962 144.996 637.34 144.996 638.098V638.418C144.996 638.791 145.13 639.074 145.396 639.266C145.663 639.447 146.031 639.538 146.5 639.538ZM153.246 639.218H155.438V633.778H153.246V632.37H157.182V634.562H157.278C157.353 634.274 157.459 633.996 157.598 633.73C157.737 633.463 157.913 633.234 158.126 633.042C158.339 632.839 158.601 632.679 158.91 632.562C159.219 632.434 159.582 632.37 159.998 632.37H160.99V634.034H159.358C158.718 634.034 158.195 634.226 157.79 634.61C157.385 634.983 157.182 635.49 157.182 636.13V639.218H160.174V640.626H153.246V639.218ZM167.096 630.866C166.648 630.866 166.333 630.775 166.152 630.594C165.981 630.412 165.896 630.188 165.896 629.922V629.586C165.896 629.319 165.981 629.095 166.152 628.914C166.333 628.732 166.642 628.642 167.08 628.642C167.528 628.642 167.837 628.732 168.008 628.914C168.189 629.095 168.28 629.319 168.28 629.586V629.922C168.28 630.188 168.189 630.412 168.008 630.594C167.837 630.775 167.533 630.866 167.096 630.866ZM163.4 639.218H166.216V633.778H163.4V632.37H167.96V639.218H170.6V640.626H163.4V639.218ZM176.353 640.818C175.457 640.818 174.684 640.674 174.033 640.386C173.393 640.098 172.876 639.714 172.481 639.234L173.553 638.274C173.916 638.668 174.321 638.972 174.769 639.186C175.228 639.388 175.767 639.49 176.385 639.49C176.951 639.49 177.404 639.394 177.745 639.202C178.097 639.01 178.273 638.711 178.273 638.306C178.273 638.135 178.241 637.991 178.177 637.874C178.113 637.756 178.023 637.66 177.905 637.586C177.788 637.511 177.649 637.452 177.489 637.41C177.34 637.367 177.18 637.335 177.009 637.314L175.697 637.106C175.377 637.063 175.052 636.994 174.721 636.898C174.391 636.802 174.092 636.668 173.825 636.498C173.569 636.316 173.356 636.087 173.185 635.81C173.025 635.532 172.945 635.18 172.945 634.754C172.945 633.911 173.265 633.271 173.905 632.834C174.556 632.396 175.409 632.178 176.465 632.178C177.233 632.178 177.895 632.295 178.449 632.53C179.015 632.754 179.484 633.068 179.857 633.474L178.881 634.498C178.668 634.252 178.364 634.028 177.969 633.826C177.575 633.612 177.052 633.506 176.401 633.506C175.239 633.506 174.657 633.874 174.657 634.61C174.657 634.962 174.78 635.207 175.025 635.346C175.281 635.474 175.58 635.559 175.921 635.602L177.233 635.81C177.564 635.863 177.889 635.932 178.209 636.018C178.54 636.103 178.833 636.236 179.089 636.418C179.356 636.588 179.569 636.812 179.729 637.09C179.9 637.367 179.985 637.719 179.985 638.146C179.985 638.978 179.66 639.634 179.009 640.114C178.369 640.583 177.484 640.818 176.353 640.818ZM192.389 640.626V629.458H196.565C197.632 629.458 198.442 629.756 198.997 630.354C199.562 630.951 199.845 631.772 199.845 632.818C199.845 633.863 199.562 634.684 198.997 635.282C198.442 635.879 197.632 636.178 196.565 636.178H194.181V640.626H192.389ZM194.181 634.69H196.293C197.402 634.69 197.957 634.178 197.957 633.154V632.466C197.957 631.452 197.402 630.946 196.293 630.946H194.181V634.69ZM208.671 640.626C208.169 640.626 207.791 640.498 207.535 640.242C207.289 639.986 207.14 639.65 207.087 639.234H207.007C206.847 639.735 206.553 640.124 206.127 640.402C205.711 640.679 205.177 640.818 204.527 640.818C203.684 640.818 203.012 640.599 202.511 640.162C202.009 639.714 201.759 639.1 201.759 638.322C201.759 637.522 202.052 636.914 202.639 636.498C203.236 636.071 204.148 635.858 205.375 635.858H206.959V635.218C206.959 634.098 206.367 633.538 205.183 633.538C204.649 633.538 204.217 633.644 203.887 633.858C203.556 634.06 203.279 634.332 203.055 634.674L202.015 633.826C202.249 633.378 202.644 632.994 203.199 632.674C203.753 632.343 204.468 632.178 205.343 632.178C206.388 632.178 207.209 632.428 207.807 632.93C208.404 633.431 208.703 634.156 208.703 635.106V639.25H209.743V640.626H208.671ZM205.023 639.538C205.588 639.538 206.052 639.41 206.415 639.154C206.777 638.898 206.959 638.567 206.959 638.162V636.962H205.407C204.148 636.962 203.519 637.34 203.519 638.098V638.418C203.519 638.791 203.652 639.074 203.919 639.266C204.185 639.447 204.553 639.538 205.023 639.538ZM211.897 640.626V632.37H213.641V633.778H213.721C213.806 633.564 213.913 633.362 214.041 633.17C214.179 632.967 214.345 632.796 214.537 632.658C214.729 632.508 214.953 632.391 215.209 632.306C215.465 632.22 215.763 632.178 216.105 632.178C216.937 632.178 217.609 632.45 218.121 632.994C218.633 633.538 218.889 634.311 218.889 635.314V640.626H217.145V635.57C217.145 634.258 216.574 633.602 215.433 633.602C215.209 633.602 214.99 633.634 214.777 633.698C214.563 633.751 214.371 633.836 214.201 633.954C214.03 634.071 213.891 634.22 213.785 634.402C213.689 634.583 213.641 634.791 213.641 635.026V640.626H211.897ZM225.602 640.626C224.877 640.626 224.344 640.434 224.002 640.05C223.661 639.655 223.49 639.148 223.49 638.53V633.778H220.946V632.37H222.754C223.064 632.37 223.282 632.311 223.41 632.194C223.538 632.066 223.602 631.842 223.602 631.522V629.458H225.234V632.37H228.754V633.778H225.234V639.218H228.754V640.626H225.602ZM231.404 628.786H233.148V633.778H233.228C233.313 633.564 233.42 633.362 233.548 633.17C233.687 632.967 233.852 632.796 234.044 632.658C234.236 632.508 234.46 632.391 234.716 632.306C234.972 632.22 235.271 632.178 235.612 632.178C236.444 632.178 237.116 632.45 237.628 632.994C238.14 633.538 238.396 634.311 238.396 635.314V640.626H236.652V635.57C236.652 634.258 236.081 633.602 234.94 633.602C234.716 633.602 234.497 633.634 234.284 633.698C234.071 633.751 233.879 633.836 233.708 633.954C233.537 634.071 233.399 634.22 233.292 634.402C233.196 634.583 233.148 634.791 233.148 635.026V640.626H231.404V628.786ZM244.806 631.362L243.734 630.85L245.19 627.97L246.694 628.706L244.806 631.362ZM244.79 640.818C244.16 640.818 243.595 640.716 243.094 640.514C242.592 640.311 242.171 640.023 241.83 639.65C241.488 639.276 241.227 638.828 241.046 638.306C240.864 637.772 240.774 637.175 240.774 636.514C240.774 635.852 240.864 635.255 241.046 634.722C241.238 634.188 241.499 633.735 241.83 633.362C242.171 632.978 242.582 632.684 243.062 632.482C243.542 632.279 244.075 632.178 244.662 632.178C245.238 632.178 245.76 632.279 246.23 632.482C246.699 632.674 247.099 632.951 247.43 633.314C247.76 633.676 248.011 634.108 248.182 634.61C248.363 635.111 248.454 635.666 248.454 636.274V636.93H242.534V637.202C242.534 637.852 242.736 638.386 243.142 638.802C243.547 639.207 244.107 639.41 244.822 639.41C245.355 639.41 245.808 639.298 246.182 639.074C246.566 638.839 246.875 638.53 247.11 638.146L248.198 639.106C247.92 639.586 247.494 639.991 246.918 640.322C246.352 640.652 245.643 640.818 244.79 640.818ZM244.662 633.506C244.352 633.506 244.064 633.559 243.798 633.666C243.542 633.772 243.318 633.927 243.126 634.13C242.944 634.322 242.8 634.551 242.694 634.818C242.587 635.084 242.534 635.378 242.534 635.698V635.81H246.678V635.65C246.678 634.999 246.491 634.482 246.118 634.098C245.755 633.703 245.27 633.506 244.662 633.506ZM254.368 640.818C253.76 640.818 253.21 640.716 252.72 640.514C252.24 640.311 251.829 640.023 251.488 639.65C251.157 639.276 250.901 638.823 250.72 638.29C250.538 637.756 250.448 637.159 250.448 636.498C250.448 635.836 250.538 635.239 250.72 634.706C250.901 634.172 251.157 633.719 251.488 633.346C251.829 632.972 252.24 632.684 252.72 632.482C253.21 632.279 253.76 632.178 254.368 632.178C254.976 632.178 255.52 632.279 256 632.482C256.49 632.684 256.901 632.972 257.232 633.346C257.573 633.719 257.834 634.172 258.016 634.706C258.197 635.239 258.288 635.836 258.288 636.498C258.288 637.159 258.197 637.756 258.016 638.29C257.834 638.823 257.573 639.276 257.232 639.65C256.901 640.023 256.49 640.311 256 640.514C255.52 640.716 254.976 640.818 254.368 640.818ZM254.368 639.442C255.008 639.442 255.514 639.25 255.888 638.866C256.272 638.471 256.464 637.89 256.464 637.122V635.874C256.464 635.106 256.272 634.53 255.888 634.146C255.514 633.751 255.008 633.554 254.368 633.554C253.728 633.554 253.216 633.751 252.832 634.146C252.458 634.53 252.272 635.106 252.272 635.874V637.122C252.272 637.89 252.458 638.471 252.832 638.866C253.216 639.25 253.728 639.442 254.368 639.442ZM260.665 640.626V632.37H262.409V633.778H262.489C262.575 633.564 262.681 633.362 262.809 633.17C262.948 632.967 263.113 632.796 263.305 632.658C263.497 632.508 263.721 632.391 263.977 632.306C264.233 632.22 264.532 632.178 264.873 632.178C265.705 632.178 266.377 632.45 266.889 632.994C267.401 633.538 267.657 634.311 267.657 635.314V640.626H265.913V635.57C265.913 634.258 265.343 633.602 264.201 633.602C263.977 633.602 263.759 633.634 263.545 633.698C263.332 633.751 263.14 633.836 262.969 633.954C262.799 634.071 262.66 634.22 262.553 634.402C262.457 634.583 262.409 634.791 262.409 635.026V640.626H260.665ZM271.459 636.626V634.882H276.291V636.626H271.459ZM286.221 640.626L285.373 637.65H281.821L280.973 640.626H279.149L282.413 629.458H284.861L288.125 640.626H286.221ZM283.661 631.266H283.533L282.157 636.162H285.037L283.661 631.266ZM293.399 640.818C292.503 640.818 291.729 640.674 291.079 640.386C290.439 640.098 289.921 639.714 289.527 639.234L290.599 638.274C290.961 638.668 291.367 638.972 291.815 639.186C292.273 639.388 292.812 639.49 293.431 639.49C293.996 639.49 294.449 639.394 294.791 639.202C295.143 639.01 295.319 638.711 295.319 638.306C295.319 638.135 295.287 637.991 295.223 637.874C295.159 637.756 295.068 637.66 294.951 637.586C294.833 637.511 294.695 637.452 294.535 637.41C294.385 637.367 294.225 637.335 294.055 637.314L292.743 637.106C292.423 637.063 292.097 636.994 291.767 636.898C291.436 636.802 291.137 636.668 290.871 636.498C290.615 636.316 290.401 636.087 290.231 635.81C290.071 635.532 289.991 635.18 289.991 634.754C289.991 633.911 290.311 633.271 290.951 632.834C291.601 632.396 292.455 632.178 293.511 632.178C294.279 632.178 294.94 632.295 295.495 632.53C296.06 632.754 296.529 633.068 296.903 633.474L295.927 634.498C295.713 634.252 295.409 634.028 295.015 633.826C294.62 633.612 294.097 633.506 293.447 633.506C292.284 633.506 291.703 633.874 291.703 634.61C291.703 634.962 291.825 635.207 292.071 635.346C292.327 635.474 292.625 635.559 292.967 635.602L294.279 635.81C294.609 635.863 294.935 635.932 295.255 636.018C295.585 636.103 295.879 636.236 296.135 636.418C296.401 636.588 296.615 636.812 296.775 637.09C296.945 637.367 297.031 637.719 297.031 638.146C297.031 638.978 296.705 639.634 296.055 640.114C295.415 640.583 294.529 640.818 293.399 640.818ZM303.152 640.818C302.256 640.818 301.483 640.674 300.832 640.386C300.192 640.098 299.675 639.714 299.28 639.234L300.352 638.274C300.715 638.668 301.12 638.972 301.568 639.186C302.027 639.388 302.566 639.49 303.184 639.49C303.75 639.49 304.203 639.394 304.544 639.202C304.896 639.01 305.072 638.711 305.072 638.306C305.072 638.135 305.04 637.991 304.976 637.874C304.912 637.756 304.822 637.66 304.704 637.586C304.587 637.511 304.448 637.452 304.288 637.41C304.139 637.367 303.979 637.335 303.808 637.314L302.496 637.106C302.176 637.063 301.851 636.994 301.52 636.898C301.19 636.802 300.891 636.668 300.624 636.498C300.368 636.316 300.155 636.087 299.984 635.81C299.824 635.532 299.744 635.18 299.744 634.754C299.744 633.911 300.064 633.271 300.704 632.834C301.355 632.396 302.208 632.178 303.264 632.178C304.032 632.178 304.694 632.295 305.248 632.53C305.814 632.754 306.283 633.068 306.656 633.474L305.68 634.498C305.467 634.252 305.163 634.028 304.768 633.826C304.374 633.612 303.851 633.506 303.2 633.506C302.038 633.506 301.456 633.874 301.456 634.61C301.456 634.962 301.579 635.207 301.824 635.346C302.08 635.474 302.379 635.559 302.72 635.602L304.032 635.81C304.363 635.863 304.688 635.932 305.008 636.018C305.339 636.103 305.632 636.236 305.888 636.418C306.155 636.588 306.368 636.812 306.528 637.09C306.699 637.367 306.784 637.719 306.784 638.146C306.784 638.978 306.459 639.634 305.808 640.114C305.168 640.583 304.283 640.818 303.152 640.818ZM315.962 640.626C315.461 640.626 315.082 640.498 314.826 640.242C314.581 639.986 314.431 639.65 314.378 639.234H314.298C314.138 639.735 313.845 640.124 313.418 640.402C313.002 640.679 312.469 640.818 311.818 640.818C310.975 640.818 310.303 640.599 309.802 640.162C309.301 639.714 309.05 639.1 309.05 638.322C309.05 637.522 309.343 636.914 309.93 636.498C310.527 636.071 311.439 635.858 312.666 635.858H314.25V635.218C314.25 634.098 313.658 633.538 312.474 633.538C311.941 633.538 311.509 633.644 311.178 633.858C310.847 634.06 310.57 634.332 310.346 634.674L309.306 633.826C309.541 633.378 309.935 632.994 310.49 632.674C311.045 632.343 311.759 632.178 312.634 632.178C313.679 632.178 314.501 632.428 315.098 632.93C315.695 633.431 315.994 634.156 315.994 635.106V639.25H317.034V640.626H315.962ZM312.314 639.538C312.879 639.538 313.343 639.41 313.706 639.154C314.069 638.898 314.25 638.567 314.25 638.162V636.962H312.698C311.439 636.962 310.81 637.34 310.81 638.098V638.418C310.81 638.791 310.943 639.074 311.21 639.266C311.477 639.447 311.845 639.538 312.314 639.538ZM322.66 640.818C321.764 640.818 320.99 640.674 320.34 640.386C319.7 640.098 319.182 639.714 318.788 639.234L319.86 638.274C320.222 638.668 320.628 638.972 321.076 639.186C321.534 639.388 322.073 639.49 322.692 639.49C323.257 639.49 323.71 639.394 324.052 639.202C324.404 639.01 324.58 638.711 324.58 638.306C324.58 638.135 324.548 637.991 324.484 637.874C324.42 637.756 324.329 637.66 324.212 637.586C324.094 637.511 323.956 637.452 323.796 637.41C323.646 637.367 323.486 637.335 323.316 637.314L322.004 637.106C321.684 637.063 321.358 636.994 321.028 636.898C320.697 636.802 320.398 636.668 320.132 636.498C319.876 636.316 319.662 636.087 319.492 635.81C319.332 635.532 319.252 635.18 319.252 634.754C319.252 633.911 319.572 633.271 320.212 632.834C320.862 632.396 321.716 632.178 322.772 632.178C323.54 632.178 324.201 632.295 324.756 632.53C325.321 632.754 325.79 633.068 326.164 633.474L325.188 634.498C324.974 634.252 324.67 634.028 324.276 633.826C323.881 633.612 323.358 633.506 322.708 633.506C321.545 633.506 320.964 633.874 320.964 634.61C320.964 634.962 321.086 635.207 321.332 635.346C321.588 635.474 321.886 635.559 322.228 635.602L323.54 635.81C323.87 635.863 324.196 635.932 324.516 636.018C324.846 636.103 325.14 636.236 325.396 636.418C325.662 636.588 325.876 636.812 326.036 637.09C326.206 637.367 326.292 637.719 326.292 638.146C326.292 638.978 325.966 639.634 325.316 640.114C324.676 640.583 323.79 640.818 322.66 640.818ZM343.863 639.218H343.783C343.698 639.431 343.586 639.639 343.447 639.842C343.319 640.034 343.159 640.204 342.967 640.354C342.775 640.492 342.551 640.604 342.295 640.69C342.039 640.775 341.741 640.818 341.399 640.818C340.567 640.818 339.895 640.546 339.383 640.002C338.871 639.458 338.615 638.684 338.615 637.682V632.37H340.359V637.426C340.359 638.738 340.93 639.394 342.071 639.394C342.295 639.394 342.514 639.367 342.727 639.314C342.941 639.25 343.133 639.159 343.303 639.042C343.474 638.924 343.607 638.78 343.703 638.61C343.81 638.428 343.863 638.215 343.863 637.97V632.37H345.607V640.626H343.863V639.218ZM348.449 640.626V632.37H350.193V633.778H350.273C350.358 633.564 350.465 633.362 350.593 633.17C350.732 632.967 350.897 632.796 351.089 632.658C351.281 632.508 351.505 632.391 351.761 632.306C352.017 632.22 352.316 632.178 352.657 632.178C353.489 632.178 354.161 632.45 354.673 632.994C355.185 633.538 355.441 634.311 355.441 635.314V640.626H353.697V635.57C353.697 634.258 353.126 633.602 351.985 633.602C351.761 633.602 351.542 633.634 351.329 633.698C351.116 633.751 350.924 633.836 350.753 633.954C350.582 634.071 350.444 634.22 350.337 634.402C350.241 634.583 350.193 634.791 350.193 635.026V640.626H348.449ZM362.171 630.866C361.723 630.866 361.408 630.775 361.227 630.594C361.056 630.412 360.971 630.188 360.971 629.922V629.586C360.971 629.319 361.056 629.095 361.227 628.914C361.408 628.732 361.717 628.642 362.155 628.642C362.603 628.642 362.912 628.732 363.083 628.914C363.264 629.095 363.355 629.319 363.355 629.586V629.922C363.355 630.188 363.264 630.412 363.083 630.594C362.912 630.775 362.608 630.866 362.171 630.866ZM358.475 639.218H361.291V633.778H358.475V632.37H363.035V639.218H365.675V640.626H358.475V639.218ZM370.34 640.626L367.38 632.37H369.188L370.324 635.858L371.396 639.17H371.492L372.564 635.858L373.7 632.37H375.444L372.484 640.626H370.34ZM381.342 640.818C380.713 640.818 380.148 640.716 379.646 640.514C379.145 640.311 378.724 640.023 378.382 639.65C378.041 639.276 377.78 638.828 377.598 638.306C377.417 637.772 377.326 637.175 377.326 636.514C377.326 635.852 377.417 635.255 377.598 634.722C377.79 634.188 378.052 633.735 378.382 633.362C378.724 632.978 379.134 632.684 379.614 632.482C380.094 632.279 380.628 632.178 381.214 632.178C381.79 632.178 382.313 632.279 382.782 632.482C383.252 632.674 383.652 632.951 383.982 633.314C384.313 633.676 384.564 634.108 384.734 634.61C384.916 635.111 385.006 635.666 385.006 636.274V636.93H379.086V637.202C379.086 637.852 379.289 638.386 379.694 638.802C380.1 639.207 380.66 639.41 381.374 639.41C381.908 639.41 382.361 639.298 382.734 639.074C383.118 638.839 383.428 638.53 383.662 638.146L384.75 639.106C384.473 639.586 384.046 639.991 383.47 640.322C382.905 640.652 382.196 640.818 381.342 640.818ZM381.214 633.506C380.905 633.506 380.617 633.559 380.35 633.666C380.094 633.772 379.87 633.927 379.678 634.13C379.497 634.322 379.353 634.551 379.246 634.818C379.14 635.084 379.086 635.378 379.086 635.698V635.81H383.23V635.65C383.23 634.999 383.044 634.482 382.67 634.098C382.308 633.703 381.822 633.506 381.214 633.506ZM387.336 639.218H389.528V633.778H387.336V632.37H391.272V634.562H391.368C391.443 634.274 391.549 633.996 391.688 633.73C391.827 633.463 392.003 633.234 392.216 633.042C392.429 632.839 392.691 632.679 393 632.562C393.309 632.434 393.672 632.37 394.088 632.37H395.08V634.034H393.448C392.808 634.034 392.285 634.226 391.88 634.61C391.475 634.983 391.272 635.49 391.272 636.13V639.218H394.264V640.626H387.336V639.218ZM400.69 640.818C399.794 640.818 399.02 640.674 398.37 640.386C397.73 640.098 397.212 639.714 396.818 639.234L397.89 638.274C398.252 638.668 398.658 638.972 399.106 639.186C399.564 639.388 400.103 639.49 400.722 639.49C401.287 639.49 401.74 639.394 402.082 639.202C402.434 639.01 402.61 638.711 402.61 638.306C402.61 638.135 402.578 637.991 402.514 637.874C402.45 637.756 402.359 637.66 402.242 637.586C402.124 637.511 401.986 637.452 401.826 637.41C401.676 637.367 401.516 637.335 401.346 637.314L400.034 637.106C399.714 637.063 399.388 636.994 399.058 636.898C398.727 636.802 398.428 636.668 398.162 636.498C397.906 636.316 397.692 636.087 397.522 635.81C397.362 635.532 397.282 635.18 397.282 634.754C397.282 633.911 397.602 633.271 398.242 632.834C398.892 632.396 399.746 632.178 400.802 632.178C401.57 632.178 402.231 632.295 402.786 632.53C403.351 632.754 403.82 633.068 404.194 633.474L403.218 634.498C403.004 634.252 402.7 634.028 402.306 633.826C401.911 633.612 401.388 633.506 400.738 633.506C399.575 633.506 398.994 633.874 398.994 634.61C398.994 634.962 399.116 635.207 399.362 635.346C399.618 635.474 399.916 635.559 400.258 635.602L401.57 635.81C401.9 635.863 402.226 635.932 402.546 636.018C402.876 636.103 403.17 636.236 403.426 636.418C403.692 636.588 403.906 636.812 404.066 637.09C404.236 637.367 404.322 637.719 404.322 638.146C404.322 638.978 403.996 639.634 403.346 640.114C402.706 640.583 401.82 640.818 400.69 640.818ZM410.94 630.866C410.492 630.866 410.177 630.775 409.996 630.594C409.825 630.412 409.74 630.188 409.74 629.922V629.586C409.74 629.319 409.825 629.095 409.996 628.914C410.177 628.732 410.486 628.642 410.924 628.642C411.372 628.642 411.681 628.732 411.852 628.914C412.033 629.095 412.124 629.319 412.124 629.586V629.922C412.124 630.188 412.033 630.412 411.852 630.594C411.681 630.775 411.377 630.866 410.94 630.866ZM407.244 639.218H410.06V633.778H407.244V632.37H411.804V639.218H414.444V640.626H407.244V639.218ZM420.677 640.626C419.952 640.626 419.419 640.434 419.077 640.05C418.736 639.655 418.565 639.148 418.565 638.53V633.778H416.021V632.37H417.829C418.139 632.37 418.357 632.311 418.485 632.194C418.613 632.066 418.677 631.842 418.677 631.522V629.458H420.309V632.37H423.829V633.778H420.309V639.218H423.829V640.626H420.677ZM430.127 631.362L429.055 630.85L430.511 627.97L432.015 628.706L430.127 631.362ZM430.111 640.818C429.482 640.818 428.916 640.716 428.415 640.514C427.914 640.311 427.492 640.023 427.151 639.65C426.81 639.276 426.548 638.828 426.367 638.306C426.186 637.772 426.095 637.175 426.095 636.514C426.095 635.852 426.186 635.255 426.367 634.722C426.559 634.188 426.82 633.735 427.151 633.362C427.492 632.978 427.903 632.684 428.383 632.482C428.863 632.279 429.396 632.178 429.983 632.178C430.559 632.178 431.082 632.279 431.551 632.482C432.02 632.674 432.42 632.951 432.751 633.314C433.082 633.676 433.332 634.108 433.503 634.61C433.684 635.111 433.775 635.666 433.775 636.274V636.93H427.855V637.202C427.855 637.852 428.058 638.386 428.463 638.802C428.868 639.207 429.428 639.41 430.143 639.41C430.676 639.41 431.13 639.298 431.503 639.074C431.887 638.839 432.196 638.53 432.431 638.146L433.519 639.106C433.242 639.586 432.815 639.991 432.239 640.322C431.674 640.652 430.964 640.818 430.111 640.818ZM429.983 633.506C429.674 633.506 429.386 633.559 429.119 633.666C428.863 633.772 428.639 633.927 428.447 634.13C428.266 634.322 428.122 634.551 428.015 634.818C427.908 635.084 427.855 635.378 427.855 635.698V635.81H431.999V635.65C431.999 634.999 431.812 634.482 431.439 634.098C431.076 633.703 430.591 633.506 429.983 633.506Z" fill="#DBDFE4"/>
<path d="M111 604.363V568.52H122.573C124.214 568.476 125.85 568.723 127.405 569.25C128.683 569.71 129.837 570.46 130.775 571.441C131.68 572.507 132.35 573.751 132.742 575.093C133.197 576.719 133.405 578.405 133.36 580.093C133.38 581.802 133.153 583.505 132.686 585.149C132.217 586.59 131.473 587.925 130.495 589.082C129.513 590.184 128.279 591.032 126.899 591.554C125.259 592.138 123.527 592.424 121.787 592.397H115.438V604.363H111ZM115.438 588.464H121.787C123.01 588.51 124.231 588.319 125.382 587.902C126.267 587.548 127.028 586.942 127.573 586.161C128.109 585.385 128.473 584.504 128.641 583.576C128.763 582.418 128.763 581.251 128.641 580.093C128.66 578.923 128.546 577.755 128.303 576.61C128.136 575.751 127.771 574.943 127.236 574.25C126.695 573.615 125.998 573.131 125.214 572.846C124.137 572.531 123.02 572.38 121.899 572.396H115.157L115.438 588.464Z" fill="#DBDFE4"/>
<path d="M144.509 604.363V603.97C145.352 600.655 146.251 597.172 147.262 593.689C148.273 590.206 149.341 586.779 150.464 583.52C151.588 580.262 152.655 577.34 153.667 574.756C154.678 572.172 155.689 570.037 156.476 568.52H162.094C163.171 570.532 164.11 572.616 164.903 574.756C165.97 577.34 167.038 580.374 168.161 583.52C169.285 586.666 170.296 590.149 171.363 593.689C172.431 597.228 173.274 600.655 174.06 603.97V604.363H169.566C169.566 604.026 169.566 603.352 169.116 602.34L168.442 599.812C168.442 599.138 168.105 598.408 167.88 597.678C167.656 596.947 167.543 596.273 167.318 595.543H151.026C151.026 596.273 150.633 597.003 150.464 597.734C150.296 598.464 150.071 599.194 149.903 599.925C149.734 600.655 149.509 601.385 149.341 602.116C149.172 602.846 149.004 603.576 148.835 604.363H144.509ZM159.172 572.116C158.498 573.352 157.88 574.7 157.262 576.161C156.558 577.698 155.939 579.274 155.408 580.88C154.79 582.509 154.228 584.25 153.667 585.992C153.105 587.734 152.543 589.644 151.981 591.61H166.476C165.914 589.7 165.352 587.902 164.79 585.992C164.229 584.082 163.667 582.509 163.049 580.88C162.431 579.25 161.813 577.621 161.195 576.161C160.577 574.7 159.959 573.464 159.172 572.116Z" fill="#DBDFE4"/>
<path d="M185.203 604.363V568.52H188.181L207.676 595.037V568.52H212.17V604.363H209.192L189.81 577.734V604.251L185.203 604.363Z" fill="#DBDFE4"/>
<path d="M234.549 604.363V572.396H223.313V568.52H250.28V572.396H239.044V604.363H234.549Z" fill="#DBDFE4"/>
<path d="M261.423 604.363V568.52H265.918V583.352H283.502V568.52H288.109V604.363H283.671V587.509H265.918V604.363H261.423Z" fill="#DBDFE4"/>
<path d="M299.26 594.36V568.292H319.485V572.169H303.81V583.405H317.968V587.394H303.81V595.034C303.779 595.849 303.874 596.664 304.091 597.45C304.294 598.07 304.619 598.643 305.046 599.135C305.498 599.533 306.01 599.855 306.563 600.09C307.23 600.325 307.934 600.439 308.642 600.427H319.485V604.36H308.979C307.554 604.389 306.133 604.2 304.765 603.798C303.626 603.448 302.586 602.831 301.732 602C300.898 601.138 300.265 600.102 299.878 598.967C299.418 597.476 299.209 595.919 299.26 594.36ZM306.563 564.472V563.742L311.226 557H315.889V557.73L309.204 564.472H306.563Z" fill="#DBDFE4"/>
<path d="M330.628 587.874V584.953C330.664 582.598 331.081 580.264 331.864 578.043C332.405 576.104 333.385 574.316 334.729 572.818C335.994 571.342 337.62 570.219 339.448 569.56C341.486 568.759 343.664 568.376 345.853 568.436C348.036 568.387 350.208 568.749 352.257 569.503C354.045 570.183 355.644 571.281 356.92 572.706C358.25 574.202 359.246 575.964 359.842 577.874C360.5 580.175 360.822 582.56 360.797 584.953V587.874C360.814 590.212 360.493 592.539 359.842 594.785C359.233 596.707 358.239 598.484 356.92 600.009C355.632 601.434 354.038 602.548 352.257 603.268C348.093 604.728 343.556 604.728 339.392 603.268C337.604 602.588 336.005 601.49 334.729 600.065C333.397 598.58 332.418 596.813 331.864 594.897C331.088 592.635 330.671 590.265 330.628 587.874ZM335.122 587.874C335.09 589.769 335.317 591.659 335.797 593.492C336.175 594.924 336.844 596.263 337.763 597.425C338.638 598.455 339.759 599.247 341.021 599.728C342.499 600.252 344.061 600.499 345.628 600.459C347.195 600.495 348.756 600.248 350.235 599.728C351.49 599.232 352.607 598.443 353.493 597.425C354.393 596.259 355.043 594.92 355.404 593.492C355.883 591.659 356.11 589.769 356.078 587.874V584.953C356.105 583.059 355.878 581.169 355.404 579.335C355.044 577.924 354.393 576.603 353.493 575.458C352.623 574.423 351.501 573.63 350.235 573.155C348.76 572.616 347.199 572.35 345.628 572.369C344.057 572.345 342.495 572.611 341.021 573.155C339.748 573.616 338.622 574.412 337.763 575.458C336.844 576.599 336.175 577.92 335.797 579.335C335.322 581.169 335.096 583.059 335.122 584.953V587.874Z" fill="#DBDFE4"/>
<path d="M371.941 604.363V568.52H374.919L394.414 595.037V568.52H398.852V604.363H395.706L376.436 577.734V604.251L371.941 604.363Z" fill="#DBDFE4"/>
<path d="M265.58 504.323L287.478 543.368H299.942V477.983H306.222V469.561H282.269V477.983H290.545V527.74L290.156 530.077L265.58 485.861V504.323Z" fill="#DBDFE4"/>
<path d="M368.539 469.561H315.667V477.983H322.678V534.994H315.667V543.368H368.539V522.53H358.559V534.994H332.22V509.97H354.372V501.596H332.22V477.983H358.559V490.447H368.539V469.561Z" fill="#DBDFE4"/>
<path d="M251.558 469.463H222.012V477.983H242.055V534.994H222.207V543.368H270.831V534.994H251.597V509.969H251.558V469.463Z" fill="#4392B2"/>
<path d="M181.506 457H172.159V506.854H181.506V457Z" fill="white"/>
<path d="M194.31 483.047C193.217 481.832 192.039 480.749 190.775 479.797L195.55 471.527C197.915 473.092 200.05 474.936 201.954 477.058C205.07 480.499 207.488 484.556 209.208 489.23C210.928 493.903 211.788 498.902 211.788 504.225C211.788 509.548 210.912 514.546 209.159 519.22C207.439 523.861 205.005 527.918 201.857 531.391C198.741 534.864 195.008 537.606 190.659 539.619C186.342 541.599 181.587 542.589 176.394 542.589C171.298 542.589 166.641 541.647 162.421 539.765C158.202 537.85 154.437 535.14 151.127 531.634C147.816 528.129 145.301 523.975 143.58 519.171C141.86 514.367 141 509.385 141 504.225C141 498.902 141.86 493.903 143.58 489.23C145.333 484.556 147.767 480.499 150.883 477.058C152.659 475.099 154.621 473.378 156.769 471.894L161.508 480.102C160.169 481.173 158.948 482.382 157.845 483.728C155.638 486.39 153.934 489.505 152.733 493.076C151.532 496.614 150.932 500.33 150.932 504.225C150.932 508.769 151.597 512.826 152.928 516.396C154.259 519.934 156.011 522.887 158.186 525.257C160.393 527.594 163.006 529.557 166.024 531.148C169.075 532.738 172.532 533.533 176.394 533.533C180.257 533.533 183.746 532.738 186.861 531.148C190.01 529.557 192.687 527.431 194.895 524.77C197.102 522.076 198.806 518.96 200.006 515.422C201.207 511.884 201.808 508.152 201.808 504.225C201.808 500.2 201.142 496.321 199.812 492.589C198.513 488.824 196.68 485.643 194.31 483.047Z" fill="white"/>
<g clip-path="url(#clip0_358_5297)">
<rect x="137.333" y="113.333" width="233.333" height="106.667" fill="white"/>
<path d="M132.218 59.9993C127.919 59.9993 125.016 83.8237 123.118 106.651C122.057 119.34 119.823 155.576 120.995 195.081C123.244 225.119 124.424 258.411 132.665 286.17C149.695 343.073 199.501 358.642 217.425 363.13C229.159 365.756 240.979 367.009 253.997 366.565C268.213 367.008 278.557 365.136 290.57 363.13C308.438 358.642 358.243 343.073 375.329 286.17C383.12 257.135 386.678 225.543 386.999 195.081C388.172 155.52 385.938 119.34 384.877 106.651C382.978 83.7683 380.076 59.9993 375.776 59.9993C371.477 59.9993 355.117 64.2652 334.96 88.09C308.103 71.9112 253.997 70.9693 253.997 70.9693C253.997 70.9693 199.892 71.9114 173.035 88.09C152.878 64.265 136.573 59.9993 132.217 59.9993H132.218ZM189.115 123.052C213.907 123.052 234.008 142.999 234.008 167.599C234.008 192.2 213.907 212.147 189.115 212.147C164.324 212.147 144.223 192.2 144.223 167.599C144.223 142.999 164.324 123.052 189.115 123.052ZM318.879 123.052C343.67 123.052 363.771 142.999 363.771 167.599C363.771 192.2 343.67 212.147 318.879 212.147C294.088 212.147 273.987 192.2 273.987 167.599C273.987 142.999 294.088 123.052 318.879 123.052ZM253.969 167.247C255.058 167.24 256.147 167.351 257.235 167.6C261.256 168.486 267.565 170.315 267.565 173.307C267.565 176.798 264.104 187.602 258.744 197.243C257.794 198.96 255.952 200.013 253.997 200.013C252.043 200.013 250.201 198.96 249.251 197.243C243.835 187.602 240.429 176.798 240.429 173.307C240.429 170.315 246.682 168.487 250.703 167.6C251.791 167.378 252.88 167.254 253.969 167.247Z" fill="#4392B2"/>
<path d="M195.765 147.209C179.572 147.209 166.451 160.23 166.451 176.298C166.451 192.366 179.572 205.387 195.765 205.387C211.957 205.387 225.079 192.366 225.079 176.298C225.079 160.23 211.957 147.209 195.765 147.209ZM184.151 170.037C180.354 170.037 177.227 166.99 177.227 163.167C177.227 159.399 180.298 156.296 184.151 156.296C187.948 156.296 191.075 159.344 191.075 163.167C191.019 166.99 187.948 170.037 184.151 170.037Z" fill="#4392B2"/>
<path d="M310.452 147.209C294.26 147.209 281.138 160.23 281.138 176.298C281.138 192.366 294.26 205.387 310.452 205.387C326.645 205.387 339.766 192.366 339.766 176.298C339.71 160.23 326.645 147.209 310.452 147.209ZM297.61 170.037C293.813 170.037 290.686 166.99 290.686 163.167C290.686 159.399 293.757 156.296 297.61 156.296C301.407 156.296 304.534 159.344 304.534 163.167C304.478 166.99 301.407 170.037 297.61 170.037Z" fill="#4392B2"/>
</g>
<path d="M417.342 406.656L257.341 406.667L257.341 406.656L254 406.656L90.6669 406.645H90.6595L90.6521 406.645C88.698 406.653 88.0456 406.206 87.6857 405.823C87.1578 405.261 86.5825 404.103 86.0489 401.53L67.3452 219.319C67.5954 215.92 68.2615 214.114 69.2748 212.956C70.2882 211.797 72.1243 210.746 75.9787 210H432.031C435.886 210.746 437.722 211.797 438.735 212.956C439.749 214.115 440.415 215.92 440.665 219.319L421.96 401.541C421.427 404.114 420.851 405.272 420.324 405.834C419.964 406.217 419.311 406.665 417.357 406.656L417.349 406.656H417.342Z" fill="#224E5E" stroke="white" stroke-width="6.66667"/>
<path d="M87.3333 393.333L424 393.334" stroke="white" stroke-width="6.66667"/>
<ellipse cx="254" cy="310" rx="30" ry="26.6667" fill="#4392B2"/>
<path d="M246.528 322.016L257.975 296.554C258.167 296.128 258.523 295.789 258.969 295.605C259.415 295.421 259.918 295.406 260.375 295.563C260.833 295.72 261.21 296.037 261.43 296.45C261.65 296.863 261.697 297.34 261.56 297.785L261.484 297.985L250.037 323.447C249.844 323.872 249.489 324.212 249.043 324.396C248.596 324.58 248.093 324.595 247.636 324.438C247.178 324.281 246.801 323.964 246.581 323.551C246.361 323.138 246.315 322.66 246.451 322.216L246.528 322.016ZM235.468 308.71L243.105 301.437C243.448 301.111 243.909 300.922 244.394 300.908C244.879 300.894 245.351 301.056 245.715 301.361C246.079 301.667 246.307 302.093 246.353 302.553C246.399 303.013 246.259 303.472 245.963 303.837L245.804 304.008L239.517 309.996L245.804 315.983C246.15 316.31 246.352 316.75 246.369 317.213C246.385 317.677 246.215 318.129 245.893 318.477C245.571 318.825 245.121 319.043 244.636 319.085C244.151 319.128 243.668 318.993 243.284 318.707L243.105 318.554L235.468 311.281C235.139 310.968 234.942 310.552 234.913 310.11C234.884 309.668 235.025 309.231 235.31 308.881L235.468 308.71ZM262.196 301.436C262.525 301.122 262.962 300.934 263.426 300.907C263.89 300.879 264.348 301.013 264.716 301.285L264.893 301.436L272.532 308.71C272.86 309.023 273.058 309.44 273.087 309.882C273.116 310.324 272.975 310.76 272.69 311.11L272.532 311.283L264.893 318.547C264.55 318.873 264.089 319.062 263.604 319.076C263.119 319.09 262.647 318.928 262.283 318.623C261.919 318.317 261.691 317.891 261.645 317.431C261.599 316.972 261.739 316.512 262.035 316.147L262.196 315.974L268.479 309.996L262.192 304.007C261.834 303.666 261.633 303.203 261.633 302.721C261.633 302.239 261.834 301.776 262.192 301.436H262.196Z" fill="white"/>
<defs>
<clipPath id="clip0_358_5297">
<rect width="266.667" height="306.667" fill="white" transform="translate(120.667 60)"/>
</clipPath>
</defs>
</svg>
