<svg width="342" height="66" viewBox="0 0 342 66" fill="none" xmlns="http://www.w3.org/2000/svg">
<path d="M158.537 57.402V36.6366H165.241C166.192 36.6109 167.14 36.7542 168.041 37.0597C168.781 37.3258 169.45 37.7603 169.993 38.3291C170.518 38.9464 170.906 39.6672 171.133 40.4447C171.396 41.3869 171.517 42.3634 171.491 43.3414C171.502 44.3316 171.371 45.3182 171.1 46.2707C170.829 47.1053 170.397 47.8791 169.831 48.5491C169.262 49.1873 168.547 49.6786 167.748 49.9812C166.798 50.3198 165.794 50.4852 164.786 50.4694H161.108V57.402H158.537ZM161.108 48.1911H164.786C165.495 48.2179 166.202 48.1073 166.869 47.8656C167.381 47.6602 167.822 47.3095 168.138 46.8566C168.448 46.4072 168.659 45.8967 168.757 45.3594C168.828 44.6886 168.828 44.0122 168.757 43.3414C168.768 42.6636 168.702 41.9866 168.561 41.3235C168.464 40.8259 168.253 40.3577 167.943 39.9564C167.629 39.5886 167.225 39.3082 166.771 39.1428C166.148 38.9606 165.5 38.8729 164.851 38.8824H160.945L161.108 48.1911Z" fill="#0E2A47"/>
<path d="M177.95 57.4021V57.1742C178.438 55.2539 178.959 53.2359 179.545 51.218C180.131 49.2 180.749 47.2146 181.4 45.3268C182.051 43.4391 182.67 41.7466 183.255 40.2494C183.841 38.7522 184.427 37.5154 184.883 36.6366H188.138C188.762 37.8023 189.306 39.0094 189.765 40.2494C190.383 41.7466 191.002 43.5042 191.653 45.3268C192.304 47.1495 192.89 49.1675 193.508 51.218C194.126 53.2685 194.615 55.2539 195.07 57.1742V57.4021H192.466C192.466 57.2068 192.466 56.8162 192.206 56.2303L191.816 54.7657C191.816 54.3751 191.62 53.952 191.49 53.5289C191.36 53.1058 191.295 52.7152 191.165 52.2921H181.726C181.726 52.7152 181.498 53.1383 181.4 53.5614C181.303 53.9845 181.172 54.4077 181.075 54.8308C180.977 55.2539 180.847 55.677 180.749 56.1001C180.652 56.5233 180.554 56.9464 180.456 57.4021H177.95ZM186.445 38.7197C186.055 39.4357 185.697 40.2169 185.339 41.0631C184.93 41.9539 184.572 42.8667 184.264 43.7971C183.906 44.741 183.581 45.75 183.255 46.759C182.93 47.7679 182.605 48.8746 182.279 50.0137H190.676C190.351 48.9071 190.025 47.8656 189.7 46.759C189.374 45.6523 189.049 44.741 188.691 43.7971C188.333 42.8532 187.975 41.9093 187.617 41.0631C187.259 40.2169 186.901 39.5008 186.445 38.7197Z" fill="#0E2A47"/>
<path d="M201.526 57.4021V36.6366H203.251L214.545 51.9991V36.6366H217.149V57.4021H215.424L204.195 41.9744V57.337L201.526 57.4021Z" fill="#0E2A47"/>
<path d="M230.115 57.4021V38.8824H223.605V36.6366H239.228V38.8824H232.718V57.4021H230.115Z" fill="#0E2A47"/>
<path d="M245.684 57.4021V36.6366H248.287V45.2292H258.475V36.6366H261.144V57.4021H258.573V47.6377H248.287V57.4021H245.684Z" fill="#0E2A47"/>
<path d="M267.604 51.607V36.5049H279.321V38.7507H270.24V45.2602H278.443V47.5711H270.24V51.9976C270.222 52.4697 270.277 52.9418 270.403 53.3972C270.521 53.7563 270.709 54.0883 270.957 54.3736C271.218 54.6039 271.515 54.7907 271.835 54.9269C272.222 55.063 272.63 55.1292 273.04 55.1222H279.321V57.4005H273.235C272.409 57.4175 271.586 57.3078 270.794 57.0751C270.134 56.8719 269.531 56.515 269.036 56.0335C268.553 55.5339 268.186 54.9337 267.962 54.2759C267.696 53.4122 267.575 52.5104 267.604 51.607ZM271.835 34.2916V33.8685L274.537 29.9628H277.238V30.3859L273.365 34.2916H271.835Z" fill="#0E2A47"/>
<path d="M285.777 47.85V46.1575C285.798 44.7931 286.04 43.4411 286.493 42.1541C286.806 41.0309 287.374 39.9951 288.153 39.1272C288.886 38.272 289.828 37.6216 290.887 37.2394C292.068 36.7753 293.33 36.5539 294.598 36.5885C295.862 36.5602 297.121 36.77 298.308 37.2069C299.344 37.6005 300.27 38.2367 301.009 39.0621C301.78 39.9288 302.357 40.9496 302.702 42.0565C303.084 43.3896 303.27 44.771 303.255 46.1575V47.85C303.265 49.2042 303.079 50.5527 302.702 51.8534C302.349 52.9669 301.773 53.9968 301.009 54.8803C300.263 55.7058 299.34 56.3512 298.308 56.7681C295.896 57.6141 293.267 57.6141 290.855 56.7681C289.819 56.3745 288.892 55.7383 288.153 54.9129C287.382 54.0523 286.814 53.0287 286.493 51.9184C286.044 50.6079 285.802 49.2352 285.777 47.85ZM288.381 47.85C288.362 48.9476 288.494 50.0427 288.771 51.1048C288.991 51.9344 289.379 52.7099 289.911 53.3831C290.418 53.9796 291.067 54.4386 291.798 54.7176C292.655 55.0208 293.559 55.1642 294.467 55.1407C295.375 55.162 296.279 55.0186 297.136 54.7176C297.863 54.4303 298.511 53.9726 299.024 53.3831C299.545 52.7077 299.922 51.9321 300.131 51.1048C300.409 50.0427 300.54 48.9476 300.521 47.85V46.1575C300.537 45.06 300.405 43.9654 300.131 42.9027C299.922 42.0852 299.545 41.3202 299.024 40.6569C298.52 40.0572 297.87 39.5976 297.136 39.3225C296.282 39.0103 295.377 38.8559 294.467 38.8668C293.557 38.853 292.652 39.0075 291.798 39.3225C291.061 39.5894 290.408 40.0504 289.911 40.6569C289.379 41.3179 288.991 42.0829 288.771 42.9027C288.497 43.9654 288.365 45.06 288.381 46.1575V47.85Z" fill="#0E2A47"/>
<path d="M309.712 57.4021V36.6366H311.437L322.731 51.9991V36.6366H325.302V57.4021H323.48L312.316 41.9744V57.337L309.712 57.4021Z" fill="#0E2A47"/>
<path d="M89.1748 35.416L101.862 58.0364H109.082V20.1563H112.721V15.2767H98.8437V20.1563H103.639V48.9824L103.413 50.3362L89.1748 24.7199V35.416Z" fill="#0E2A47"/>
<path d="M148.824 15.2767H118.193V20.1563H122.254V53.185H118.193V58.0364H148.824V45.9644H143.042V53.185H127.783V38.6874H140.616V33.836H127.783V20.1563H143.042V27.3769H148.824V15.2767Z" fill="#0E2A47"/>
<path d="M81.0514 15.2208H63.9341V20.1568H75.5457V53.1855H64.0469V58.0369H92.217V53.1855H81.074V38.6879H81.0514V15.2208Z" fill="white"/>
<path d="M40.467 8H35.0516V36.8825H40.467V8Z" fill="#0E2A47"/>
<path d="M47.8851 23.09C47.2518 22.3863 46.5691 21.7587 45.837 21.2073L48.6031 16.4162C49.9733 17.3228 51.2101 18.391 52.3134 19.6207C54.1185 21.6139 55.5194 23.9643 56.516 26.6721C57.5126 29.3798 58.0109 32.2756 58.0109 35.3594C58.0109 38.4432 57.5032 41.339 56.4878 44.0467C55.4912 46.7356 54.0809 49.0861 52.257 51.0981C50.4518 53.1101 48.2894 54.699 45.7697 55.8648C43.2688 57.0119 40.514 57.5854 37.5054 57.5854C34.5533 57.5854 31.8549 57.0401 29.4105 55.9495C26.966 54.84 24.7847 53.2699 22.8668 51.2391C20.9488 49.2083 19.4915 46.8015 18.4949 44.0185C17.4983 41.2356 17 38.3492 17 35.3594C17 32.2756 17.4983 29.3798 18.4949 26.6721C19.5103 23.9643 20.9206 21.6139 22.7257 19.6207C23.7546 18.4857 24.8912 17.4884 26.1355 16.6286L28.881 21.384C28.1056 22.0044 27.3983 22.7047 26.7591 23.4849C25.4805 25.0268 24.4933 26.8319 23.7975 28.9003C23.1018 30.9499 22.7539 33.103 22.7539 35.3594C22.7539 37.9919 23.1394 40.3424 23.9104 42.4108C24.6813 44.4604 25.6967 46.1715 26.9566 47.5442C28.2352 48.8981 29.7489 50.0357 31.4977 50.9571C33.2652 51.8785 35.2678 52.3391 37.5054 52.3391C39.7431 52.3391 41.7645 51.8785 43.5696 50.9571C45.3936 50.0357 46.9449 48.8041 48.2236 47.2621C49.5022 45.7014 50.4894 43.8963 51.1852 41.8467C51.8809 39.7971 52.2288 37.6346 52.2288 35.3594C52.2288 33.0277 51.8433 30.7807 51.0723 28.6183C50.3202 26.437 49.2578 24.5943 47.8851 23.09Z" fill="#0E2A47"/>
</svg>
