<svg width="1000" height="1000" viewBox="0 0 1000 1000" fill="none" xmlns="http://www.w3.org/2000/svg">
<g clip-path="url(#clip0_357_5170)">
<rect width="1000" height="1000" fill="#0E2A47"/>
<path d="M-108.696 1094.93V1072.2L116.74 983.573L435.024 1108.7H377.106L116.74 1006.36L-108.696 1094.93Z" fill="#4A5F75"/>
<path fill-rule="evenodd" clip-rule="evenodd" d="M516.81 1108.7L116.665 953.342L-108.696 1040.84V1018.29L-107.094 1017.67L-106.496 903.586C-107.415 903.014 -108.172 902.222 -108.696 901.285V894.555C-108.46 894.104 -108.175 893.677 -107.842 893.281C-108.057 892.824 -108.346 892.407 -108.696 892.045V881.355C-107.999 879.984 -107.387 878.011 -107.094 875.175H-108.696V844.85H401.599L405.787 830.129H-108.696V676.277L-107.543 674.531C-107.543 514.223 29.0164 450.482 42.0291 444.741L50.8538 431.051L47.4136 424.132H41.8795L36.3453 412.797L45.1701 405.879L47.5632 399.696H66.858L62.3709 382.473H73.4391L74.9349 380.265V338.752C74.3315 337.999 74.0141 337.062 74.0374 336.102C74.0159 335.613 74.0979 335.125 74.2781 334.669C74.4584 334.213 74.7329 333.799 75.0844 333.453V331.392H73.2896L67.7554 319.91H75.0844L61.9221 290.763H71.1956C71.785 281.97 74.6689 273.476 79.5686 266.101C84.4682 258.726 91.218 252.719 99.1655 248.661H98.1185L103.952 236.885C103.942 234.39 104.672 231.946 106.054 229.854C107.436 227.761 109.408 226.112 111.729 225.108H119.956C122.357 226.034 124.415 227.656 125.857 229.759C127.3 231.862 128.059 234.347 128.033 236.885L134.016 249.397H133.118C141.084 253.432 147.85 259.433 152.752 266.813C157.655 274.193 160.527 282.699 161.088 291.499H170.96L157.349 319.91H164.827L159.742 331.539H158.545V333.011C159.1 333.391 159.553 333.897 159.865 334.487C160.178 335.077 160.341 335.732 160.34 336.397C160.287 337.323 159.919 338.205 159.293 338.899V380.559L160.789 382.62H170.96L166.174 399.843H186.366L188.609 406.026L196.387 412.944L190.853 424.279H185.319L181.879 431.198L191.152 445.036C207.156 451.954 340.724 515.989 340.724 674.531L344.313 680.42H363.608V689.547L356.429 700.44V718.694L345.809 738.419V805.693H444.227L436.3 824.683H444.227L434.056 856.185H423.586V875.175H408.629C409.527 884.596 414.163 884.596 414.163 884.596V890.779C413.361 890.75 412.564 890.908 411.836 891.241C411.108 891.573 410.471 892.071 409.975 892.692C410.896 893.282 411.653 894.09 412.175 895.041C412.698 895.993 412.97 897.058 412.967 898.139C412.92 899.281 412.58 900.394 411.978 901.372C411.377 902.35 410.533 903.162 409.527 903.733L410.873 1044.9L575.155 1108.7H516.81ZM124.892 273.392C129.678 273.392 141.345 288.113 141.943 299.448V300.773H126.986V299.595C126.965 292.359 126.112 285.149 124.443 278.103V273.245L124.892 273.392ZM130.127 323.737H139.849V382.031H130.127V323.737ZM90.0416 299.448C90.0416 288.996 101.708 273.392 107.093 273.392H108.589V277.956C106.578 285.015 105.374 292.273 104.999 299.595V300.773H90.0416V299.448ZM93.7809 323.737H103.353V382.031H93.7809V323.737ZM152.712 404.995L150.469 419.716H82.8622L80.6186 404.995H152.712ZM66.858 431.198H166.323L174.699 445.919H58.6315L66.858 431.198ZM-80.171 666.729C-78.5257 526.883 47.1145 471.68 52.4991 469.472H75.0844C75.0844 469.472 60.1272 476.096 56.0888 478.746C55.8922 478.875 55.4272 479.145 54.7209 479.556L54.717 479.558C40.8983 487.591 -65.0533 549.179 -61.9232 656.719H0.298571C-0.403741 623.076 5.8652 589.644 18.723 558.463C31.5807 527.283 50.7578 499.007 75.0844 475.36L82.4135 469.325H93.9304L87.4989 478.304C41.7008 526.671 16.2098 590.311 16.1532 656.425H68.2041C68.2041 563.832 87.4989 498.177 98.1185 476.244L101.259 469.325H115.17L112.926 477.716C94.7133 535.601 85.3375 595.828 85.1057 656.425H148.375C148.24 595.843 138.965 535.616 120.853 477.716L118.46 469.325H132.52L135.661 476.244C156.545 534.031 166.432 595.111 164.827 656.425H217.178C217.121 590.311 191.63 526.671 145.832 478.304L139.4 469.325H150.768L158.246 475.36C182.536 498.972 201.692 527.2 214.548 558.328C227.405 589.455 233.694 622.831 233.032 656.425H295.104C298.381 543.857 182.732 481.493 177.158 478.487L177.092 478.452C172.456 475.949 158.097 469.178 158.097 469.178H180.532C185.917 471.386 311.557 526.588 313.203 666.435V671.44H-80.3205L-80.171 666.729ZM-97.6709 694.699H333.096V709.42H-97.6709V694.699ZM315.147 743.424V805.987H302.284V743.424C302.284 740.48 303.929 729.734 308.715 729.734C313.502 729.734 315.147 740.333 315.147 743.424ZM264.741 743.424V805.987H243.353V743.572C243.353 743.572 243.353 729.734 253.224 729.734C263.096 729.734 264.741 742.1 264.741 743.424ZM205.81 743.424V805.987H173.503V743.572C173.429 741.658 173.773 739.752 174.511 737.981C175.249 736.209 176.364 734.614 177.782 733.303C179.199 731.991 180.885 730.994 182.727 730.379C184.569 729.763 186.524 729.543 188.46 729.734C204.314 729.734 205.81 740.333 205.81 743.424ZM132.37 743.572V805.987H100.96V743.572C101.485 739.839 103.364 736.42 106.251 733.944C109.138 731.469 112.837 730.106 116.665 730.106C120.494 730.106 124.193 731.469 127.08 733.944C129.966 736.42 131.846 739.839 132.37 743.572ZM59.2298 743.572V805.84H27.8198V743.572C28.3444 739.839 30.2236 736.42 33.1103 733.944C35.997 731.469 39.6963 730.106 43.5248 730.106C47.3533 730.106 51.0525 731.469 53.9392 733.944C56.8259 736.42 58.7052 739.839 59.2298 743.572ZM-9.87232 743.572V805.84H-31.261V743.572C-31.261 742.1 -31.2611 729.734 -20.6415 729.734C-10.7135 729.734 -10.0669 740.413 -9.90263 743.127C-9.89126 743.314 -9.88202 743.467 -9.87232 743.572ZM-68.9531 743.572V805.84H-81.8163V743.424C-81.8163 740.48 -80.3206 729.734 -75.3847 729.734C-70.4488 729.734 -68.9531 740.333 -68.9531 743.572ZM-37.8422 990.585L-74.4873 1005.31V903.586C-73.5363 902.98 -72.752 902.152 -72.204 901.176C-71.6561 900.201 -71.3615 899.107 -71.3463 897.992C-71.346 896.942 -71.5882 895.907 -72.0546 894.963C-72.5211 894.019 -73.1995 893.193 -74.0386 892.545C-73.6221 891.949 -73.0634 891.463 -72.4114 891.129C-71.7594 890.796 -71.0341 890.625 -70.2993 890.631V884.449C-70.2993 884.449 -74.4873 884.449 -75.2351 875.175H-37.3935C-38.1413 883.86 -42.0302 884.449 -42.1798 884.449V890.631C-41.298 890.635 -40.4356 890.887 -39.6938 891.356C-38.952 891.826 -38.3616 892.493 -37.9918 893.281C-39.157 894.581 -39.7958 896.258 -39.7866 897.992C-39.7993 899.112 -39.5165 900.216 -38.966 901.197C-38.4154 902.177 -37.616 903 -36.6456 903.586L-37.8422 990.585ZM31.7086 963.646L-5.2356 978.367V903.88C-4.3123 903.257 -3.55722 902.423 -3.03595 901.448C-2.51467 900.473 -2.24288 899.388 -2.24417 898.286C-2.22056 897.233 -2.45248 896.19 -2.92073 895.242C-3.38895 894.295 -4.07999 893.471 -4.93644 892.84C-4.48775 892.241 -3.90145 891.756 -3.2255 891.423C-2.54959 891.09 -1.80325 890.92 -1.04757 890.926V884.743C-1.04757 884.743 -5.23558 884.743 -5.98345 875.469H31.8582C31.8582 884.154 27.2215 884.743 27.0719 884.743V890.926C27.9578 890.911 28.8283 891.155 29.5736 891.627C30.3189 892.098 30.9056 892.776 31.2599 893.576C30.1487 894.897 29.5639 896.571 29.6146 898.286C29.602 899.406 29.8847 900.511 30.4353 901.491C30.9858 902.471 31.7853 903.295 32.7556 903.88L31.7086 963.646ZM100.96 936.707L64.0161 951.428V904.174C64.8835 903.529 65.5871 902.695 66.0716 901.737C66.556 900.78 66.8082 899.724 66.8082 898.654C66.8082 897.584 66.556 896.529 66.0716 895.571C65.5871 894.613 64.8835 893.779 64.0161 893.134C64.4325 892.538 64.9912 892.052 65.6432 891.718C66.2952 891.384 67.0205 891.214 67.7554 891.22V885.038C67.7554 885.038 63.7169 884.007 62.8195 875.322H100.811C99.9133 884.007 96.0244 885.038 95.8749 885.038V891.22C96.7528 891.241 97.6078 891.5 98.3465 891.967C99.0852 892.434 99.6789 893.093 100.063 893.87C98.9516 895.192 98.3669 896.866 98.4176 898.581C98.3744 899.689 98.628 900.79 99.153 901.771C99.678 902.753 100.456 903.582 101.409 904.174L100.96 936.707ZM170.062 951.428L133.268 936.707V903.144C134.219 902.538 135.003 901.711 135.551 900.735C136.099 899.759 136.394 898.665 136.409 897.55C136.409 896.501 136.167 895.465 135.7 894.521C135.234 893.578 134.556 892.751 133.717 892.104C134.133 891.508 134.692 891.021 135.344 890.688C135.996 890.354 136.721 890.183 137.456 890.19V884.007C137.456 884.007 133.268 884.007 132.52 874.733H170.362C170.362 883.418 165.725 884.007 165.575 884.007V890.19C166.457 890.194 167.32 890.445 168.061 890.915C168.803 891.384 169.394 892.052 169.763 892.84C168.598 894.14 167.959 895.816 167.968 897.55C167.956 898.67 168.239 899.774 168.789 900.755C169.34 901.735 170.139 902.559 171.109 903.144L170.062 951.428ZM239.613 978.367L202.669 963.646V903.291C203.592 902.669 204.347 901.834 204.869 900.859C205.39 899.884 205.662 898.799 205.661 897.697C205.684 896.644 205.452 895.601 204.984 894.653C204.516 893.706 203.825 892.882 202.968 892.251C203.394 891.664 203.954 891.184 204.604 890.852C205.254 890.519 205.975 890.343 206.707 890.337V884.154C206.707 884.154 202.519 884.154 201.772 874.88H239.613C238.865 883.565 234.977 884.154 234.827 884.154V890.337C235.713 890.322 236.583 890.566 237.329 891.038C238.074 891.509 238.661 892.187 239.015 892.987C237.904 894.308 237.319 895.983 237.37 897.697C237.357 898.818 237.64 899.922 238.19 900.902C238.741 901.883 239.54 902.706 240.511 903.291L239.613 978.367ZM308.117 1005.31L271.921 990.585L271.023 903.144C271.929 902.504 272.671 901.666 273.19 900.695C273.709 899.724 273.992 898.647 274.015 897.55C274.038 896.497 273.806 895.453 273.338 894.506C272.87 893.559 272.179 892.735 271.322 892.104C271.739 891.508 272.298 891.021 272.95 890.688C273.602 890.354 274.327 890.183 275.062 890.19V884.007C275.062 884.007 270.874 884.007 270.126 874.733H308.117C307.22 883.418 303.331 884.007 303.181 884.007V890.19C304.063 890.194 304.925 890.445 305.667 890.915C306.409 891.384 306.999 892.052 307.369 892.84C306.258 894.161 305.673 895.835 305.724 897.55C305.681 898.659 305.934 899.759 306.459 900.741C306.984 901.723 307.762 902.551 308.715 903.144L308.117 1005.31ZM377.219 1032.1L341.023 1017.38L340.125 903.144C341.076 902.538 341.861 901.711 342.409 900.735C342.957 899.759 343.251 898.665 343.266 897.55C343.267 896.501 343.025 895.465 342.558 894.521C342.092 893.578 341.413 892.751 340.574 892.104C340.991 891.508 341.549 891.021 342.201 890.688C342.853 890.354 343.579 890.183 344.313 890.19V884.007C344.313 884.007 340.125 884.007 339.378 874.733H377.219C376.471 883.418 372.583 884.007 372.433 884.007V890.19C373.34 890.165 374.235 890.403 375.006 890.874C375.777 891.345 376.39 892.029 376.77 892.84C375.605 894.14 374.966 895.816 374.976 897.55C374.963 898.67 375.246 899.774 375.796 900.755C376.347 901.735 377.146 902.559 378.117 903.144L377.219 1032.1Z" fill="#4A5F75"/>
<path d="M648.435 249.565L534.174 194V164.522L648.435 108.957V135.304L570.435 172.609C566.956 174.174 563.652 175.565 560.522 176.783C557.391 177.826 555.043 178.522 553.478 178.87C555.217 179.217 557.652 179.913 560.783 180.957C564.087 182 567.304 183.304 570.435 184.87L648.435 222.435V249.565Z" fill="#4A5F75"/>
<path d="M691.376 312.174V121.739H719.289V149.13H725.289L719.289 155.652C719.289 144.348 722.768 135.478 729.724 129.044C736.855 122.435 746.333 119.13 758.159 119.13C772.594 119.13 784.072 124 792.594 133.739C801.289 143.304 805.637 156.435 805.637 173.13V213.565C805.637 224.696 803.637 234.348 799.637 242.522C795.811 250.522 790.333 256.783 783.202 261.304C776.246 265.652 767.898 267.826 758.159 267.826C746.507 267.826 737.115 264.609 729.985 258.174C722.855 251.565 719.289 242.609 719.289 231.304L725.289 237.826H718.768L719.55 271.217V312.174H691.376ZM748.507 243.304C757.724 243.304 764.855 240.696 769.898 235.478C775.115 230.087 777.724 222.348 777.724 212.261V174.696C777.724 164.609 775.115 156.957 769.898 151.739C764.855 146.348 757.724 143.652 748.507 143.652C739.637 143.652 732.594 146.435 727.376 152C722.159 157.391 719.55 164.957 719.55 174.696V212.261C719.55 222 722.159 229.652 727.376 235.217C732.594 240.609 739.637 243.304 748.507 243.304Z" fill="#4A5F75"/>
<path d="M847.014 249.565V222.957L925.014 185.652C928.492 184.087 931.796 182.783 934.927 181.739C938.057 180.696 940.405 180 941.97 179.652C940.231 179.304 937.709 178.609 934.405 177.565C931.274 176.348 928.144 174.957 925.014 173.391L847.014 136.087V108.957L961.274 164.522V194L847.014 249.565Z" fill="#4A5F75"/>
<path d="M523.934 514.169L598.897 647.826H641.562V424.004H663.061V395.172H581.065V424.004H609.397V594.329L608.063 602.328L523.934 450.969V514.169Z" fill="#DBDFE4"/>
<path d="M876.383 395.172H695.392V424.004H719.391V619.161H695.392V647.826H876.383V576.496H842.219V619.161H752.056V533.498H827.886V504.833H752.056V424.004H842.219V466.668H876.383V395.172Z" fill="#DBDFE4"/>
<g filter="url(#filter0_d_357_5170)">
<path d="M475.936 394.839H403.407V424.004H443.405V619.161H404.073V647.826H518.068V619.161H476.07V533.498H475.936V394.839Z" fill="#4392B2"/>
</g>
<g filter="url(#filter1_d_357_5170)">
<path d="M264.747 352.174H232.748V522.832H264.747V352.174Z" fill="white"/>
<path d="M308.578 441.336C304.836 437.178 300.802 433.47 296.476 430.212L312.821 401.903C320.917 407.26 328.224 413.571 334.743 420.837C345.409 432.614 353.687 446.503 359.575 462.502C365.464 478.501 368.408 495.611 368.408 513.833C368.408 532.054 365.408 549.164 359.409 565.163C353.52 581.052 345.187 594.94 334.41 606.828C323.744 618.716 310.967 628.105 296.079 634.993C281.302 641.771 265.025 645.16 247.248 645.16C229.804 645.16 213.86 641.937 199.417 635.493C184.973 628.938 172.085 619.661 160.752 607.661C149.419 595.662 140.808 581.44 134.92 564.997C129.031 548.553 126.087 531.498 126.087 513.833C126.087 495.611 129.031 478.501 134.92 462.502C140.92 446.503 149.252 432.614 159.919 420.837C165.998 414.131 172.714 408.238 180.066 403.158L196.289 431.256C191.707 434.922 187.527 439.06 183.751 443.669C176.196 452.78 170.363 463.446 166.252 475.668C162.141 487.778 160.085 500.5 160.085 513.833C160.085 529.387 162.363 543.276 166.918 555.497C171.474 567.608 177.473 577.718 184.917 585.829C192.473 593.829 201.417 600.551 211.749 605.995C222.193 611.439 234.026 614.161 247.248 614.161C260.469 614.161 272.413 611.439 283.079 605.995C293.856 600.551 303.023 593.273 310.578 584.163C318.133 574.941 323.966 564.275 328.077 552.164C332.188 540.054 334.243 527.276 334.243 513.833C334.243 500.056 331.966 486.778 327.41 474.001C322.966 461.113 316.689 450.225 308.578 441.336Z" fill="white"/>
</g>
</g>
<defs>
<filter id="filter0_d_357_5170" x="399.407" y="390.839" width="122.661" height="260.987" filterUnits="userSpaceOnUse" color-interpolation-filters="sRGB">
<feFlood flood-opacity="0" result="BackgroundImageFix"/>
<feColorMatrix in="SourceAlpha" type="matrix" values="0 0 0 0 0 0 0 0 0 0 0 0 0 0 0 0 0 0 127 0" result="hardAlpha"/>
<feOffset/>
<feGaussianBlur stdDeviation="2"/>
<feComposite in2="hardAlpha" operator="out"/>
<feColorMatrix type="matrix" values="0 0 0 0 0.262745 0 0 0 0 0.572549 0 0 0 0 0.698039 0 0 0 0.5 0"/>
<feBlend mode="normal" in2="BackgroundImageFix" result="effect1_dropShadow_357_5170"/>
<feBlend mode="normal" in="SourceGraphic" in2="effect1_dropShadow_357_5170" result="shape"/>
</filter>
<filter id="filter1_d_357_5170" x="122.087" y="348.174" width="250.321" height="300.985" filterUnits="userSpaceOnUse" color-interpolation-filters="sRGB">
<feFlood flood-opacity="0" result="BackgroundImageFix"/>
<feColorMatrix in="SourceAlpha" type="matrix" values="0 0 0 0 0 0 0 0 0 0 0 0 0 0 0 0 0 0 127 0" result="hardAlpha"/>
<feOffset/>
<feGaussianBlur stdDeviation="2"/>
<feComposite in2="hardAlpha" operator="out"/>
<feColorMatrix type="matrix" values="0 0 0 0 1 0 0 0 0 1 0 0 0 0 1 0 0 0 0.5 0"/>
<feBlend mode="normal" in2="BackgroundImageFix" result="effect1_dropShadow_357_5170"/>
<feBlend mode="normal" in="SourceGraphic" in2="effect1_dropShadow_357_5170" result="shape"/>
</filter>
<clipPath id="clip0_357_5170">
<rect width="1000" height="1000" fill="white"/>
</clipPath>
</defs>
</svg>
